<svg xmlns="http://www.w3.org/2000/svg" xmlns:xlink="http://www.w3.org/1999/xlink" width="90" height="24" viewBox="0 0 90 24">
    <defs>
        <filter id="cdbsh6h4ba" width="100.6%" height="103.6%" x="-.3%" y="0%" filterUnits="objectBoundingBox">
            <feGaussianBlur in="SourceGraphic"/>
        </filter>
        <filter id="ss95320iub" width="101.1%" height="107.1%" x="-.6%" y="-1.8%" filterUnits="objectBoundingBox">
            <feOffset dy="1" in="SourceAlpha" result="shadowOffsetOuter1"/>
            <feGaussianBlur in="shadowOffsetOuter1" result="shadowBlurOuter1" stdDeviation=".5"/>
            <feColorMatrix in="shadowBlurOuter1" values="0 0 0 0 0 0 0 0 0 0 0 0 0 0 0 0 0 0 0.12 0"/>
        </filter>
        <path id="rlhvao6vxc" d="M0 0H360V56H0z"/>
    </defs>
    <g fill="none" fill-rule="evenodd">
        <g>
            <path fill="#FFF" d="M0 0H360V2972H0z" transform="translate(-16 -16)"/>
            <g>
                <g>
                    <g>
                        <g filter="url(#cdbsh6h4ba)" transform="translate(-16 -16)">
                            <use fill="#000" filter="url(#ss95320iub)" xlink:href="#rlhvao6vxc"/>
                            <use fill="#272727" xlink:href="#rlhvao6vxc"/>
                        </g>
                        <g>
                            <path d="M0 0H100V24H0z" transform="translate(-16 -16) translate(16 16)"/>
                            <g>
                                <g>
                                    <g>
                                        <path fill="#FF4320" d="M18.386 2.904c0-.194-.075-.382-.21-.52L16.061.215C15.926.078 15.744 0 15.554 0H3.29c-.19 0-.372.078-.507.215L.669 2.385c-.135.137-.21.325-.21.52v12.573c0 .195.075.382.21.52l2.115 2.17c.135.137.317.215.507.215h12.263c.19 0 .372-.078.507-.216l2.115-2.169c.135-.138.21-.325.21-.52V2.904z" transform="translate(-16 -16) translate(16 16) translate(0 3) translate(71.25)"/>
                                        <path fill="#FFF" d="M11.5 5.972L10.01 9.92 7.974 5.972H6.486l2.896 5.54-.387.905-.042.107c-.076.19-.163.321-.256.39-.09.066-.237.1-.439.1-.25 0-.47-.008-.661-.025l-.216-.019v1.377l1.002.031c.461 0 .845-.115 1.139-.344.287-.224.533-.594.733-1.098l2.721-6.964H11.5z" transform="translate(-16 -16) translate(16 16) translate(0 3) translate(71.25)"/>
                                    </g>
                                    <g>
                                        <path fill="#FFC600" d="M18.055 6.287V2.904c0-.194-.076-.382-.21-.52L15.73.215C15.595.078 15.413 0 15.223 0H2.96c-.19 0-.372.078-.507.215L.338 2.385c-.135.137-.21.325-.21.52v12.573c0 .195.075.382.21.52l2.115 2.17c.135.137.317.215.507.215h12.263c.19 0 .372-.078.507-.216l2.115-2.169c.134-.138.21-.325.21-.52v-3.382c0-.196.076-.382.21-.52l2.07-2.123c.141-.144.141-.379 0-.524l-2.07-2.122c-.134-.138-.21-.325-.21-.52" transform="translate(-16 -16) translate(16 16) translate(0 3) translate(53.654)"/>
                                        <path fill="#FFF" d="M9.898 5.818c-.453 0-.882.128-1.274.38-.174.111-.325.234-.455.369V5.97H6.846v6.818h1.38V9.66c0-.771.134-1.405.4-1.883.248-.448.62-.665 1.141-.665.348 0 .617.136.824.418.217.295.326.721.326 1.266v.538h1.38v-.56c0-.917-.211-1.644-.63-2.16-.427-.529-1.022-.797-1.769-.797" transform="translate(-16 -16) translate(16 16) translate(0 3) translate(53.654)"/>
                                    </g>
                                    <g>
                                        <path fill="#7255EE" d="M18.532 6.287V2.904c0-.194-.076-.382-.21-.52L16.206.215C16.072.078 15.89 0 15.7 0H3.437c-.19 0-.373.078-.507.215L.815 2.385c-.135.137-.21.325-.21.52v12.573c0 .195.075.382.21.52l2.115 2.17c.134.137.316.215.507.215h12.262c.19 0 .373-.078.507-.216l2.116-2.169c.134-.138.21-.325.21-.52v-3.382c0-.196.075-.382.21-.52l2.07-2.123c.14-.144.14-.379 0-.524l-2.07-2.122c-.135-.138-.21-.325-.21-.52" transform="translate(-16 -16) translate(16 16) translate(0 3) translate(35.25)"/>
                                        <path fill="#FFF" d="M11.478 10.912c-.014.208-.094.378-.246.518-.155.142-.361.212-.63.212-.29 0-.533-.1-.74-.303-.202-.198-.304-.534-.304-.999V7.266h2.6V5.971h-2.6V4.197h-1.3v1.774h-1.9v1.295h1.9v3.07c0 .82.232 1.466.689 1.92.455.45 1.008.68 1.642.68.684 0 1.225-.203 1.61-.604.384-.4.578-.872.578-1.406v-.204H11.49l-.012.19z" transform="translate(-16 -16) translate(16 16) translate(0 3) translate(35.25)"/>
                                    </g>
                                    <g>
                                        <path fill="#2F96FD" d="M18.605 6.287V2.904c0-.194-.076-.382-.21-.52L16.279.215C16.145.078 15.963 0 15.772 0H3.51c-.19 0-.373.078-.507.215L.887 2.385c-.134.137-.21.325-.21.52v12.573c0 .195.076.382.21.52l2.116 2.17c.134.137.316.215.507.215h12.262c.19 0 .373-.078.507-.216l2.116-2.169c.134-.138.21-.325.21-.52v-3.382c0-.196.075-.382.21-.52l2.07-2.123c.14-.144.14-.379 0-.524l-2.07-2.122c-.135-.138-.21-.325-.21-.52" transform="translate(-16 -16) translate(16 16) translate(0 3) translate(17.25)"/>
                                        <path fill="#FFF" d="M10.386 5.818c-.428 0-.838.104-1.22.307-.208.112-.394.247-.558.404V5.97H7.333v6.818h1.3v-3.39c0-.72.15-1.292.446-1.7.288-.394.695-.586 1.245-.586.448 0 .784.136 1.028.418.245.284.37.702.37 1.24v4.018h1.381V8.857c0-.955-.236-1.707-.702-2.235-.473-.533-1.15-.804-2.015-.804" transform="translate(-16 -16) translate(16 16) translate(0 3) translate(17.25)"/>
                                    </g>
                                    <g>
                                        <path fill="#00D674" d="M17.927 6.287V2.904c0-.194-.075-.382-.21-.52L15.602.215C15.467.078 15.285 0 15.095 0H2.832c-.19 0-.372.078-.507.215L.21 2.385c-.134.137-.21.325-.21.52v12.573c0 .195.076.382.21.52l2.115 2.17c.135.137.317.215.507.215h12.263c.19 0 .372-.078.507-.216l2.115-2.169c.135-.138.21-.325.21-.52v-3.382c0-.196.076-.382.21-.52l2.07-2.123c.141-.144.141-.379 0-.524l-2.07-2.122c-.134-.138-.21-.325-.21-.52" transform="translate(-16 -16) translate(16 16) translate(0 3)"/>
                                        <path fill="#FFF" d="M7.45 8.59c.093-.409.262-.751.504-1.019.278-.308.644-.458 1.118-.458.467 0 .833.148 1.118.454.246.263.402.607.465 1.023H7.45zm3.327-2.22c-.471-.366-1.055-.552-1.736-.552-.922 0-1.669.352-2.221 1.047-.542.681-.816 1.538-.816 2.546 0 1.035.299 1.89.887 2.538.592.655 1.393.986 2.38.986 1.02 0 1.893-.433 2.593-1.288l.122-.149-.949-.898-.134.17c-.458.586-.992.871-1.632.871-.56 0-.998-.167-1.338-.514-.299-.304-.483-.721-.548-1.243h4.632l.018-.644c0-.555-.092-1.083-.275-1.57-.187-.5-.518-.938-.983-1.3z" transform="translate(-16 -16) translate(16 16) translate(0 3)"/>
                                    </g>
                                </g>
                            </g>
                        </g>
                    </g>
                </g>
            </g>
        </g>
    </g>
</svg>
