<svg xmlns="http://www.w3.org/2000/svg" width="40" height="40" viewBox="0 0 40 40"><g fill="none" fill-rule="evenodd"><path fill="#FFFFFF00" fill-rule="nonzero" stroke="#7255ee" d="M4 .5A3.5 3.5 0 0 0 .5 4v32A3.5 3.5 0 0 0 4 39.5h32a3.5 3.5 0 0 0 3.5-3.5V4A3.5 3.5 0 0 0 36 .5H4z"/><path fill="#7255ee" fill-rule="nonzero" d="M6.5 9v22h28v1h-29V9h1z"/><path fill="#FFB500" d="M13.5 18v10h-4V18h4zm12-9v19h-4V9h4z"/><path fill="#7255ee" fill-rule="nonzero" d="M19.5 20v8h-4v-8h4zm12-6v14h-4V14h4z"/></g></svg>