<svg xmlns="http://www.w3.org/2000/svg" xmlns:xlink="http://www.w3.org/1999/xlink" width="45" height="49" viewBox="0 0 45 49">
    <defs>
        <linearGradient id="a" x1="50%" x2="50%" y1="27.502%" y2="100%">
            <stop offset="0%" stop-color="#4A4A4A"/>
            <stop offset="100%" stop-color="#2C2C2C"/>
        </linearGradient>
        <filter id="c" width="109.3%" height="108.5%" x="-4.7%" y="-4.3%" filterUnits="objectBoundingBox">
            <feOffset dx="1" dy="2" in="SourceAlpha" result="shadowOffsetInner1"/>
            <feComposite in="shadowOffsetInner1" in2="SourceAlpha" k2="-1" k3="1" operator="arithmetic" result="shadowInnerInner1"/>
            <feColorMatrix in="shadowInnerInner1" values="0 0 0 0 0 0 0 0 0 0 0 0 0 0 0 0 0 0 0.15 0"/>
        </filter>
        <path id="b" d="M5 256h35a4 4 0 0 1 4 4v39a4 4 0 0 1-4 4H5a4 4 0 0 1-4-4v-39a4 4 0 0 1 4-4z"/>
    </defs>
    <g fill="none" fill-rule="evenodd" transform="translate(0 -255)">
        <use xlink:href="#b" fill="url(#a)"/>
        <use xlink:href="#b" fill="#000" filter="url(#c)"/>
        <path stroke="#1A1A1A" d="M40 255.5c1.243 0 2.368.504 3.182 1.318A4.486 4.486 0 0 1 44.5 260v39a4.486 4.486 0 0 1-1.318 3.182A4.486 4.486 0 0 1 40 303.5H5a4.486 4.486 0 0 1-3.182-1.318A4.486 4.486 0 0 1 .5 299v-39c0-1.243.504-2.368 1.318-3.182A4.486 4.486 0 0 1 5 255.5z"/>
    </g>
</svg>