<svg xmlns="http://www.w3.org/2000/svg" xmlns:xlink="http://www.w3.org/1999/xlink" width="45" height="49" viewBox="0 0 45 49">
    <defs>
        <linearGradient id="a" x1="50%" x2="50%" y1="66.635%" y2="100%">
            <stop offset="0%" stop-color="#4A4A4A"/>
            <stop offset="100%" stop-color="#2C2C2C"/>
        </linearGradient>
        <linearGradient id="b" x1="50%" x2="50%" y1="0%" y2="78.051%">
            <stop offset="0%" stop-color="#3A3A3A"/>
            <stop offset="100%" stop-color="#1A1A1A"/>
        </linearGradient>
        <filter id="d" width="107%" height="107%" x="-3.5%" y="-3.5%" filterUnits="objectBoundingBox">
            <feGaussianBlur in="SourceAlpha" result="shadowBlurInner1" stdDeviation=".5"/>
            <feOffset dy="2" in="shadowBlurInner1" result="shadowOffsetInner1"/>
            <feComposite in="shadowOffsetInner1" in2="SourceAlpha" k2="-1" k3="1" operator="arithmetic" result="shadowInnerInner1"/>
            <feColorMatrix in="shadowInnerInner1" values="0 0 0 0 0 0 0 0 0 0 0 0 0 0 0 0 0 0 0.5 0"/>
        </filter>
        <rect id="c" width="43" height="43" x="1" y="1" rx="4"/>
    </defs>
    <g fill="none" fill-rule="evenodd">
        <path fill="url(#a)" stroke="#2C2C2C" d="M40 .5c1.243 0 2.368.504 3.182 1.318A4.486 4.486 0 0 1 44.5 5v39a4.486 4.486 0 0 1-1.318 3.182A4.486 4.486 0 0 1 40 48.5H5a4.486 4.486 0 0 1-3.182-1.318A4.486 4.486 0 0 1 .5 44V5c0-1.243.504-2.368 1.318-3.182A4.486 4.486 0 0 1 5 .5h35z"/>
        <use xlink:href="#c" fill="url(#b)"/>
        <use xlink:href="#c" fill="#000" filter="url(#d)"/>
    </g>
</svg>