<svg xmlns="http://www.w3.org/2000/svg" width="17" height="18"><defs><filter id="a"><feColorMatrix in="SourceGraphic" values="0 0 0 0 1.000000 0 0 0 0 1.000000 0 0 0 0 1.000000 0 0 0 1.000000 0"/></filter></defs><g fill="none" fill-rule="evenodd"><g transform="translate(-16 -9)" filter="url(#a)"><path d="M18 9.17V13a2 2 0 0 0 2 2h9a2 2 0 0 0 2-2V9.172A3.002 3.002 0 0 1 32.998 12L33 24a3 3 0 0 1-2.823 2.995L30 27H19.002a3 3 0 0 1-3-3L16 12a3 3 0 0 1 2-2.83zM30 17H19a1 1 0 0 0-1 1v6a1 1 0 0 0 1 1h11a1 1 0 0 0 1-1v-6a1 1 0 0 0-1-1zm-5.5 4.5a.5.5 0 1 1 0 1h-5a.5.5 0 1 1 0-1h5zm3-2.5a.5.5 0 1 1 0 1h-8a.5.5 0 1 1 0-1h8zM30 9v4a1 1 0 0 1-1 1h-9a1 1 0 0 1-1-1V9h11z" fill="#FFF" fill-rule="nonzero"/></g></g></svg>