<svg xmlns="http://www.w3.org/2000/svg" width="8" height="14" viewBox="0 0 8 14">
    <g fill="none" fill-rule="evenodd">
        <g fill="#FFF">
            <g>
                <path d="M6.965 0h.07c.096.002.188.022.271.06.166.064.328.175.465.329l5.911 6.1c.377.424.426 1.018.109 1.328-.317.31-.88.217-1.256-.206L7 1.934 1.465 7.61c-.35.393-.86.5-1.184.266l-.072-.06c-.294-.288-.273-.82.033-1.235l.076-.093 5.91-6.1c.139-.155.301-.266.468-.328.082-.039.174-.059.27-.061z" transform="translate(-324 -145) rotate(90 93.5 238.5)"/>
            </g>
        </g>
    </g>
</svg>
