<svg xmlns="http://www.w3.org/2000/svg" width="21" height="24" viewBox="0 0 21 24">
    <path fill="#FFF" fill-rule="evenodd" d="M10.2 0c1.024 0 1.855.83 1.855 1.855v.16c4.748.872 8.345 5.031 8.345 10.031v8.262h-6.49c0 2.039-1.662 3.692-3.71 3.692-1.946 0-3.556-1.496-3.703-3.487l-.008-.206H0v-8.26c0-5 3.597-9.16 8.345-10.033v-.16C8.345.83 9.175 0 10.2 0zm1.855 20.308h-3.71l.006.137c.07.956.871 1.709 1.849 1.709 1.024 0 1.855-.827 1.855-1.846zM10.2 3.692c-4.423 0-8.024 3.52-8.156 7.91l-.004.25v6.61h16.32v-6.61c0-4.506-3.653-8.16-8.16-8.16z"/>
</svg>
