<svg xmlns="http://www.w3.org/2000/svg" width="22" height="22" viewBox="0 0 22 22"><g fill="#FFFFFF00" fill-rule="evenodd"><g><path fill="#FFFFFF00" d="M0 0H1024V768H0z" transform="translate(-18 -133)"/><g fill-rule="nonzero"><g><g fill="#ECF8FF00" stroke="#D6E9F400"/><g><g transform="translate(-18 -133) translate(0 120) translate(18 13)"><circle cx="11" cy="11" r="10.5" fill="#FFFFFF00" stroke="#7255ee"/><path fill="#7255ee" d="M16.057 11.42c-.231 2.568-2.39 4.58-5.018 4.58-1.272 0-2.435-.472-3.321-1.25l3.33-3.33h5.01zm-5.476-5.477v4.648l-3.495 3.495C6.406 13.227 6 12.142 6 10.961c0-2.628 2.013-4.787 4.58-5.018zM11.585 5c2.87.259 5.156 2.545 5.415 5.415h-5.416L11.585 5z"/></g></g></g></g></g></g></svg>