<?xml version="1.0" encoding="utf-8"?>
<!-- Generator: Adobe Illustrator 24.3.0, SVG Export Plug-In . SVG Version: 6.00 Build 0)  -->
<svg version="1.1" id="레이어_1" xmlns="http://www.w3.org/2000/svg" xmlns:xlink="http://www.w3.org/1999/xlink" x="0px"
	 y="0px" viewBox="0 0 2048 822" style="enable-background:new 0 0 2048 822;" xml:space="preserve">
<style type="text/css">
	.st0{fill-rule:evenodd;clip-rule:evenodd;fill:#333;}
	.st1{fill-rule:evenodd;clip-rule:evenodd;fill:#FFFFFF;}
	.st2{filter:url(#Adobe_OpacityMaskFilter);}
	.st3{mask:url(#lfa2ivtylb_1_);fill-rule:evenodd;clip-rule:evenodd;fill:#DDF4FE;}
	.st4{filter:url(#Adobe_OpacityMaskFilter_1_);}
	.st5{mask:url(#ohgjijewgd_1_);fill-rule:evenodd;clip-rule:evenodd;fill:#DDF4FE;}
	.st6{filter:url(#Adobe_OpacityMaskFilter_2_);}
	.st7{mask:url(#_x37_eeau921lf_1_);fill-rule:evenodd;clip-rule:evenodd;fill:#97E2BB;}
	.st8{fill-rule:evenodd;clip-rule:evenodd;fill:#BBFFB7;}
	.st9{fill-rule:evenodd;clip-rule:evenodd;fill:#97E2BB;}
	.st10{filter:url(#Adobe_OpacityMaskFilter_3_);}
	.st11{mask:url(#dxe9f5gyhh_1_);fill-rule:evenodd;clip-rule:evenodd;fill:#97E2BB;}
	.st12{filter:url(#Adobe_OpacityMaskFilter_4_);}
	.st13{mask:url(#_x39_daflebffj_1_);fill-rule:evenodd;clip-rule:evenodd;fill:#97E2BB;}
	.st14{filter:url(#Adobe_OpacityMaskFilter_5_);}
	.st15{mask:url(#_x37_f5slruvdl_1_);fill-rule:evenodd;clip-rule:evenodd;fill:#97E2BB;}
	.st16{filter:url(#Adobe_OpacityMaskFilter_6_);}
	.st17{mask:url(#rh1rldlnon_1_);fill-rule:evenodd;clip-rule:evenodd;fill:#97E2BB;}
	.st18{filter:url(#Adobe_OpacityMaskFilter_7_);}
	.st19{mask:url(#yoxtojv82p_1_);fill-rule:evenodd;clip-rule:evenodd;fill:#97E2BB;}
	.st20{filter:url(#Adobe_OpacityMaskFilter_8_);}
	.st21{mask:url(#_x31_eoxpitrjr_1_);fill-rule:evenodd;clip-rule:evenodd;fill:#97E2BB;}
	.st22{fill-rule:evenodd;clip-rule:evenodd;fill:#00DA95;}
	.st23{fill-rule:evenodd;clip-rule:evenodd;fill:#B625FD;}
	.st24{fill-rule:evenodd;clip-rule:evenodd;}
	.st25{fill-rule:evenodd;clip-rule:evenodd;fill:#FF9600;}
	.st26{fill-rule:evenodd;clip-rule:evenodd;fill:#FF3300;}
	.st27{fill-rule:evenodd;clip-rule:evenodd;fill:#C90008;}
	.st28{filter:url(#Adobe_OpacityMaskFilter_9_);}
	.st29{mask:url(#ejqi9xl1kt_1_);fill-rule:evenodd;clip-rule:evenodd;}
	.st30{fill-rule:evenodd;clip-rule:evenodd;fill:#FFD923;}
	.st31{fill-rule:evenodd;clip-rule:evenodd;fill:#3B3B3B;}
	.st32{filter:url(#Adobe_OpacityMaskFilter_10_);}
	.st33{mask:url(#ae4mebnetv_1_);fill-rule:evenodd;clip-rule:evenodd;}
	.st34{fill-rule:evenodd;clip-rule:evenodd;fill:#43B0FF;}
	.st35{fill-rule:evenodd;clip-rule:evenodd;fill:#AAAAAA;}
	.st36{fill-rule:evenodd;clip-rule:evenodd;fill:#404040;}
	.st37{filter:url(#Adobe_OpacityMaskFilter_11_);}
	.st38{mask:url(#agdtrgx0sx_1_);fill-rule:evenodd;clip-rule:evenodd;}
	.st39{filter:url(#Adobe_OpacityMaskFilter_12_);}
	.st40{mask:url(#ed0cb7ep7z_1_);fill-rule:evenodd;clip-rule:evenodd;}
	.st41{filter:url(#Adobe_OpacityMaskFilter_13_);}
	.st42{mask:url(#n0yk22gtdB_1_);fill-rule:evenodd;clip-rule:evenodd;fill:#FFFFFF;}
	.st43{filter:url(#Adobe_OpacityMaskFilter_14_);}
	.st44{mask:url(#bqpprojmzD_1_);fill-rule:evenodd;clip-rule:evenodd;fill:#008AC8;}
	.st45{filter:url(#Adobe_OpacityMaskFilter_15_);}
	.st46{mask:url(#o4rop8hjeF_1_);fill-rule:evenodd;clip-rule:evenodd;}
	.st47{filter:url(#Adobe_OpacityMaskFilter_16_);}
	.st48{mask:url(#_x37_y11ppt0zH_1_);fill-rule:evenodd;clip-rule:evenodd;}
	.st49{filter:url(#Adobe_OpacityMaskFilter_17_);}
	.st50{mask:url(#yrw34cnvpJ_1_);fill-rule:evenodd;clip-rule:evenodd;fill:#FFFFFF;}
	.st51{filter:url(#Adobe_OpacityMaskFilter_18_);}
	.st52{mask:url(#l2gf19xdjL_1_);fill-rule:evenodd;clip-rule:evenodd;}
	.st53{filter:url(#Adobe_OpacityMaskFilter_19_);}
	.st54{mask:url(#q8kpla5m7N_1_);fill-rule:evenodd;clip-rule:evenodd;fill:#673101;}
	.st55{filter:url(#Adobe_OpacityMaskFilter_20_);}
	.st56{mask:url(#xawmwg76eP_1_);fill-rule:evenodd;clip-rule:evenodd;fill:#00A2FC;}
	.st57{filter:url(#Adobe_OpacityMaskFilter_21_);}
	.st58{mask:url(#q8x97mtjrR_1_);fill-rule:evenodd;clip-rule:evenodd;}
	.st59{filter:url(#Adobe_OpacityMaskFilter_22_);}
	.st60{mask:url(#tkae99viuT_1_);fill-rule:evenodd;clip-rule:evenodd;fill:#00A2FC;}
	.st61{filter:url(#Adobe_OpacityMaskFilter_23_);}
	.st62{mask:url(#qiu4iysp6V_1_);fill-rule:evenodd;clip-rule:evenodd;fill:#FFFFFF;}
	.st63{filter:url(#Adobe_OpacityMaskFilter_24_);}
	.st64{mask:url(#blxvzord2X_1_);fill-rule:evenodd;clip-rule:evenodd;}
	.st65{filter:url(#Adobe_OpacityMaskFilter_25_);}
	.st66{mask:url(#u9u8zd2loZ_1_);fill-rule:evenodd;clip-rule:evenodd;fill:#FDBDB8;}
	.st67{filter:url(#Adobe_OpacityMaskFilter_26_);}
	.st68{mask:url(#_x38_kdfh6fphab_1_);fill-rule:evenodd;clip-rule:evenodd;fill:#FDBDB8;}
	.st69{filter:url(#Adobe_OpacityMaskFilter_27_);}
	.st70{mask:url(#i0q6huz8ead_1_);fill-rule:evenodd;clip-rule:evenodd;fill:#FFFFFF;}
	.st71{filter:url(#Adobe_OpacityMaskFilter_28_);}
	.st72{mask:url(#_x34_ztif2pxeaf_1_);fill-rule:evenodd;clip-rule:evenodd;}
	.st73{filter:url(#Adobe_OpacityMaskFilter_29_);}
	.st74{mask:url(#gh73zed5uah_1_);fill-rule:evenodd;clip-rule:evenodd;fill:#673101;}
	.st75{filter:url(#Adobe_OpacityMaskFilter_30_);}
	.st76{mask:url(#pjquwszofaj_1_);fill-rule:evenodd;clip-rule:evenodd;fill:#FFFFFF;}
	.st77{filter:url(#Adobe_OpacityMaskFilter_31_);}
	.st78{mask:url(#z9ftq89hfal_1_);fill-rule:evenodd;clip-rule:evenodd;fill:#0085CE;}
	.st79{filter:url(#Adobe_OpacityMaskFilter_32_);}
	.st80{mask:url(#rx68ztyuvan_1_);fill-rule:evenodd;clip-rule:evenodd;}
	.st81{filter:url(#Adobe_OpacityMaskFilter_33_);}
	.st82{mask:url(#w6b6t9t12ap_1_);fill-rule:evenodd;clip-rule:evenodd;fill:#EC0E25;}
	.st83{filter:url(#Adobe_OpacityMaskFilter_34_);}
	.st84{mask:url(#_x32_i6ocyo4kar_1_);fill-rule:evenodd;clip-rule:evenodd;}
	.st85{filter:url(#Adobe_OpacityMaskFilter_35_);}
	.st86{mask:url(#tjr7ljvmeat_1_);fill-rule:evenodd;clip-rule:evenodd;}
	.st87{filter:url(#Adobe_OpacityMaskFilter_36_);}
	.st88{mask:url(#j4ij06arlav_1_);fill-rule:evenodd;clip-rule:evenodd;}
	.st89{filter:url(#Adobe_OpacityMaskFilter_37_);}
	.st90{mask:url(#fj9owgahsax_1_);fill-rule:evenodd;clip-rule:evenodd;}
	.st91{filter:url(#Adobe_OpacityMaskFilter_38_);}
	.st92{mask:url(#_x35_485mvai1az_1_);fill-rule:evenodd;clip-rule:evenodd;fill:#231816;}
	.st93{filter:url(#Adobe_OpacityMaskFilter_39_);}
	.st94{mask:url(#ezzhfxg52aB_1_);fill-rule:evenodd;clip-rule:evenodd;fill:#231816;}
	.st95{filter:url(#Adobe_OpacityMaskFilter_40_);}
	.st96{mask:url(#sz4ud3qo3aD_1_);fill-rule:evenodd;clip-rule:evenodd;fill:#5C5C5C;}
	.st97{filter:url(#Adobe_OpacityMaskFilter_41_);}
	.st98{mask:url(#vh0hfyes1aF_1_);fill-rule:evenodd;clip-rule:evenodd;}
	.st99{fill-rule:evenodd;clip-rule:evenodd;fill:#333333;}
	.st100{fill-rule:evenodd;clip-rule:evenodd;fill:#5C5C5C;}
</style>
<g>
	<path class="st0" d="M0,37h2048v708H0V37z"/>
	<g transform="translate(233 160)">
		<g>
			<path id="_x35_6d55p8pga_1_" class="st1" d="M103.4,0c25.8,0,47,20,48.7,45.3c4.3-2.1,9.1-3.3,14.2-3.3c1.4,0,2.8,0.1,4.2,0.3
				l0-0.3c26.5,4.4,41.4,18.1,44.7,41.2c1.5,10.8-8.1,24.6-14.9,31.3c-4.3,4.3-12.6,7.3-24.8,9c-2.4,0.6-4.9,0.9-7.5,0.9
				c-8.6,0-16.4-3.3-22.2-8.8c-5.5,6.9-13.9,11.3-23.4,11.3c-9.9,0-18.6-4.8-24-12.1c-2,1-4,1.9-6.2,2.6c-5.3,4.9-12.4,7.9-20.3,7.9
				c-9.8,0-18.5-4.7-23.9-12c-5,3.9-11.4,6.2-18.3,6.2C13.3,119.6,0,106.3,0,89.9c0-16.4,13.3-29.7,29.8-29.7c2.6,0,5.1,0.3,7.5,1
				c3.4-9.4,9.9-17.4,18.4-22.5C60.3,16.6,79.9,0,103.4,0z"/>
		</g>
		<defs>
			<filter id="Adobe_OpacityMaskFilter" filterUnits="userSpaceOnUse" x="-2.5" y="41.2" width="226.1" height="127">
				<feColorMatrix  type="matrix" values="1 0 0 0 0  0 1 0 0 0  0 0 1 0 0  0 0 0 1 0"/>
			</filter>
		</defs>
		<mask maskUnits="userSpaceOnUse" x="-2.5" y="41.2" width="226.1" height="127" id="lfa2ivtylb_1_">
			<g class="st2">
				<path id="_x35_6d55p8pga_2_" class="st1" d="M103.4,0c25.8,0,47,20,48.7,45.3c4.3-2.1,9.1-3.3,14.2-3.3c1.4,0,2.8,0.1,4.2,0.3
					l0-0.3c26.5,4.4,41.4,18.1,44.7,41.2c1.5,10.8-8.1,24.6-14.9,31.3c-4.3,4.3-12.6,7.3-24.8,9c-2.4,0.6-4.9,0.9-7.5,0.9
					c-8.6,0-16.4-3.3-22.2-8.8c-5.5,6.9-13.9,11.3-23.4,11.3c-9.9,0-18.6-4.8-24-12.1c-2,1-4,1.9-6.2,2.6
					c-5.3,4.9-12.4,7.9-20.3,7.9c-9.8,0-18.5-4.7-23.9-12c-5,3.9-11.4,6.2-18.3,6.2C13.3,119.6,0,106.3,0,89.9
					c0-16.4,13.3-29.7,29.8-29.7c2.6,0,5.1,0.3,7.5,1c3.4-9.4,9.9-17.4,18.4-22.5C60.3,16.6,79.9,0,103.4,0z"/>
			</g>
		</mask>
		<path class="st3" d="M111.7,41.2c17.4,0,32.6,9,41.3,22.6c4.5-2.3,9.6-3.7,15-3.7c14.1,0,26,8.9,30.4,21.4
			c14.3,3.3,25,16.1,25,31.3c0,2.5-0.3,4.8-0.8,7.1c0.3,1.4,0.6,2.9,0.8,4.4c1.5,10.8-8.1,24.6-14.9,31.3c-4.3,4.3-12.6,7.3-24.8,9
			c-2.4,0.6-4.9,0.9-7.5,0.9c-8.6,0-16.4-3.3-22.2-8.8c-5.5,6.9-13.9,11.3-23.4,11.3c-9.9,0-18.6-4.8-24-12.1c-2,1-4,1.9-6.2,2.6
			c-5.3,4.9-12.4,7.9-20.3,7.9c-14.7,0-26.8-10.5-29.3-24.4c-0.6-0.9-1.3-1.9-1.8-2.8c-5.5,5.1-12.9,8.3-21,8.3
			c-16.9,0-30.6-13.7-30.6-30.5s13.7-30.5,30.6-30.5c8.1,0,15.5,3.2,21,8.3c3.6-6.1,8.7-11.3,14.8-15
			C68.6,57.8,88.2,41.2,111.7,41.2L111.7,41.2z"/>
	</g>
	<g transform="translate(1815 234)">
		<g>
			<path id="hevt37o0nc_1_" class="st1" d="M125,0c31.2,0,56.8,24.3,58.9,55c5.2-2.5,11-4,17.1-4c1.7,0,3.4,0.1,5,0.3l0-0.3
				c32,5.3,50,22,54,50c1.9,13.1-9.8,29.9-18,38c-5.2,5.2-15.2,8.8-30,11c-2.9,0.7-5.9,1-9,1c-10.4,0-19.8-4-26.8-10.6
				c-6.6,8.3-16.8,13.6-28.2,13.6c-11.9,0-22.5-5.8-29-14.7c-2.4,1.2-4.9,2.3-7.5,3.1c-6.4,6-15,9.6-24.5,9.6
				c-11.8,0-22.4-5.7-28.9-14.6C52,142.2,44.3,145,36,145c-19.9,0-36-16.1-36-36s16.1-36,36-36c3.1,0,6.2,0.4,9.1,1.2
				c4.1-11.4,12-21.1,22.2-27.3C72.9,20.1,96.6,0,125,0z"/>
		</g>
		<defs>
			<filter id="Adobe_OpacityMaskFilter_1_" filterUnits="userSpaceOnUse" x="-3" y="50" width="273.2" height="154">
				<feColorMatrix  type="matrix" values="1 0 0 0 0  0 1 0 0 0  0 0 1 0 0  0 0 0 1 0"/>
			</filter>
		</defs>
		<mask maskUnits="userSpaceOnUse" x="-3" y="50" width="273.2" height="154" id="ohgjijewgd_1_">
			<g class="st4">
				<path id="hevt37o0nc_2_" class="st1" d="M125,0c31.2,0,56.8,24.3,58.9,55c5.2-2.5,11-4,17.1-4c1.7,0,3.4,0.1,5,0.3l0-0.3
					c32,5.3,50,22,54,50c1.9,13.1-9.8,29.9-18,38c-5.2,5.2-15.2,8.8-30,11c-2.9,0.7-5.9,1-9,1c-10.4,0-19.8-4-26.8-10.6
					c-6.6,8.3-16.8,13.6-28.2,13.6c-11.9,0-22.5-5.8-29-14.7c-2.4,1.2-4.9,2.3-7.5,3.1c-6.4,6-15,9.6-24.5,9.6
					c-11.8,0-22.4-5.7-28.9-14.6C52,142.2,44.3,145,36,145c-19.9,0-36-16.1-36-36s16.1-36,36-36c3.1,0,6.2,0.4,9.1,1.2
					c4.1-11.4,12-21.1,22.2-27.3C72.9,20.1,96.6,0,125,0z"/>
			</g>
		</mask>
		<path class="st5" d="M135,50c21,0,39.4,11,49.9,27.5c5.4-2.8,11.6-4.5,18.1-4.5c17,0,31.4,10.8,36.8,26c17.3,4,30.2,19.5,30.2,38
			c0,3-0.3,5.9-1,8.7c0.4,1.7,0.7,3.5,1,5.3c1.9,13.1-9.8,29.9-18,38c-5.2,5.2-15.2,8.8-30,11c-2.9,0.7-5.9,1-9,1
			c-10.4,0-19.8-4-26.8-10.6c-6.6,8.3-16.8,13.6-28.2,13.6c-11.9,0-22.5-5.8-29-14.7c-2.4,1.2-4.9,2.3-7.5,3.1
			c-6.4,6-15,9.6-24.5,9.6c-17.7,0-32.4-12.8-35.4-29.6c-0.8-1.1-1.5-2.3-2.2-3.4C52.7,175.2,43.8,179,34,179c-20.4,0-37-16.6-37-37
			s16.6-37,37-37c9.8,0,18.7,3.8,25.4,10.1c4.4-7.4,10.6-13.7,17.9-18.2C82.9,70.1,106.6,50,135,50z"/>
	</g>
	<g>
		<g transform="translate(270 478) translate(0 137.202)">
			<defs>
				<filter id="Adobe_OpacityMaskFilter_2_" filterUnits="userSpaceOnUse" x="0" y="0.3" width="57.6" height="38.7">
					<feColorMatrix  type="matrix" values="1 0 0 0 0  0 1 0 0 0  0 0 1 0 0  0 0 0 1 0"/>
				</filter>
			</defs>
			<mask maskUnits="userSpaceOnUse" x="0" y="0.3" width="57.6" height="38.7" id="_x37_eeau921lf_1_">
				<g class="st6">
					<path id="nucyzitv0e_1_" class="st1" d="M0,0.3h57.6V39H0V0.3z"/>
				</g>
			</mask>
			<path class="st7" d="M0,34.7c0,0,55.8,21.4,57.6-31.1c0,0-16.1-9.3-30.1,3.5S12.2,33.1,0,34.7"/>
		</g>
		<path class="st8" d="M277.2,650.9c-1.5,0-2.3-0.1-2.4-0.1c-0.4,0-0.8-0.4-0.7-0.9c0-0.4,0.4-0.8,0.9-0.7c0.3,0,32.2,2.8,50.1-28.6
			c0.2-0.4,0.7-0.5,1.1-0.3c0.4,0.2,0.5,0.7,0.3,1.1C310.9,648.7,285.1,650.9,277.2,650.9"/>
		<path class="st9" d="M349.5,553.4c0,0,15.8-2.1,18.7-20.7c2.8-18,9.4-17.4,9.1-18.2C377.3,514.4,327.8,531,349.5,553.4"/>
		<path class="st8" d="M350.3,551C350.3,551,350.3,551,350.3,551c-0.4-0.1-0.6-0.4-0.6-0.7c0-0.2,3.1-20.6,20.4-32.3
			c0.3-0.2,0.6-0.1,0.8,0.2c0.2,0.3,0.1,0.6-0.2,0.8c-16.9,11.4-19.9,31.3-19.9,31.5C350.9,550.8,350.6,551,350.3,551"/>
		<g transform="translate(270 478) translate(144 .202)">
			<defs>
				<filter id="Adobe_OpacityMaskFilter_3_" filterUnits="userSpaceOnUse" x="1" y="0.8" width="22.7" height="44.4">
					<feColorMatrix  type="matrix" values="1 0 0 0 0  0 1 0 0 0  0 0 1 0 0  0 0 0 1 0"/>
				</filter>
			</defs>
			<mask maskUnits="userSpaceOnUse" x="1" y="0.8" width="22.7" height="44.4" id="dxe9f5gyhh_1_">
				<g class="st10">
					<path id="rizhfc1ztg_1_" class="st1" d="M1,0.8h22.7v44.4H1V0.8z"/>
				</g>
			</mask>
			<path class="st11" d="M2.3,1.5c0,0-6.2,14.7,8.5,26.6c14.1,11.5,10.3,16.9,11.1,17C21.9,45.2,32.5-5.9,2.3,1.5"/>
		</g>
		<path class="st8" d="M417.8,481.7C417.9,481.6,417.9,481.6,417.8,481.7c0.3-0.3,0.6-0.4,0.9-0.2c0.2,0.1,16.2,13,17.6,33.9
			c0,0.3-0.2,0.6-0.6,0.6c-0.3,0-0.6-0.2-0.6-0.6c-1.4-20.4-17-33-17.2-33.1C417.8,482.2,417.7,481.9,417.8,481.7"/>
		<path class="st9" d="M326.5,534.7c0,0-30.4-6.2-33.6,16.1C289.7,573,318.2,536.6,326.5,534.7"/>
		<path class="st8" d="M295.2,555.6C295.2,555.6,295.1,555.6,295.2,555.6c-0.4-0.1-0.5-0.3-0.5-0.6c0-0.2,3.7-18.3,26.7-20.1
			c0.3,0,0.5,0.2,0.5,0.5c0,0.3-0.2,0.5-0.5,0.5c-11.6,0.9-18,6.1-21.4,10.2c-3.6,4.5-4.5,9-4.5,9
			C295.6,555.4,295.4,555.6,295.2,555.6"/>
	</g>
	<g>
		<g transform="translate(1421 125) translate(232 .933)">
			<defs>
				<filter id="Adobe_OpacityMaskFilter_4_" filterUnits="userSpaceOnUse" x="0.8" y="0.1" width="36.2" height="35.7">
					<feColorMatrix  type="matrix" values="1 0 0 0 0  0 1 0 0 0  0 0 1 0 0  0 0 0 1 0"/>
				</filter>
			</defs>
			<mask maskUnits="userSpaceOnUse" x="0.8" y="0.1" width="36.2" height="35.7" id="_x39_daflebffj_1_">
				<g class="st12">
					<path id="yp82hrqbfi_1_" class="st1" d="M0.8,0.1h36.2v35.7H0.8V0.1z"/>
				</g>
			</mask>
			<path class="st13" d="M0.8,4.5c0,0,0.6,15.9,18.9,20.5C37.4,29.5,36.2,36,37.1,35.8C37.1,35.8,25.1-15,0.8,4.5"/>
		</g>
		<path class="st8" d="M1656.1,131.5C1656.1,131.5,1656.1,131.5,1656.1,131.5c0.1-0.4,0.4-0.6,0.7-0.5c0.2,0,20.2,4.9,30.3,23.3
			c0.2,0.3,0.1,0.7-0.2,0.8c-0.3,0.2-0.7,0.1-0.8-0.2c-9.8-17.9-29.4-22.7-29.6-22.7C1656.2,132.1,1656,131.8,1656.1,131.5"/>
		<path class="st9" d="M1552,454c0,0-5.5,11.9,9.9,20.8c0,0,1.5,1.1,3.1,2.4C1566.8,478.6,1568.6,457.5,1552,454"/>
		<path class="st8" d="M1565.2,475.7c0.1,0.2,0,0.4-0.1,0.5c-0.2,0.1-0.4,0.1-0.5-0.1c-0.1-0.1-6.7-10.5-9.3-15
			c-2.6-4.5-3.2-6.1-3.2-6.1c-0.1-0.2,0-0.4,0.2-0.5c0.2-0.1,0.4,0,0.5,0.2c0,0,0.6,1.5,3.1,6
			C1558.4,465.2,1565.1,475.6,1565.2,475.7L1565.2,475.7"/>
		<path class="st9" d="M1426.5,651.9c0,0,15.8-2.1,18.7-20.7c2.8-18,9.4-17.4,9.1-18.2C1454.3,613,1404.8,629.6,1426.5,651.9"/>
		<path class="st8" d="M1427.4,649.6C1427.3,649.6,1427.3,649.6,1427.4,649.6c-0.4-0.1-0.6-0.4-0.6-0.7c0-0.2,3.1-20.6,20.4-32.3
			c0.3-0.2,0.6-0.1,0.8,0.2c0.2,0.3,0.1,0.6-0.2,0.8c-16.9,11.4-19.9,31.3-19.9,31.5C1427.9,649.4,1427.6,649.6,1427.4,649.6"/>
		<path class="st1" d="M1461.8,515.1c0,0-12.4-3.6-14.8,4.1c-2.3,7.6,14.8,10.2,14.8,10.2s2,9.7,8.8,10.2c6.8,0.5,7.8-9.2,7.8-9.2
			s19.9-7.3,9.7-16.1c-10.2-8.9-13.9-3.2-13.9-3.2s-5-7.6-11.3-6.1C1456.4,506.4,1461.8,515.1,1461.8,515.1"/>
	</g>
	<g>
		<g transform="translate(1718 423) translate(0 106.241)">
			<defs>
				<filter id="Adobe_OpacityMaskFilter_5_" filterUnits="userSpaceOnUse" x="0" y="0.1" width="33.8" height="21.9">
					<feColorMatrix  type="matrix" values="1 0 0 0 0  0 1 0 0 0  0 0 1 0 0  0 0 0 1 0"/>
				</filter>
			</defs>
			<mask maskUnits="userSpaceOnUse" x="0" y="0.1" width="33.8" height="21.9" id="_x37_f5slruvdl_1_">
				<g class="st14">
					<path id="_x30_yqgwvh8lk_1_" class="st1" d="M0,0.1h33.8V22H0V0.1z"/>
				</g>
			</mask>
			<path class="st15" d="M33.8,1.5c0,0-17.2-8-30.2,14.4c0,0-1.5,2.1-3.5,4.6C-1.9,22.9,28.7,25.5,33.8,1.5"/>
		</g>
		<path class="st8" d="M1720.3,549.8c-0.2,0.1-0.6,0.1-0.7-0.2c-0.2-0.3-0.1-0.6,0.2-0.8c0.2-0.1,15.2-9.8,21.7-13.6
			c6.6-3.8,8.8-4.6,8.9-4.6c0.3-0.1,0.6,0.1,0.7,0.3c0.1,0.3-0.1,0.6-0.3,0.7c0,0-2.2,0.8-8.7,4.5
			C1735.5,540.1,1720.5,549.7,1720.3,549.8C1720.3,549.8,1720.3,549.8,1720.3,549.8"/>
		<g transform="translate(1718 423) translate(14 .241)">
			<defs>
				<filter id="Adobe_OpacityMaskFilter_6_" filterUnits="userSpaceOnUse" x="0.3" y="0.8" width="33.3" height="38.9">
					<feColorMatrix  type="matrix" values="1 0 0 0 0  0 1 0 0 0  0 0 1 0 0  0 0 0 1 0"/>
				</filter>
			</defs>
			<mask maskUnits="userSpaceOnUse" x="0.3" y="0.8" width="33.3" height="38.9" id="rh1rldlnon_1_">
				<g class="st16">
					<path id="nzgknw98lm_1_" class="st1" d="M0.3,0.8h33.3v38.9H0.3V0.8z"/>
				</g>
			</mask>
			<path class="st17" d="M5.8,39.7c0,0,15.8-2.1,18.7-20.7c2.8-18,9.4-17.4,9.1-18.2C33.6,0.8-15.9,17.3,5.8,39.7"/>
		</g>
		<path class="st8" d="M1738.6,460.6C1738.6,460.6,1738.6,460.6,1738.6,460.6c-0.4-0.1-0.6-0.4-0.6-0.7c0-0.2,3.1-20.6,20.4-32.3
			c0.3-0.2,0.6-0.1,0.8,0.2c0.2,0.3,0.1,0.6-0.2,0.8c-16.9,11.4-19.9,31.3-19.9,31.5C1739.2,460.4,1738.9,460.6,1738.6,460.6"/>
	</g>
	<g>
		<g transform="translate(519 316) translate(195 .536)">
			<defs>
				<filter id="Adobe_OpacityMaskFilter_7_" filterUnits="userSpaceOnUse" x="0.5" y="0.5" width="33.8" height="24">
					<feColorMatrix  type="matrix" values="1 0 0 0 0  0 1 0 0 0  0 0 1 0 0  0 0 0 1 0"/>
				</filter>
			</defs>
			<mask maskUnits="userSpaceOnUse" x="0.5" y="0.5" width="33.8" height="24" id="yoxtojv82p_1_">
				<g class="st18">
					<path id="fj3d1r2dfo_1_" class="st1" d="M0.5,0.5h33.8v24H0.5V0.5z"/>
				</g>
			</mask>
			<path class="st19" d="M34.3,1.2c0,0-30.4-6.2-33.6,16.1C-2.5,39.6,26.1,3.2,34.3,1.2"/>
		</g>
		<path class="st8" d="M717,338.7C717,338.7,717,338.7,717,338.7c-0.4-0.1-0.5-0.3-0.5-0.6c0-0.2,3.7-18.3,26.7-20.1
			c0.3,0,0.5,0.2,0.5,0.5c0,0.3-0.2,0.5-0.5,0.5c-11.6,0.9-18,6.1-21.4,10.3c-3.6,4.5-4.5,9-4.5,9
			C717.5,338.5,717.3,338.7,717,338.7"/>
		<path class="st1" d="M663.3,408.2c0,0-19.6,9.8-12.5,18.8C657.9,436,668.2,419.3,663.3,408.2 M582,366c0,0-6.5-1.9-7.7,2.1
			c-1.2,4,7.7,5.3,7.7,5.3s1,5,4.6,5.3c3.5,0.3,4-4.8,4-4.8s10.4-3.8,5.1-8.4s-7.2-1.7-7.2-1.7s-2.6-4-5.9-3.2
			C579.2,361.5,582,366,582,366"/>
		<g transform="translate(519 316) translate(0 6.536)">
			<defs>
				<filter id="Adobe_OpacityMaskFilter_8_" filterUnits="userSpaceOnUse" x="0" y="1" width="26.8" height="11">
					<feColorMatrix  type="matrix" values="1 0 0 0 0  0 1 0 0 0  0 0 1 0 0  0 0 0 1 0"/>
				</filter>
			</defs>
			<mask maskUnits="userSpaceOnUse" x="0" y="1" width="26.8" height="11" id="_x31_eoxpitrjr_1_">
				<g class="st20">
					<path id="xt5gts2qnq_1_" class="st1" d="M0,1h26.8v11H0V1z"/>
				</g>
			</mask>
			<path class="st21" d="M26.8,6.3c0,0-7.5-10.7-23-1.8c0,0-1.6,0.7-3.7,1.5C-1.9,6.8,15.5,18.9,26.8,6.3"/>
		</g>
		<path class="st8" d="M520.4,329.4c-0.2,0-0.4-0.2-0.4-0.4c0-0.2,0.1-0.4,0.4-0.4c0.1,0,12.5-0.6,17.7-0.6c5.2,0,6.8,0.3,6.9,0.3
			c0.2,0,0.3,0.2,0.3,0.4c0,0.2-0.2,0.3-0.4,0.3c0,0-1.6-0.3-6.8-0.3C532.9,328.8,520.6,329.4,520.4,329.4L520.4,329.4"/>
	</g>
	<g>
		<g>
			<path class="st22" d="M1648.2,678.9l-34-5.6c0,0-10.1-1.1-14.3,4.6c-4.3,5.7,28.5,13,28.5,13L1648.2,678.9L1648.2,678.9z"/>
			<path class="st23" d="M1612.3,673.6c-3.1,0-9,0.5-12,4.5c-0.3,0.4-0.4,0.8-0.2,1.3c1.6,4.2,20.8,9.3,28.3,11l18.5-11.3l-32.7-5.4
				C1614.2,673.7,1613.4,673.6,1612.3,673.6 M1628.5,691.4c0,0-0.1,0-0.1,0c-0.1,0-6.8-1.5-13.7-3.7c-9.4-2.9-14.6-5.6-15.4-8
				c-0.3-0.7-0.2-1.5,0.3-2.1c4.4-5.9,14.3-4.8,14.7-4.8l34,5.6c0.2,0,0.3,0.2,0.4,0.4c0,0.2,0,0.4-0.2,0.5l-19.8,12
				C1628.6,691.3,1628.5,691.4,1628.5,691.4"/>
			<path class="st24" d="M1612.2,674.1c-3,0-8.8,0.5-11.6,4.3c-0.2,0.3-0.2,0.5-0.1,0.8c1.3,3.5,17.6,8.4,27.8,10.7l17.3-10.5
				l-31.5-5.2C1614.1,674.2,1613.4,674.1,1612.2,674.1z M1628.6,691.9l-0.4-0.1c-2.8-0.6-27.3-6.2-29.5-11.9
				c-0.3-0.9-0.2-1.8,0.4-2.6c4.5-6.1,14.7-5,15.2-5l36.5,6L1628.6,691.9L1628.6,691.9z"/>
			<path class="st25" d="M1657.6,672.2c-2-2.4-5.5-2.9-8.1-1.2l-23.6,15c-3,1.9-3.7,6-1.6,8.8l0.4,0.5c2,2.7,5.7,3.3,8.5,1.4
				l23.2-15.5C1659.4,679.2,1660,675,1657.6,672.2"/>
			<path class="st24" d="M1652.9,670.9c-1,0-2,0.3-2.8,0.8l-23.6,15c-1.2,0.8-2.1,2-2.3,3.5c-0.3,1.4,0.1,2.9,0.9,4.1l0.4,0.5
				c1.7,2.3,4.8,2.8,7.2,1.2l23.2-15.5c1.2-0.8,2-2.2,2.2-3.6c0.2-1.5-0.2-3-1.2-4.1C1655.9,671.6,1654.4,670.9,1652.9,670.9
				 M1629.7,698.8c-2.2,0-4.3-1-5.7-2.9l-0.4-0.5c-1.2-1.6-1.6-3.6-1.3-5.5c0.4-1.9,1.5-3.6,3.1-4.7l23.6-15c3-1.9,7-1.3,9.3,1.4h0
				c1.3,1.5,1.9,3.6,1.6,5.5c-0.3,2-1.4,3.8-3,4.9l-23.2,15.5C1632.5,698.4,1631.1,698.8,1629.7,698.8"/>
			<path class="st22" d="M1654.5,678.7c0.6-0.4,1.3-0.5,2-0.4l26.5,5.9c0,0,8.6,3.2,1.1,10c-7.2,6.5-25.5,3.2-26.9,3
				c-0.1,0-0.1,0-0.2,0l-16.2-4.4c-2.2-0.6-2.6-3.5-0.7-4.7L1654.5,678.7z"/>
			<path class="st23" d="M1654.8,679.1l-14.5,9.4c-0.7,0.5-1.1,1.3-0.9,2.1c0.1,0.8,0.7,1.5,1.6,1.7l16.2,4.4c0.1,0,0.1,0,0.2,0
				c0.8,0.1,19.4,3.6,26.5-2.8c2.2-2,3.2-3.9,2.9-5.5c-0.5-2.5-3.8-3.7-3.8-3.7l-26.5-5.9C1655.9,678.7,1655.3,678.8,1654.8,679.1
				 M1668.9,698.8c-5.7,0-10.8-0.9-11.8-1.1c-0.1,0-0.1,0-0.2,0l-16.2-4.4c-1.2-0.3-2-1.3-2.2-2.5c-0.2-1.2,0.3-2.4,1.4-3l14.5-9.4
				c0.7-0.4,1.5-0.6,2.3-0.4l26.5,5.9c0.2,0.1,3.9,1.5,4.4,4.4c0.4,2-0.7,4.1-3.1,6.3C1680.8,697.9,1674.6,698.8,1668.9,698.8"/>
			<path class="st24" d="M1655,679.5l-14.5,9.4c-0.6,0.4-0.8,1-0.7,1.7c0.1,0.7,0.6,1.2,1.2,1.4l16.2,4.3c0.9,0.2,19.3,3.6,26.2-2.7
				c2.1-1.9,3-3.6,2.7-5c-0.4-2.2-3.5-3.4-3.5-3.4l-26.4-5.8C1655.9,679.2,1655.4,679.3,1655,679.5 M1668.9,699.2
				c-5.8,0-10.8-0.9-11.9-1.1c-0.1,0-0.2,0-0.3-0.1l-16.2-4.3c-1.4-0.4-2.4-1.5-2.6-2.9c-0.2-1.4,0.4-2.7,1.6-3.5l14.5-9.4
				c0.8-0.5,1.8-0.7,2.7-0.5l26.5,5.9c0.3,0.1,4.2,1.6,4.8,4.8c0.4,2.1-0.7,4.4-3.3,6.8C1681,698.3,1674.6,699.2,1668.9,699.2"/>
			<path class="st22" d="M1648.6,674.4c0.9-0.5,1.5-1.6,1.3-2.6l-2.8-25.5c0,0-0.7-13.9-7.3-13.1c-6.6,0.7-11.6,11.5-11.7,20.7
				c0,6.8,1.8,19.9,2.9,26.4c0.3,1.9,2.4,2.9,4,1.9L1648.6,674.4L1648.6,674.4z"/>
			<path class="st23" d="M1640.3,633.6c-0.1,0-0.3,0-0.4,0c-6.4,0.7-11.2,11.3-11.3,20.2c0,6.6,1.8,19.4,2.8,26.4
				c0.1,0.7,0.6,1.3,1.2,1.7c0.7,0.3,1.4,0.3,2.1-0.1l13.6-7.8c0.8-0.4,1.2-1.3,1.1-2.2l-2.8-25.5c0-0.1-0.5-8.9-3.9-11.8
				C1642,633.9,1641.2,633.6,1640.3,633.6L1640.3,633.6z M1633.7,683c-0.5,0-0.9-0.1-1.4-0.3c-0.9-0.4-1.6-1.3-1.7-2.3
				c-1.1-7-2.9-19.8-2.9-26.5c0.1-11.7,6.4-20.5,12.1-21.2c1.3-0.1,2.5,0.2,3.6,1.1c3.8,3.2,4.2,12.1,4.3,12.4l2.8,25.4
				c0.1,1.2-0.5,2.5-1.6,3.1l-13.6,7.8C1634.8,682.8,1634.2,683,1633.7,683L1633.7,683z"/>
			<path class="st24" d="M1640.3,634c-0.1,0-0.3,0-0.4,0c-6.1,0.7-10.8,11-10.8,19.8c0,6.6,1.8,19.3,2.8,26.3c0.1,0.6,0.4,1.1,1,1.3
				c0.5,0.3,1.1,0.2,1.7-0.1l13.6-7.8c0.6-0.4,1-1,0.9-1.7l-2.8-25.5c0-0.1-0.5-8.7-3.8-11.5C1641.8,634.3,1641.1,634,1640.3,634
				 M1633.7,683.5c-0.5,0-1.1-0.1-1.6-0.4c-1.1-0.5-1.8-1.5-2-2.7c-1.1-7-2.9-19.8-2.9-26.6c0.1-9.6,5.2-20.8,12.5-21.6
				c1.4-0.2,2.8,0.3,3.9,1.2c3.9,3.3,4.4,12.4,4.4,12.8l2.8,25.4c0.2,1.4-0.5,2.8-1.8,3.5l-13.6,7.8
				C1634.9,683.3,1634.3,683.5,1633.7,683.5"/>
			<path class="st26" d="M1457.9,748c0,0-0.1,0-0.1,0c-0.1,0-12.4-4-25.8-9.6c-18-7.6-29.2-14.3-33.4-20.1c-4.6-6.3-6.1-12.2-4.4-17
				c1.6-4.6,6.2-8.2,12.9-10c4.4-1.2,11-1.8,19.8-1.8c37.8,0,104.1,11.4,104.7,11.5c0.2,0,0.3,0.2,0.4,0.4c0,0.2,0,0.4-0.2,0.5
				l-73.6,46.1C1458,748,1457.9,748,1457.9,748"/>
			<path class="st27" d="M1426.8,689.1L1426.8,689.1c-8.8,0-15.5,0.6-19.9,1.8c-6.8,1.9-11.5,5.5-13.2,10.3c-1.7,5-0.2,11,4.5,17.4
				c4.2,5.8,15.5,12.6,33.6,20.2c13.4,5.6,25.7,9.6,25.8,9.7c0.1,0,0.2,0,0.3,0c0.2,0,0.3,0,0.5-0.1l73.6-46.1
				c0.3-0.2,0.5-0.6,0.4-1c-0.1-0.4-0.4-0.7-0.7-0.7c-0.2,0-16.9-2.9-38.1-5.8C1474,692.2,1446.6,689.1,1426.8,689.1 M1426.8,690
				c38.2,0,104.7,11.5,104.7,11.5l-73.6,46.1c0,0-49-15.8-58.9-29.5c-9.9-13.7-3.9-22.9,8.2-26.3
				C1411.8,690.5,1418.7,690,1426.8,690"/>
			<g transform="translate(1393 552) translate(0 79.567) translate(0 56.939)">
				<defs>
					<filter id="Adobe_OpacityMaskFilter_9_" filterUnits="userSpaceOnUse" x="0" y="0.5" width="141" height="59.6">
						<feColorMatrix  type="matrix" values="1 0 0 0 0  0 1 0 0 0  0 0 1 0 0  0 0 0 1 0"/>
					</filter>
				</defs>
				<mask maskUnits="userSpaceOnUse" x="0" y="0.5" width="141" height="59.6" id="ejqi9xl1kt_1_">
					<g class="st28">
						<path id="z31ofluigs_1_" class="st1" d="M0,0.5h141v59.6H0V0.5z"/>
					</g>
				</mask>
				<path class="st29" d="M33.7,2.4c-8,0-14.8,0.5-19.3,1.8c-6.2,1.7-10.5,4.9-12,9.1C0.9,17.6,2.4,23.1,6.7,29
					C15.9,41.6,60,56.5,64.7,58l71.2-44.6C123.6,11.4,67.3,2.4,33.7,2.4z M65,60.1l-0.4-0.1c-2-0.7-49.4-16.1-59.4-29.9
					C0.5,23.6-1,17.6,0.7,12.7C2.4,7.9,7.1,4.2,13.9,2.4c26.3-7.2,120.7,9,124.7,9.7l2.4,0.4L65,60.1L65,60.1z"/>
			</g>
			<path class="st30" d="M1494.9,798.9c-10.8,2.8-20.4,3.9-28.8,3.9c-22.8,0-36.6-8.2-41.4-12.4c0.4,0.9,0.8,1.8,1.2,2.7
				c23.3,47.1,98.2,23.8,130.5,4.2c30.6-18.5,80.1-63.5,81.1-89.2C1622.6,735.3,1536.8,788,1494.9,798.9"/>
			<path class="st24" d="M1425.9,792c0.1,0.3,0.3,0.6,0.4,0.9c6.1,12.3,16.1,20.6,29.9,24.6c18.1,5.3,39,2.1,53.3-1.5
				c16.3-4.1,33.8-11.2,46.7-19c31.4-19.1,77.4-61.6,80.7-86.9c-17.7,28.1-101.5,78.7-141.9,89.3c-10,2.6-19.8,4-28.9,4
				C1443.4,803.3,1430.5,795.5,1425.9,792L1425.9,792z M1477.6,821.2c-7.3,0-14.6-0.8-21.6-2.8c-14-4.1-24.2-12.5-30.4-25
				c-0.4-0.9-0.8-1.8-1.2-2.7c-0.1-0.2,0-0.4,0.2-0.6c0.2-0.1,0.4-0.1,0.6,0c6.5,5.7,21.1,12.3,41.1,12.3c9.1,0,18.7-1.3,28.7-3.9
				c41.1-10.8,127.3-63.1,142.4-90.6c0.1-0.2,0.3-0.3,0.5-0.2c0.2,0.1,0.3,0.2,0.3,0.5c-1.1,25.2-48.9,69.9-81.3,89.6
				c-13,7.9-30.5,15-46.9,19.1C1500.8,819.1,1489.4,821.2,1477.6,821.2z"/>
			<path class="st31" d="M1637.2,703.8c-0.3-1.5-1.3-4.8-1.7-6.2c-9.9,25.4-115.2,58.2-160.3,70.1c-46.7,12.2-52.3,16.8-53.3,14.7
				c0.7,2.6,1.6,5.3,2.8,8c4.8,4.2,18.6,12.4,41.4,12.4c8.4,0,18-1.1,28.8-3.9c41.9-11,127.8-63.6,142.7-90.8
				C1637.6,706.6,1637.5,705.2,1637.2,703.8"/>
			<path class="st24" d="M1425.4,789.9c6.5,5.6,20.9,12.1,40.6,12.1c9,0,18.7-1.3,28.6-3.9c41-10.7,126.7-62.8,142-90.2
				c0-1.4-0.1-2.7-0.3-3.8v0c-0.2-0.8-0.6-2.4-1-3.9c-14.4,24.7-110,55.4-159.9,68.5c-24.8,6.5-38,10.8-45.1,13.2
				c-3.7,1.2-5.8,1.9-7.1,2.1C1423.8,785.9,1424.6,787.9,1425.4,789.9 M1466.1,803.8c-26.2,0-39.6-10.5-42-12.7l-0.2-0.1l-0.1-0.2
				c-1.1-2.6-2.1-5.4-2.9-8.1l-2.4-8.8l4.1,8.1c0.5,0.1,3.1-0.7,7.1-2c7.1-2.3,20.3-6.7,45.2-13.2c41.1-10.8,149.8-44.2,159.7-69.5
				l1-2.5l0.8,2.5c0.2,0.8,1.4,4.6,1.7,6.3c0.3,1.4,0.4,2.9,0.3,4.5l0,0.2l-0.1,0.2c-15.2,27.7-101.9,80.5-143.2,91.3
				C1485,802.5,1475.3,803.8,1466.1,803.8"/>
			<g transform="translate(1393 552) translate(0 79.567) translate(27.551 64.286)">
				<defs>
					<filter id="Adobe_OpacityMaskFilter_10_" filterUnits="userSpaceOnUse" x="0.4" y="0.8" width="217.6" height="125">
						<feColorMatrix  type="matrix" values="1 0 0 0 0  0 1 0 0 0  0 0 1 0 0  0 0 0 1 0"/>
					</filter>
				</defs>
				<mask maskUnits="userSpaceOnUse" x="0.4" y="0.8" width="217.6" height="125" id="ae4mebnetv_1_">
					<g class="st32">
						<path id="ovh3z7weau_1_" class="st1" d="M0.4,0.8h217.6v125H0.4V0.8z"/>
					</g>
				</mask>
				<path class="st33" d="M2.7,88c0.9,3.1,2.1,6,3.5,8.9c6,12.2,16,20.4,29.6,24.3c32.6,9.5,77.4-7,99.6-20.5
					c31.1-18.9,85.3-68.3,80.4-92.5c-0.2-0.9-0.6-2.5-1-3.9c-14.5,24.7-110,55.4-159.9,68.4c-24.8,6.5-38,10.8-45.1,13.2
					C6.2,87.1,4,87.8,2.7,88L2.7,88z M57.1,125.8c-7.6,0-15-0.9-21.9-2.9c-14.1-4.1-24.5-12.6-30.7-25.3c-1.7-3.5-3.1-7.1-4.1-10.8
					c-0.1-0.5,0.1-0.9,0.6-1.1c0.4-0.2,0.9,0,1.2,0.4c0.4,0.1,3.1-0.7,7.1-2c7.1-2.3,20.3-6.7,45.2-13.2c24-6.3,61.1-17.4,93.3-29.9
					c39.3-15.2,62.2-28.9,66.4-39.6c0.1-0.4,0.6-0.6,0.9-0.6c0.4,0,0.7,0.3,0.9,0.7c0.1,0.5,1.4,4.5,1.8,6.3
					c5.3,26.1-50.9,76.1-81.3,94.5C118.6,113.1,86.3,125.8,57.1,125.8L57.1,125.8z"/>
			</g>
			<path class="st1" d="M1492.8,792.5c45.1-11.8,133.4-67.6,143.3-93c-6.6-21.4-28.1-29.2-72-24.4L1452,717.7
				c0,0-40.9,25.5-30.1,64.8C1422.9,784.5,1446.2,804.7,1492.8,792.5"/>
			<path class="st24" d="M1422.7,782.1c1.9,3.1,25.8,21,69.9,9.5c46.4-12.2,132.6-67.9,142.6-92.1c-6.6-20.8-28.4-28.1-70.8-23.5
				l-112.1,42.6c0,0-10.1,6.4-18.7,17.4C1422.1,750.7,1418.4,766.2,1422.7,782.1L1422.7,782.1z M1464.3,797.3
				c-27.6,0-42-12.1-43.2-14.4c0-0.1-0.1-0.1-0.1-0.2c-10.8-39.4,30.1-65.5,30.5-65.8l112.3-42.7c0.1,0,0.2,0,0.2-0.1
				c43.7-4.7,66.2,3,72.9,25.1c0.1,0.2,0.1,0.4,0,0.6c-10.3,26.2-100.6,82.2-143.9,93.5C1482.2,796.2,1472.6,797.3,1464.3,797.3
				L1464.3,797.3z"/>
			<path class="st24" d="M1452.3,718.6c0,0-10.1,6.4-18.7,17.4c-11.6,14.7-15.2,30.3-10.9,46.2c1,3.6,2.3,7.1,4,10.5
				c6,12.2,16,20.4,29.6,24.3c32.6,9.5,77.4-7,99.6-20.5c31.1-18.9,85.3-68.3,80.4-92.5c-0.3-1.5-0.7-2.9-1.1-4.3
				c-6.5-21-28.3-28.4-70.9-23.8L1452.3,718.6z M1477.7,821.7c-7.6,0-15-0.9-21.9-2.9c-14.1-4.1-24.5-12.6-30.7-25.3
				c-1.7-3.5-3.1-7.1-4.1-10.8c-10.8-39.4,30.1-65.5,30.5-65.8l112.4-42.8l0.1,0c43.6-4.7,66.2,3,72.9,25.1c0.4,1.4,0.8,2.9,1.1,4.5
				v0c5.3,26.1-50.9,76.1-81.3,94.5C1539.1,808.9,1506.8,821.7,1477.7,821.7L1477.7,821.7z"/>
			<path class="st34" d="M1546.6,723.4c0,0,14.9-0.8,31.5,31.2l26.2-16.1c0,0-10.9-28.3-32-34.6
				C1572.3,703.9,1546.6,723.4,1546.6,723.4z"/>
			<path class="st24" d="M1547.8,723c4,0.6,16.5,4.4,30.4,31l25.5-15.6c-1.3-3.3-12.1-28-31.3-34L1547.8,723L1547.8,723z
				 M1577.9,755.3l-0.2-0.4c-16.3-31.3-30.9-31-31.1-31l-1.5,0.1l27.1-20.5l0.2,0.1c21.1,6.4,32.2,34.6,32.3,34.9l0.1,0.4
				L1577.9,755.3L1577.9,755.3z"/>
			<path class="st24" d="M1549,722.7c4.9,1.1,16.7,6.3,29.5,30.6l24.7-15.1c-1.8-4.4-12.3-27.4-30.7-33.2L1549,722.7z M1577.7,755.9
				l-0.5-0.9c-16.1-30.9-30.6-30.7-30.6-30.7l-2.9,0.1l28.4-21.6l0.5,0.1c21.3,6.4,32.2,34,32.6,35.2l0.3,0.7L1577.7,755.9z"/>
			<path class="st35" d="M1541.7,722.3c-9.1,5.4-27.5,13.6-27.5,13.6l-8.5,4.1l-53.9-18.5l34.6-13.4c0,0,38-15.1,59.9-20.9
				c21.9-5.8,30.3-1.6,30.3-1.6C1589.8,694.2,1550.9,716.9,1541.7,722.3 M1579,684c-17.8-14.8-131,36.3-131,36.3l62.3,21.4
				C1510.3,741.7,1600.9,702.2,1579,684"/>
			<path class="st24" d="M1454.5,721.4l51.1,17.6l8.2-3.9c0.2-0.1,18.5-8.2,27.4-13.5l0.3-0.2c30.3-17.8,36.7-26.8,36.8-31.2
				c0-1.5-0.7-2.8-2.3-3.8c0,0-8.5-3.9-29.6,1.7c-21.6,5.7-59.4,20.7-59.8,20.9L1454.5,721.4L1454.5,721.4z M1507.9,739.9l2.3,0.8
				c5.2-2.3,68.6-30.8,71.1-49.1c0.4-2.7-0.6-4.9-3-6.9c-4.9-4.1-21.2-5.1-71.3,12.8c-25.4,9.1-49.4,19.6-56.6,22.7l1,0.3l0,0
				l34.6-13.4c0.4-0.1,38.3-15.2,60-20.9c21.9-5.8,30.6-1.7,31-1.5c2.2,1.4,3.3,3.3,3.2,5.5c-0.2,7.2-12.5,17.9-37.8,32.8l-0.3,0.2
				c-9.1,5.3-27.4,13.5-27.6,13.6L1507.9,739.9z M1510.4,742.7l-0.3-0.1l-64.6-22.1l2.1-1c4.6-2.1,114-51.2,132-36.2
				c2.9,2.4,4.1,5.3,3.6,8.6c-2.8,20-69.7,49.5-72.6,50.7L1510.4,742.7L1510.4,742.7z"/>
			<path class="st36" d="M1541.7,722.3c-9.1,5.4-27.5,13.6-27.5,13.6l-8.5,4.1l-53.9-18.5l34.6-13.4c0,0,38-15.1,59.9-20.9
				c21.9-5.8,30.3-1.6,30.3-1.6C1589.8,694.2,1550.9,716.9,1541.7,722.3"/>
			<path class="st24" d="M1454.5,721.4l51.1,17.6l8.2-3.9c0.2-0.1,18.5-8.2,27.4-13.5l0.3-0.2c30.3-17.8,36.7-26.8,36.8-31.2
				c0-1.5-0.7-2.8-2.3-3.8c0,0-8.5-3.9-29.6,1.7c-21.6,5.7-59.4,20.7-59.8,20.9L1454.5,721.4L1454.5,721.4z M1505.8,741l-0.4-0.1
				l-56.3-19.4l36.9-14.3c0.4-0.1,38.3-15.2,60-20.9c21.9-5.8,30.6-1.7,31-1.5c2.2,1.4,3.3,3.3,3.2,5.5
				c-0.2,7.2-12.5,17.9-37.8,32.8l-0.3,0.2c-9.1,5.3-27.4,13.5-27.6,13.6C1514.6,736.7,1505.8,741,1505.8,741z"/>
			<path class="st26" d="M1655,783.5c-34.8,0-79.8-9.8-92.7-12.9c-1.9-0.4-3.5-1.7-4.3-3.4c-0.8-1.6-0.8-3.4,0-4.9
				c1.1-2.2,2.9-4.6,5.3-7c8.8-8.9,45-31.9,55.6-33.4c0.4,0,0.8-0.1,1.4-0.1c11.7,0,67.6,13.4,78.6,33.5c2.8,5.1,2.5,10.3-0.8,15.5
				C1692.5,779.2,1678,783.5,1655,783.5"/>
			<path class="st27" d="M1620.2,721.3L1620.2,721.3c-0.6,0-1,0-1.4,0.1c-6.9,1-22.4,10.1-28.8,14c-12,7.4-22.9,15.2-27.1,19.5
				c-2.5,2.5-4.3,4.9-5.4,7.2c-0.8,1.7-0.8,3.6,0,5.3c0.9,1.8,2.5,3.2,4.6,3.6c7.2,1.7,21.8,4.9,38.9,7.7c21,3.4,39.2,5.2,54,5.2
				c23.2,0,37.8-4.3,43.4-12.9c3.4-5.3,3.7-10.7,0.9-15.9c-3.3-6.1-12.8-15.4-39.1-24.5C1643.8,724.9,1626.7,721.3,1620.2,721.3
				 M1620.2,722.3c14.9,0,95.5,20.2,77.3,48.2c-6.1,9.3-22.8,12.5-42.6,12.5c-34.4,0-78.3-9.5-92.6-12.8c-3.5-0.8-5.5-4.5-4-7.7
				c0.9-1.9,2.5-4.2,5.2-6.9c8.6-8.7,44.9-31.8,55.4-33.2C1619.3,722.3,1619.7,722.3,1620.2,722.3"/>
			<g transform="translate(1393 552) translate(0 79.567) translate(163.47 89.082)">
				<defs>
					<filter id="Adobe_OpacityMaskFilter_11_" filterUnits="userSpaceOnUse" x="0.4" y="0.7" width="144.4" height="62.6">
						<feColorMatrix  type="matrix" values="1 0 0 0 0  0 1 0 0 0  0 0 1 0 0  0 0 0 1 0"/>
					</filter>
				</defs>
				<mask maskUnits="userSpaceOnUse" x="0.4" y="0.7" width="144.4" height="62.6" id="agdtrgx0sx_1_">
					<g class="st37">
						<path id="ypdf20i3hw_1_" class="st1" d="M0.4,0.7h144.4v62.6H0.4V0.7z"/>
					</g>
				</mask>
				<path class="st38" d="M63.5,2.5c-0.3,0-0.6,0-0.9,0.1C52.5,4,16.3,27,7.8,35.6c-2.3,2.3-4,4.6-5,6.7c-0.6,1.2-0.6,2.6,0,3.9
					c0.6,1.3,1.8,2.2,3.3,2.5c19.5,4.5,117.8,26,134.2,0.8c3.5-5.3,3.4-10.5-0.3-15.8C127.3,15.1,74.7,2.2,63.5,2.5 M104.3,63.2
					c-8.3,0.3-17.8-0.1-28.6-1c-28.9-2.6-58.6-9.1-70-11.7c-2-0.5-3.7-1.8-4.6-3.5c-0.9-1.7-0.9-3.7,0-5.4c1.1-2.3,2.9-4.7,5.4-7.2
					c8.9-8.9,45.2-32,55.9-33.5c9.4-1.3,65.6,11.7,79.3,31.8c4,5.9,4.1,11.9,0.3,17.8C136.8,58.2,124.2,62.5,104.3,63.2"/>
			</g>
			<path class="st24" d="M1657.8,777.9c-33.2,1.1-89.3-11.3-89.9-11.5c-0.5-0.1-0.8-0.6-0.7-1.1c0.1-0.5,0.6-0.8,1.2-0.7
				c0.6,0.1,59.2,13.1,91.8,11.3c0.6,0,1,0.4,1,0.9c0,0.5-0.4,1-0.9,1C1659.5,777.8,1658.7,777.9,1657.8,777.9"/>
			<path class="st34" d="M1453.7,795.7c0,0,5.9-21.9,15.3-34.3c9.4-12.4,21.4-23.4,21.4-23.4l-36.7-12.8c0,0-17.1,12.2-23.9,25.5
				c-6.7,13.3-8.1,22.6-8,31.8C1421.9,782.4,1430.8,792.7,1453.7,795.7"/>
			<path class="st24" d="M1422.3,782.3c1.1,1.1,10.2,10.1,31,12.9c0.8-3,6.6-22.6,15.2-34.1c8.1-10.8,18.4-20.6,20.9-23l-35.7-12.5
				c-1.9,1.4-17.3,12.9-23.5,25.2C1423.2,764.8,1422.3,774.2,1422.3,782.3L1422.3,782.3z M1454,796.2l-0.4-0.1
				c-22.8-3-31.8-13-32.1-13.4l-0.1-0.1l0-0.2c-0.1-8.2,0.8-17.8,8-32c6.7-13.3,23.8-25.5,24-25.6l0.2-0.1l0.2,0.1l37.4,13.1
				l-0.6,0.5c-0.1,0.1-12.1,11.1-21.3,23.4c-9.2,12.2-15.1,33.9-15.2,34.2L1454,796.2L1454,796.2z"/>
			<path class="st24" d="M1422.8,782.1c1.5,1.5,10.5,9.8,30.2,12.6c1.2-4.1,6.7-22.6,15.2-33.8c7.6-10.2,17.1-19.4,20.4-22.5
				l-34.8-12.2c-2.6,1.9-17.2,13-23.2,24.9C1423.7,764.8,1422.7,774.1,1422.8,782.1 M1453.7,796.6c0,0-0.1,0-0.1,0
				c-23-3.1-32-13.1-32.4-13.6c-0.1-0.2-0.2-0.4-0.2-0.6c-0.1-8.3,0.8-17.9,8.1-32.3c6.8-13.4,23.4-25.3,24.1-25.8
				c0.2-0.2,0.6-0.2,0.8-0.1l36.7,12.8c0.3,0.1,0.5,0.4,0.6,0.7c0.1,0.3,0,0.7-0.3,0.9c-0.1,0.1-12.1,11.1-21.2,23.3
				c-9.1,12.2-15.1,33.8-15.1,34C1454.5,796.4,1454.1,796.6,1453.7,796.6 M1670.8,696.1c-3.7,0-7.9-0.2-10.7-0.6
				c-5.3-0.7-18-4.2-18.5-4.4c-0.5-0.1-0.8-0.7-0.6-1.2c0.1-0.5,0.6-0.8,1.1-0.6c0.1,0,13,3.7,18.2,4.3c5.4,0.7,14.6,0.9,16.7,0.1
				c0.5-0.2,1,0.1,1.2,0.5c0.2,0.5-0.1,1-0.6,1.2C1676.5,695.9,1673.9,696.1,1670.8,696.1 M1633.4,675.7c-0.4,0-0.8-0.3-0.9-0.8
				c-4.5-23.4-0.5-30.4-0.3-30.7c0.3-0.4,0.8-0.6,1.3-0.3c0.4,0.3,0.6,0.8,0.3,1.3c-0.1,0.1-3.7,7,0.6,29.4c0.1,0.5-0.2,1-0.7,1.1
				C1633.6,675.7,1633.5,675.7,1633.4,675.7"/>
		</g>
		<g transform="translate(1393 552) translate(42.245 .588)">
			<defs>
				<filter id="Adobe_OpacityMaskFilter_12_" filterUnits="userSpaceOnUse" x="117.7" y="89.7" width="39.2" height="63.4">
					<feColorMatrix  type="matrix" values="1 0 0 0 0  0 1 0 0 0  0 0 1 0 0  0 0 0 1 0"/>
				</filter>
			</defs>
			<mask maskUnits="userSpaceOnUse" x="117.7" y="89.7" width="39.2" height="63.4" id="ed0cb7ep7z_1_">
				<g class="st39">
					<path id="s0nb2cimzy_1_" class="st1" d="M103.8,0.3C71.5,0.4,0.3,18.9,0.3,18.9l16.3,150l53.9,18.5l8.2-5.1
						c0,0,18.8-8.4,28-13.8c6.7-3.9,28.2-16.4,34.5-26.1c0.4-0.6,112.2-97.3-26.2-140.9c-2.6-0.8-6.3-1.2-10.7-1.2"/>
				</g>
			</mask>
			<path class="st40" d="M145.5,89.7c-2.6,0-4.7,1-6.1,2.7c-0.4,0.5-0.7,1-0.9,1.7c-0.7,1.9-0.5,3.8-0.3,5.6c0,0.5,0.1,0.9,0.1,1.4
				l0,0.3c0.1,2,0.1,3.9,0,5.8c-0.2,2.6-0.6,5.2-1.3,7.7c-0.4,1.3-0.8,2.6-1.3,3.9c-0.4,1-0.9,2.1-1.5,3.4
				c-2.6,5.3-6.3,9.8-10.2,14.5l-0.7,0.9l-0.2,0.2c-3.2,3.9-6.3,8.3-5.2,11.8c0.3,1.1,1.2,2.6,3.6,3.3c0.5,0.1,1,0.2,1.5,0.2
				c2.3,0,4.5-1.4,6.1-2.4c0.2-0.2,0.5-0.3,0.7-0.4c4-2.4,7.7-5.3,11-8.8c3.4-3.6,6.3-7.9,8.8-12.7c1.1-2.2,2.1-4.5,3-6.8
				c2.3-6.1,4.8-14.1,4.3-21.7c-0.3-4.3-2.9-8-6.7-9.7c-0.8-0.4-1.6-0.6-2.4-0.8C147,89.7,146.3,89.7,145.5,89.7 M145.5,91.5
				c0.6,0,1.2,0.1,1.8,0.2c0.6,0.1,1.4,0.4,2.1,0.7c3.4,1.5,5.4,4.8,5.6,8.2c0.5,7-1.8,14.5-4.2,20.9c-0.8,2.2-1.8,4.4-2.9,6.6
				c-2.3,4.4-5,8.6-8.5,12.2c-3.1,3.3-6.6,6.1-10.5,8.4c-1.6,0.9-3.9,2.5-5.9,2.5c-0.3,0-0.7,0-1-0.1c-6.1-1.9,0.8-10.1,2.7-12.3
				c4.3-5.2,8.3-9.9,11.1-15.7c0.6-1.2,1.1-2.3,1.6-3.6c0.5-1.4,1-2.8,1.3-4.1c0.8-2.7,1.2-5.4,1.4-8.1c0.1-1.9,0.1-3.9,0-6.1l0-0.2
				c-0.1-2-0.6-4.3,0.1-6.2c0.2-0.4,0.4-0.8,0.6-1.2C142,92.1,143.7,91.5,145.5,91.5"/>
			<defs>
				<filter id="Adobe_OpacityMaskFilter_13_" filterUnits="userSpaceOnUse" x="119.6" y="123" width="28.4" height="28.2">
					<feColorMatrix  type="matrix" values="1 0 0 0 0  0 1 0 0 0  0 0 1 0 0  0 0 0 1 0"/>
				</filter>
			</defs>
			<mask maskUnits="userSpaceOnUse" x="119.6" y="123" width="28.4" height="28.2" id="n0yk22gtdB_1_">
				<g class="st41">
					<path id="g5bcag2akA_1_" class="st1" d="M103.8,0.3C71.5,0.4,0.3,18.9,0.3,18.9l16.3,150l53.9,18.5l8.2-5.1
						c0,0,18.8-8.4,28-13.8c6.7-3.9,28.2-16.4,34.5-26.1c0.4-0.6,112.2-97.3-26.2-140.9c-2.6-0.8-6.3-1.2-10.7-1.2"/>
				</g>
			</mask>
			<path class="st42" d="M135.9,123c-2.9,5.8-6.9,10.6-11.1,15.7c-1.9,2.3-8.9,10.5-2.7,12.3c2.2,0.7,5-1.3,6.9-2.4
				c3.9-2.3,7.5-5.2,10.5-8.4c3.4-3.7,6.2-7.8,8.5-12.2C144.6,127.2,140.2,125.7,135.9,123"/>
			<defs>
				<filter id="Adobe_OpacityMaskFilter_14_" filterUnits="userSpaceOnUse" x="135.9" y="91.5" width="19.1" height="36.5">
					<feColorMatrix  type="matrix" values="1 0 0 0 0  0 1 0 0 0  0 0 1 0 0  0 0 0 1 0"/>
				</filter>
			</defs>
			<mask maskUnits="userSpaceOnUse" x="135.9" y="91.5" width="19.1" height="36.5" id="bqpprojmzD_1_">
				<g class="st43">
					<path id="kad9916m7C_1_" class="st1" d="M103.8,0.3C71.5,0.4,0.3,18.9,0.3,18.9l16.3,150l53.9,18.5l8.2-5.1
						c0,0,18.8-8.4,28-13.8c6.7-3.9,28.2-16.4,34.5-26.1c0.4-0.6,112.2-97.3-26.2-140.9c-2.6-0.8-6.3-1.2-10.7-1.2"/>
				</g>
			</mask>
			<path class="st44" d="M140.2,100.9l0,0.2c0.1,2.1,0.1,4.1,0,6.1c-0.2,2.8-0.6,5.4-1.4,8.1c-0.4,1.3-0.8,2.7-1.3,4.1
				c-0.5,1.2-1,2.4-1.6,3.6c4.2,2.7,8.6,4.2,12,5c1.1-2.1,2.1-4.3,2.9-6.6c2.4-6.4,4.7-13.9,4.2-20.9c-0.2-3.4-2.3-6.7-5.6-8.2
				c-0.7-0.3-1.4-0.5-2.1-0.7c-2.4-0.5-5-0.1-6.4,1.8c-0.3,0.4-0.5,0.8-0.6,1.2C139.5,96.6,140.1,98.8,140.2,100.9"/>
			<defs>
				<filter id="Adobe_OpacityMaskFilter_15_" filterUnits="userSpaceOnUse" x="96.5" y="63.2" width="0.8" height="3.7">
					<feColorMatrix  type="matrix" values="1 0 0 0 0  0 1 0 0 0  0 0 1 0 0  0 0 0 1 0"/>
				</filter>
			</defs>
			<mask maskUnits="userSpaceOnUse" x="96.5" y="63.2" width="0.8" height="3.7" id="o4rop8hjeF_1_">
				<g class="st45">
					<path id="_x30_gkyzmhasE_1_" class="st1" d="M103.8,0.3C71.5,0.4,0.3,18.9,0.3,18.9l16.3,150l53.9,18.5l8.2-5.1
						c0,0,18.8-8.4,28-13.8c6.7-3.9,28.2-16.4,34.5-26.1c0.4-0.6,112.2-97.3-26.2-140.9c-2.6-0.8-6.3-1.2-10.7-1.2H103.8L103.8,0.3z
						"/>
				</g>
			</mask>
			<path class="st46" d="M97.1,63.2l-0.6,3.7l0.2,0l0.6-3.7L97.1,63.2L97.1,63.2z M96.8,65.1l0.2,0L96.8,65.1z"/>
			<defs>
				<filter id="Adobe_OpacityMaskFilter_16_" filterUnits="userSpaceOnUse" x="38.3" y="62.5" width="102.5" height="133.2">
					<feColorMatrix  type="matrix" values="1 0 0 0 0  0 1 0 0 0  0 0 1 0 0  0 0 0 1 0"/>
				</filter>
			</defs>
			<mask maskUnits="userSpaceOnUse" x="38.3" y="62.5" width="102.5" height="133.2" id="_x37_y11ppt0zH_1_">
				<g class="st47">
					<path id="irvnzka60G_1_" class="st1" d="M103.8,0.3C71.5,0.4,0.3,18.9,0.3,18.9l16.3,150l53.9,18.5l8.2-5.1
						c0,0,18.8-8.4,28-13.8c6.7-3.9,28.2-16.4,34.5-26.1c0.4-0.6,112.2-97.3-26.2-140.9c-2.6-0.8-6.3-1.2-10.7-1.2"/>
				</g>
			</mask>
			<path class="st48" d="M89.1,62.5c-8.8,0-18.5,3-27.4,8.4c-6.5,4-12.1,11.6-15.5,21c-3.4,9.6-4.1,19.4-2,29.3
				c0.3,1.2,0.6,2.4,1,3.5c0.3,0.9,0.6,1.8,0.8,2.7c-0.4,0.9-0.8,1.9-1.2,2.8c-0.9,1.9-1.7,3.7-2.3,5.5c-2.9,8.6-5.9,19.9-3.2,31.6
				c3,12.6,13.5,21.6,30.3,25.9c1.6,0.4,3.3,0.8,4.9,1.1l0.1,0l3.3,0.6c1.7,0.3,3.4,0.5,5.1,0.7c1.8,0.2,3.6,0.2,5.4,0.2
				c11.7,0,21.8-3.4,28.5-9.6c6.7-6.1,10.6-17.2,11.6-25.6c0.5-4.4,0.3-8.9,0.1-13.2c-0.1-2.1-0.2-4.2-0.2-6.3l0-0.3
				c2.4-1.3,4.4-2.8,6-4.6c4.4-4.6,6.7-11.5,6.1-17.9c-0.4-4-1.7-6.9-4.2-9.5c0-2.1-0.1-4-0.3-5.8c-1-9.9-4.6-18.6-9.9-24.1
				c-8.6-8.7-19.1-14.4-29-15.6l-3.3-0.4l-0.2,0C92.2,62.6,90.6,62.5,89.1,62.5 M89.1,64.4c1.5,0,2.9,0.1,4.3,0.3l0.2,0l3.3,0.4
				c10.4,1.3,20.5,7.5,27.9,15.1c5.7,5.9,8.6,14.9,9.4,23c0.2,2.2,0.3,4.3,0.2,6.4c2.8,2.6,3.9,5.2,4.2,8.9
				c0.5,5.8-1.6,12.2-5.6,16.5c-1.9,2-4.1,3.5-6.6,4.7c0,0.5,0,0.9,0,1.4c0,6.4,0.8,12.9,0.1,19.3c-1,8.2-4.9,18.8-11,24.4
				c-7.2,6.6-17.5,9.1-27.3,9.1c-1.8,0-3.5-0.1-5.2-0.2c-1.6-0.1-3.3-0.4-4.9-0.6l-3.3-0.6c-0.1,0-0.1,0-0.2,0
				c-1.6-0.3-3.2-0.6-4.8-1c-13.1-3.4-25.7-10.5-29-24.6c-2.4-10.3-0.2-20.7,3.1-30.5c0.9-2.7,2.5-5.7,3.7-8.7
				c-0.5-2.3-1.4-4.6-1.9-6.8c-2-9.5-1.4-19.1,1.9-28.3c2.7-7.6,7.7-15.7,14.7-20C70.5,67.8,79.9,64.4,89.1,64.4"/>
			<defs>
				<filter id="Adobe_OpacityMaskFilter_17_" filterUnits="userSpaceOnUse" x="99.4" y="55.3" width="32.4" height="21.1">
					<feColorMatrix  type="matrix" values="1 0 0 0 0  0 1 0 0 0  0 0 1 0 0  0 0 0 1 0"/>
				</filter>
			</defs>
			<mask maskUnits="userSpaceOnUse" x="99.4" y="55.3" width="32.4" height="21.1" id="yrw34cnvpJ_1_">
				<g class="st49">
					<path id="_x37_jfzhfa56I_1_" class="st1" d="M103.8,0.3C71.5,0.4,0.3,18.9,0.3,18.9l16.3,150l53.9,18.5l8.2-5.1
						c0,0,18.8-8.4,28-13.8c6.7-3.9,28.2-16.4,34.5-26.1c0.4-0.6,112.2-97.3-26.2-140.9c-2.6-0.8-6.3-1.2-10.7-1.2"/>
				</g>
			</mask>
			<path class="st50" d="M123.9,76.4c-2,0-4-0.8-5.4-2.2l-0.7-0.7c-1.7-1.6-3.1-3-4.5-3c-0.9,0-2,0.6-3.2,1.9c-0.9,1-2.1,2-4,2
				c-1.1,0-2.5-0.3-4.3-1.1c-1.1-0.5-1.9-1.3-2.2-2.3c-0.6-1.8,0.1-4.4,2.2-8c1.7-2.9,4.2-5.2,6.7-6.2c2.2-0.9,4.2-1.3,6-1.3
				c2.1,0,4.2,0.5,6.6,1.7c2.9,1.4,5.6,3.4,8.3,6c3.1,3,3.1,8,0.1,11.1C128.1,75.6,126.1,76.4,123.9,76.4"/>
			<defs>
				<filter id="Adobe_OpacityMaskFilter_18_" filterUnits="userSpaceOnUse" x="98.5" y="54.4" width="34.2" height="23">
					<feColorMatrix  type="matrix" values="1 0 0 0 0  0 1 0 0 0  0 0 1 0 0  0 0 0 1 0"/>
				</filter>
			</defs>
			<mask maskUnits="userSpaceOnUse" x="98.5" y="54.4" width="34.2" height="23" id="l2gf19xdjL_1_">
				<g class="st51">
					<path id="iv39ash21K_1_" class="st1" d="M103.8,0.3C71.5,0.4,0.3,18.9,0.3,18.9l16.3,150l53.9,18.5l8.2-5.1
						c0,0,18.8-8.4,28-13.8c6.7-3.9,28.2-16.4,34.5-26.1c0.4-0.6,112.2-97.3-26.2-140.9c-2.6-0.8-6.3-1.2-10.7-1.2"/>
				</g>
			</mask>
			<path class="st52" d="M114.6,54.4c-2,0-4.1,0.4-6.4,1.4c-2.8,1.1-5.4,3.5-7.2,6.6c-2.3,3.9-3,6.7-2.3,8.8c0.3,0.9,1,2.1,2.8,2.9
				c2,0.8,3.4,1.2,4.7,1.2c2.2,0,3.7-1.2,4.6-2.2c0.7-0.7,1.7-1.6,2.5-1.6c1,0,2.4,1.3,3.8,2.8l0.7,0.7c1.6,1.6,3.8,2.5,6.1,2.5
				c2.4,0,4.6-0.9,6.3-2.7c3.3-3.5,3.3-9-0.1-12.4c-2.7-2.7-5.6-4.7-8.5-6.2C119.2,54.9,116.9,54.4,114.6,54.4 M114.6,56.2
				c2,0,4,0.5,6.2,1.6c3,1.4,5.7,3.5,8,5.8c2.7,2.7,2.8,7,0.1,9.8c-1.3,1.4-3.1,2.1-4.9,2.1c-1.7,0-3.5-0.7-4.8-2
				c-2.2-2.1-3.9-4-5.9-4c-1.1,0-2.4,0.6-3.8,2.2c-1,1.1-2,1.7-3.3,1.7c-1,0-2.3-0.3-3.9-1.1c-2.6-1.1-2.5-4,0.4-9
				c1.4-2.3,3.6-4.7,6.3-5.8C111,56.6,112.8,56.2,114.6,56.2"/>
			<defs>
				<filter id="Adobe_OpacityMaskFilter_19_" filterUnits="userSpaceOnUse" x="116.1" y="59.1" width="14.7" height="16.4">
					<feColorMatrix  type="matrix" values="1 0 0 0 0  0 1 0 0 0  0 0 1 0 0  0 0 0 1 0"/>
				</filter>
			</defs>
			<mask maskUnits="userSpaceOnUse" x="116.1" y="59.1" width="14.7" height="16.4" id="q8kpla5m7N_1_">
				<g class="st53">
					<path id="ao5fe56v6M_1_" class="st1" d="M103.8,0.3C71.5,0.4,0.3,18.9,0.3,18.9l16.3,150l53.9,18.5l8.2-5.1
						c0,0,18.8-8.4,28-13.8c6.7-3.9,28.2-16.4,34.5-26.1c0.4-0.6,112.2-97.3-26.2-140.9c-2.6-0.8-6.3-1.2-10.7-1.2"/>
				</g>
			</mask>
			<path class="st54" d="M118,69c0.5-0.2,1.1-0.1,1.6,0c-0.6-0.3-1.1-0.9-1.3-1.6c-0.4-1.5,0.4-3,1.8-3.5c0.7-0.2,1.4-0.1,2,0.2
				c-0.5-0.3-1-0.8-1.2-1.5c-0.4-1.5,0.4-3,1.8-3.5c0.1,0,0.3,0,0.4,0c3.1,2,5.2,4,5.7,4.5c2.7,2.7,2.8,7,0.1,9.8
				c-2.6,2.7-7,2.8-9.7,0.2c-0.8-0.8-1.9-1.6-3.1-2.4C116.3,70.2,117,69.3,118,69"/>
			<defs>
				<filter id="Adobe_OpacityMaskFilter_20_" filterUnits="userSpaceOnUse" x="39.2" y="63.5" width="96.3" height="131.3">
					<feColorMatrix  type="matrix" values="1 0 0 0 0  0 1 0 0 0  0 0 1 0 0  0 0 0 1 0"/>
				</filter>
			</defs>
			<mask maskUnits="userSpaceOnUse" x="39.2" y="63.5" width="96.3" height="131.3" id="xawmwg76eP_1_">
				<g class="st55">
					<path id="go3twcv6oO_1_" class="st1" d="M103.8,0.3C71.5,0.4,0.3,18.9,0.3,18.9l16.3,150l53.9,18.5l8.2-5.1
						c0,0,18.8-8.4,28-13.8c6.7-3.9,28.2-16.4,34.5-26.1c0.4-0.6,112.2-97.3-26.2-140.9c-2.6-0.8-6.3-1.2-10.7-1.2"/>
				</g>
			</mask>
			<path class="st56" d="M88.5,194.8c-1.8,0-3.5-0.1-5.3-0.2c-1.6-0.1-3.3-0.4-5-0.6l-3.3-0.6l0-0.9l-0.2,0.9
				c-1.6-0.3-3.3-0.6-4.8-1c-16.5-4.2-26.8-13-29.7-25.2c-2.7-11.4,0.3-22.6,3.2-31c0.6-1.7,1.4-3.5,2.2-5.4c0.5-1,0.9-2.1,1.4-3.1
				c-0.2-1-0.6-2-0.9-3.1c-0.4-1.1-0.7-2.3-1-3.4c-2.1-9.7-1.4-19.4,2-28.8c3.3-9.1,8.8-16.6,15.1-20.5c8.7-5.3,18.2-8.3,26.9-8.3
				c1.5,0,3,0.1,4.4,0.3l3.5,0.4c9.7,1.2,20,6.8,28.5,15.3c5.2,5.3,8.7,13.9,9.7,23.5c1.1,10.4-0.8,20.2-5.6,29.8
				c-0.9,1.8-1.6,3.4-2.1,4.9c0,0.4,0,0.7,0.1,1.1c0,0.7,0.1,1.5,0.1,2.2c0,2.1,0.1,4.3,0.2,6.3c0.2,4.3,0.4,8.7-0.1,13.1
				c-1,8.1-4.8,19-11.3,25C109.8,191.5,99.9,194.8,88.5,194.8"/>
			<defs>
				<filter id="Adobe_OpacityMaskFilter_21_" filterUnits="userSpaceOnUse" x="38.3" y="62.5" width="98.2" height="133.2">
					<feColorMatrix  type="matrix" values="1 0 0 0 0  0 1 0 0 0  0 0 1 0 0  0 0 0 1 0"/>
				</filter>
			</defs>
			<mask maskUnits="userSpaceOnUse" x="38.3" y="62.5" width="98.2" height="133.2" id="q8x97mtjrR_1_">
				<g class="st57">
					<path id="n7qv303vbQ_1_" class="st1" d="M103.8,0.3C71.5,0.4,0.3,18.9,0.3,18.9l16.3,150l53.9,18.5l8.2-5.1
						c0,0,18.8-8.4,28-13.8c6.7-3.9,28.2-16.4,34.5-26.1c0.4-0.6,112.2-97.3-26.2-140.9c-2.6-0.8-6.3-1.2-10.7-1.2"/>
				</g>
			</mask>
			<path class="st58" d="M89.1,62.5c-8.8,0-18.5,3-27.4,8.4c-6.5,4-12.1,11.6-15.5,21c-3.4,9.6-4.1,19.4-2,29.3
				c0.3,1.2,0.6,2.4,1,3.5c0.3,0.9,0.6,1.8,0.8,2.7c-0.4,0.9-0.8,1.9-1.2,2.8c-0.9,1.9-1.7,3.7-2.3,5.5c-2.9,8.6-5.9,19.9-3.2,31.6
				c3,12.6,13.5,21.6,30.3,25.9c1.6,0.4,3.3,0.8,4.9,1.1l0.1,0l3.3,0.6c1.7,0.3,3.4,0.5,5.1,0.7c1.8,0.2,3.6,0.2,5.4,0.2
				c11.7,0,21.8-3.4,28.5-9.6c6.7-6.1,10.6-17.2,11.6-25.6c0.5-4.4,0.3-8.9,0.1-13.2c-0.1-2.1-0.2-4.2-0.2-6.3c0-0.8,0-1.5-0.1-2.3
				l0-0.9c0.5-1.4,1.2-2.9,2-4.6c4.9-9.8,6.8-19.7,5.7-30.3c-1-9.9-4.6-18.6-9.9-24.1c-8.6-8.7-19.1-14.4-29-15.6l-3.3-0.4l-0.2,0
				C92.2,62.6,90.6,62.5,89.1,62.5 M89.1,64.4c1.5,0,2.9,0.1,4.3,0.3l0.2,0l3.3,0.4c10.4,1.3,20.5,7.5,27.9,15.1
				c5.7,5.9,8.6,14.9,9.4,23c1.1,10.5-0.8,19.9-5.5,29.3c-0.8,1.7-1.6,3.4-2.2,5.2c0,1.2,0.1,2.3,0.2,3.5c0,6.4,0.8,12.9,0.1,19.3
				c-1,8.2-4.9,18.8-11,24.4c-7.2,6.6-17.5,9.1-27.3,9.1c-1.8,0-3.5-0.1-5.2-0.2c-1.6-0.1-3.3-0.4-4.9-0.6l-3.3-0.6
				c-0.1,0-0.1,0-0.2,0c-1.6-0.3-3.2-0.6-4.8-1c-13.1-3.4-25.7-10.5-29-24.6c-2.4-10.3-0.2-20.7,3.1-30.5c0.9-2.7,2.5-5.7,3.7-8.7
				c-0.5-2.3-1.4-4.6-1.9-6.8c-2-9.5-1.4-19.1,1.9-28.3c2.7-7.6,7.7-15.7,14.7-20C70.5,67.8,79.9,64.4,89.1,64.4"/>
			<g>
				<defs>
					<filter id="Adobe_OpacityMaskFilter_22_" filterUnits="userSpaceOnUse" x="96.8" y="65.1" width="0.2" height="0">
						<feColorMatrix  type="matrix" values="1 0 0 0 0  0 1 0 0 0  0 0 1 0 0  0 0 0 1 0"/>
					</filter>
				</defs>
				<mask maskUnits="userSpaceOnUse" x="96.8" y="65.1" width="0.2" height="0" id="tkae99viuT_1_">
					<g class="st59">
						<path id="mm69un3n3S_1_" class="st1" d="M103.8,0.3C71.5,0.4,0.3,18.9,0.3,18.9l16.3,150l53.9,18.5l8.2-5.1
							c0,0,18.8-8.4,28-13.8c6.7-3.9,28.2-16.4,34.5-26.1c0.4-0.6,112.2-97.3-26.2-140.9c-2.6-0.8-6.3-1.2-10.7-1.2H103.8L103.8,0.3
							z"/>
					</g>
				</mask>
				<path class="st60" d="M97,65.1l-0.2,0L97,65.1z"/>
			</g>
			<g>
				<defs>
					<filter id="Adobe_OpacityMaskFilter_23_" filterUnits="userSpaceOnUse" x="59.1" y="73.5" width="80.7" height="71.7">
						<feColorMatrix  type="matrix" values="1 0 0 0 0  0 1 0 0 0  0 0 1 0 0  0 0 0 1 0"/>
					</filter>
				</defs>
				<mask maskUnits="userSpaceOnUse" x="59.1" y="73.5" width="80.7" height="71.7" id="qiu4iysp6V_1_">
					<g class="st61">
						<path id="hh4yu933pU_1_" class="st1" d="M103.8,0.3C71.5,0.4,0.3,18.9,0.3,18.9l16.3,150l53.9,18.5l8.2-5.1
							c0,0,18.8-8.4,28-13.8c6.7-3.9,28.2-16.4,34.5-26.1c0.4-0.6,112.2-97.3-26.2-140.9c-2.6-0.8-6.3-1.2-10.7-1.2"/>
					</g>
				</mask>
				<path class="st62" d="M104.4,145.2c-6.4,0-12.3-0.9-20.4-2.5c-5.2-1-10.1-3-14.2-5.8c-8.3-5.6-11.9-15.4-10.4-28.3
					c0.2-2,0.6-3.9,1.2-6.1c0.8-2.8,1.8-5.8,3.4-9.4c5.2-12,18.7-19.7,34.5-19.7c7.5,0,14.9,1.9,20.6,5.3c5.6,3.3,9.9,8.5,12.6,15.2
					c0.8,2,2.2,6.1,2.4,10.8c0.1,1.6,0.1,2.7,0.1,3.3c3.6,2.9,5.1,5.8,5.6,10.4c0.6,6.2-1.7,12.8-5.8,17.2c-4,4.2-10.2,7.1-18.3,8.6
					C111.8,144.9,108.2,145.2,104.4,145.2"/>
			</g>
			<g>
				<defs>
					<filter id="Adobe_OpacityMaskFilter_24_" filterUnits="userSpaceOnUse" x="58.2" y="72.6" width="82.6" height="73.5">
						<feColorMatrix  type="matrix" values="1 0 0 0 0  0 1 0 0 0  0 0 1 0 0  0 0 0 1 0"/>
					</filter>
				</defs>
				<mask maskUnits="userSpaceOnUse" x="58.2" y="72.6" width="82.6" height="73.5" id="blxvzord2X_1_">
					<g class="st63">
						<path id="oy6edpgrgW_1_" class="st1" d="M103.8,0.3C71.5,0.4,0.3,18.9,0.3,18.9l16.3,150l53.9,18.5l8.2-5.1
							c0,0,18.8-8.4,28-13.8c6.7-3.9,28.2-16.4,34.5-26.1c0.4-0.6,112.2-97.3-26.2-140.9c-2.6-0.8-6.3-1.2-10.7-1.2"/>
					</g>
				</mask>
				<path class="st64" d="M98.5,72.6L98.5,72.6c-16.2,0-30,8-35.3,20.3c-1.6,3.7-2.7,6.7-3.4,9.5c-0.6,2.2-1,4.2-1.2,6.2
					c-1.6,13.3,2.2,23.4,10.8,29.2c4.2,2.8,9.3,4.9,14.6,5.9c8.1,1.6,14.1,2.5,20.6,2.5c3.8,0,7.5-0.3,11.3-1
					c8.4-1.5,14.7-4.5,18.8-8.9c4.4-4.6,6.7-11.5,6.1-17.9c-0.4-4.6-2.1-7.8-5.6-10.7c0-0.7,0-1.7-0.1-2.9c-0.2-4.8-1.6-9-2.4-11.1
					c-2.7-6.8-7.2-12.2-13-15.6C113.7,74.5,106.2,72.6,98.5,72.6 M98.5,74.4c7.2,0,14.3,1.7,20.2,5.1c5.5,3.2,9.6,8.3,12.2,14.7
					c1.1,2.8,2.1,6.6,2.3,10.5c0.1,2.3,0.1,3.7,0.1,3.7c3.8,2.9,5.2,5.8,5.6,10c0.5,5.8-1.6,12.2-5.6,16.5
					c-4.6,4.9-11.5,7.2-17.8,8.3c-3.9,0.7-7.4,1-11,1c-6.7,0-13-1.1-20.2-2.5c-4.9-1-9.7-2.8-13.9-5.6c-8.7-5.9-11.3-16.1-10-27.4
					c0.2-2,0.6-4,1.2-5.9c0.9-3.2,2.1-6.2,3.4-9.2C70.4,80.8,84.6,74.4,98.5,74.4"/>
			</g>
			<g>
				<defs>
					<filter id="Adobe_OpacityMaskFilter_25_" filterUnits="userSpaceOnUse" x="75" y="110.2" width="22.1" height="22.6">
						<feColorMatrix  type="matrix" values="1 0 0 0 0  0 1 0 0 0  0 0 1 0 0  0 0 0 1 0"/>
					</filter>
				</defs>
				<mask maskUnits="userSpaceOnUse" x="75" y="110.2" width="22.1" height="22.6" id="u9u8zd2loZ_1_">
					<g class="st65">
						<path id="wsauquwh5Y_1_" class="st1" d="M103.8,0.3C71.5,0.4,0.3,18.9,0.3,18.9l16.3,150l53.9,18.5l8.2-5.1
							c0,0,18.8-8.4,28-13.8c6.7-3.9,28.2-16.4,34.5-26.1c0.4-0.6,112.2-97.3-26.2-140.9c-2.6-0.8-6.3-1.2-10.7-1.2"/>
					</g>
				</mask>
				<path class="st66" d="M97,122.1c-0.3,6.2-5.5,11.1-11.5,10.8c-6.1-0.3-10.8-5.6-10.5-11.8c0.3-6.2,5.5-11.1,11.5-10.8
					C92.6,110.5,97.3,115.8,97,122.1"/>
			</g>
			<g>
				<defs>
					<filter id="Adobe_OpacityMaskFilter_26_" filterUnits="userSpaceOnUse" x="127.2" y="111.9" width="11.2" height="21">
						<feColorMatrix  type="matrix" values="1 0 0 0 0  0 1 0 0 0  0 0 1 0 0  0 0 0 1 0"/>
					</filter>
				</defs>
				<mask maskUnits="userSpaceOnUse" x="127.2" y="111.9" width="11.2" height="21" id="_x38_kdfh6fphab_1_">
					<g class="st67">
						<path id="g4k2h6mq6aa_1_" class="st1" d="M103.8,0.3C71.5,0.4,0.3,18.9,0.3,18.9l16.3,150l53.9,18.5l8.2-5.1
							c0,0,18.8-8.4,28-13.8c6.7-3.9,28.2-16.4,34.5-26.1c0.4-0.6,112.2-97.3-26.2-140.9c-2.6-0.8-6.3-1.2-10.7-1.2"/>
					</g>
				</mask>
				<path class="st68" d="M138.2,122.6c-0.6,5.8-3.2,10.7-6.4,10.4c-3.1-0.3-5.2-5.3-4.6-11.1c0.6-5.8,3.6-10.2,6.8-9.9
					C137.2,112.3,138.8,116.8,138.2,122.6"/>
			</g>
			<g>
				<defs>
					<filter id="Adobe_OpacityMaskFilter_27_" filterUnits="userSpaceOnUse" x="48.6" y="52.9" width="35" height="22.9">
						<feColorMatrix  type="matrix" values="1 0 0 0 0  0 1 0 0 0  0 0 1 0 0  0 0 0 1 0"/>
					</filter>
				</defs>
				<mask maskUnits="userSpaceOnUse" x="48.6" y="52.9" width="35" height="22.9" id="i0q6huz8ead_1_">
					<g class="st69">
						<path id="l6t0l1py5ac_1_" class="st1" d="M103.8,0.3C71.5,0.4,0.3,18.9,0.3,18.9l16.3,150l53.9,18.5l8.2-5.1
							c0,0,18.8-8.4,28-13.8c6.7-3.9,28.2-16.4,34.5-26.1c0.4-0.6,112.2-97.3-26.2-140.9c-2.6-0.8-6.3-1.2-10.7-1.2"/>
					</g>
				</mask>
				<path class="st70" d="M57.1,75.8c-2.3,0-4.4-0.9-6-2.6c-3.2-3.3-3.2-8.7,0.1-12c2.8-2.8,5.9-5,9-6.5c2.5-1.2,4.8-1.8,7.2-1.8
					c2,0,4.2,0.5,6.5,1.4c2.8,1.1,5.4,3.6,7.3,6.7c3.1,5.2,3.7,7.8-0.1,10.1c-2.2,1.4-3.5,1.9-4.7,1.9c-1.4,0-2.4-0.8-3.5-1.9
					c-1.3-1.4-2.5-2-3.6-2c-1.9,0-3.7,1.8-5.8,3.9L63,73.4C61.4,74.9,59.3,75.8,57.1,75.8"/>
			</g>
			<g>
				<defs>
					<filter id="Adobe_OpacityMaskFilter_28_" filterUnits="userSpaceOnUse" x="47.7" y="51.9" width="36.8" height="24.8">
						<feColorMatrix  type="matrix" values="1 0 0 0 0  0 1 0 0 0  0 0 1 0 0  0 0 0 1 0"/>
					</filter>
				</defs>
				<mask maskUnits="userSpaceOnUse" x="47.7" y="51.9" width="36.8" height="24.8" id="_x34_ztif2pxeaf_1_">
					<g class="st71">
						<path id="gypms4ejiae_1_" class="st1" d="M103.8,0.3C71.5,0.4,0.3,18.9,0.3,18.9l16.3,150l53.9,18.5l8.2-5.1
							c0,0,18.8-8.4,28-13.8c6.7-3.9,28.2-16.4,34.5-26.1c0.4-0.6,112.2-97.3-26.2-140.9c-2.6-0.8-6.3-1.2-10.7-1.2"/>
					</g>
				</mask>
				<path class="st72" d="M67.2,51.9c-2.5,0-4.9,0.6-7.6,1.9c-3.2,1.6-6.3,3.8-9.2,6.7c-3.7,3.6-3.7,9.6-0.1,13.3
					c1.8,1.8,4.2,2.9,6.7,2.9c2.5,0,4.8-0.9,6.5-2.7l0.4-0.4c1.9-1.8,3.7-3.6,5.2-3.6c0.8,0,1.8,0.6,2.9,1.7
					c1.1,1.1,2.3,2.2,4.2,2.2c1.6,0,3.2-0.8,5.2-2c4.8-3,3.1-6.8,0.4-11.4c-2-3.3-4.8-5.9-7.8-7.1C71.6,52.4,69.4,51.9,67.2,51.9
					 M67.2,53.8c2,0,4,0.5,6.2,1.3c2.9,1.2,5.4,3.8,6.8,6.3c3.2,5.5,3.1,7.1,0.2,8.9c-1.9,1.2-3.2,1.8-4.2,1.8c-1,0-1.8-0.6-2.8-1.6
					c-1.6-1.7-2.9-2.3-4.3-2.3c-2.4,0-4.5,2.2-6.9,4.5c-1.5,1.4-3.4,2.1-5.2,2.1c-2,0-3.9-0.8-5.4-2.3c-2.9-3-2.9-7.8,0.1-10.7
					c2.6-2.5,5.5-4.8,8.7-6.4C62.9,54.3,65.1,53.8,67.2,53.8"/>
			</g>
			<g>
				<defs>
					<filter id="Adobe_OpacityMaskFilter_29_" filterUnits="userSpaceOnUse" x="49.5" y="57" width="16.1" height="17.9">
						<feColorMatrix  type="matrix" values="1 0 0 0 0  0 1 0 0 0  0 0 1 0 0  0 0 0 1 0"/>
					</filter>
				</defs>
				<mask maskUnits="userSpaceOnUse" x="49.5" y="57" width="16.1" height="17.9" id="gh73zed5uah_1_">
					<g class="st73">
						<path id="_x35_4btc50vyag_1_" class="st1" d="M103.8,0.3C71.5,0.4,0.3,18.9,0.3,18.9l16.3,150l53.9,18.5l8.2-5.1
							c0,0,18.8-8.4,28-13.8c6.7-3.9,28.2-16.4,34.5-26.1c0.4-0.6,112.2-97.3-26.2-140.9c-2.6-0.8-6.3-1.2-10.7-1.2"/>
					</g>
				</mask>
				<path class="st74" d="M63.6,67.7c-0.6-0.2-1.2-0.1-1.7,0c0.7-0.4,1.2-1,1.4-1.8c0.5-1.6-0.4-3.3-2-3.8c-0.7-0.2-1.5-0.1-2.1,0.2
					c0.6-0.4,1-0.9,1.3-1.6c0.5-1.6-0.4-3.3-2-3.8c-0.1,0-0.3,0-0.4,0c-3.4,2.2-5.7,4.4-6.2,4.9c-2.9,2.9-3,7.7-0.1,10.7
					c2.9,3,7.6,3.1,10.6,0.1c0.9-0.9,2.1-1.8,3.3-2.7C65.4,69,64.7,68.1,63.6,67.7"/>
			</g>
			<g>
				<defs>
					<filter id="Adobe_OpacityMaskFilter_30_" filterUnits="userSpaceOnUse" x="33.5" y="128" width="16.7" height="27.1">
						<feColorMatrix  type="matrix" values="1 0 0 0 0  0 1 0 0 0  0 0 1 0 0  0 0 0 1 0"/>
					</filter>
				</defs>
				<mask maskUnits="userSpaceOnUse" x="33.5" y="128" width="16.7" height="27.1" id="pjquwszofaj_1_">
					<g class="st75">
						<path id="ponps4dv9ai_1_" class="st1" d="M103.8,0.3C71.5,0.4,0.3,18.9,0.3,18.9l16.3,150l53.9,18.5l8.2-5.1
							c0,0,18.8-8.4,28-13.8c6.7-3.9,28.2-16.4,34.5-26.1c0.4-0.6,112.2-97.3-26.2-140.9c-2.6-0.8-6.3-1.2-10.7-1.2"/>
					</g>
				</mask>
				<path class="st76" d="M50.1,128.9c0.6-1.4-1.7-0.9-3.1-0.3c-8.1,3.1-12,12-13.3,20c-0.6,3.7,0.5,5.9,2.6,6.5
					c2.3,0.7,4.9-3,4.9-3S48.9,131.5,50.1,128.9"/>
			</g>
			<g>
				<defs>
					<filter id="Adobe_OpacityMaskFilter_31_" filterUnits="userSpaceOnUse" x="33.2" y="144.2" width="15" height="31.1">
						<feColorMatrix  type="matrix" values="1 0 0 0 0  0 1 0 0 0  0 0 1 0 0  0 0 0 1 0"/>
					</filter>
				</defs>
				<mask maskUnits="userSpaceOnUse" x="33.2" y="144.2" width="15" height="31.1" id="z9ftq89hfal_1_">
					<g class="st77">
						<path id="jotomcgceak_1_" class="st1" d="M103.8,0.3C71.5,0.4,0.3,18.9,0.3,18.9l16.3,150l53.9,18.5l8.2-5.1
							c0,0,18.8-8.4,28-13.8c6.7-3.9,28.2-16.4,34.5-26.1c0.4-0.6,112.2-97.3-26.2-140.9c-2.6-0.8-6.3-1.2-10.7-1.2"/>
					</g>
				</mask>
				<path class="st78" d="M33.8,148.1c0.6-2.4,2.3-3.5,3.7-3.8c2.1-0.5,5.7,1.3,6.4,3.4c0.5,1.8,0.4,1.8,0.7,3.6
					c0.8,5.2,4.7,13.3,3.3,18.5c-0.7,2.5-2.7,4.7-5.5,5.3c-0.6,0.1-1.1,0.2-1.7,0.2c-1.9,0-4-0.7-4.8-2.4
					C33.3,167.5,32.6,152,33.8,148.1"/>
			</g>
			<g>
				<defs>
					<filter id="Adobe_OpacityMaskFilter_32_" filterUnits="userSpaceOnUse" x="31.4" y="126.2" width="20.7" height="51">
						<feColorMatrix  type="matrix" values="1 0 0 0 0  0 1 0 0 0  0 0 1 0 0  0 0 0 1 0"/>
					</filter>
				</defs>
				<mask maskUnits="userSpaceOnUse" x="31.4" y="126.2" width="20.7" height="51" id="rx68ztyuvan_1_">
					<g class="st79">
						<path id="q3o13mi2gam_1_" class="st1" d="M103.8,0.3C71.5,0.4,0.3,18.9,0.3,18.9l16.3,150l53.9,18.5l8.2-5.1
							c0,0,18.8-8.4,28-13.8c6.7-3.9,28.2-16.4,34.5-26.1c0.4-0.6,112.2-97.3-26.2-140.9c-2.6-0.8-6.3-1.2-10.7-1.2"/>
					</g>
				</mask>
				<path class="st80" d="M49.4,126.2c-1.2,0-2.7,0.5-3.1,0.7c-10.6,4.1-13.7,16.4-14.5,21.4c0,0.1,0,0.1,0,0.2
					c-1,5.2-0.2,19.8,2.4,25.3c1.2,2.5,4.2,3.4,6.4,3.4h0.1c0.6,0,1.4-0.1,2-0.2c3.3-0.7,6-3.3,6.9-6.6c1.1-4-0.4-9.1-1.8-13.6
					c-0.6-2.1-1.2-4.1-1.5-5.7c-0.1-0.5-0.1-0.9-0.2-1.2c-0.1-0.9-0.2-1.3-0.6-2.7c-0.1-0.3-0.2-0.6-0.4-0.8
					c3.6-9.5,5.9-15.4,6.5-16.7c0.5-1.2,0.2-2-0.1-2.4C51.4,126.8,50.7,126.2,49.4,126.2 M49.4,128c0.6,0,1,0.2,0.7,0.9
					c-0.8,1.7-4.5,11.4-6.9,17.7c0.3,0.3,0.5,0.7,0.7,1.1c0.5,1.8,0.4,1.8,0.7,3.6c0.8,5.2,4.7,13.3,3.3,18.5
					c-0.7,2.5-2.7,4.7-5.5,5.3c-0.6,0.1-1.1,0.2-1.7,0.2c0,0-0.1,0-0.1,0c-1.9,0-4-0.7-4.7-2.4c-2.5-5.2-3.2-19.4-2.3-24.2
					c0-0.1,0-0.1,0-0.2c1.3-8.1,5.3-16.9,13.3-20C47.7,128.3,48.7,128,49.4,128"/>
			</g>
			<g>
				<defs>
					<filter id="Adobe_OpacityMaskFilter_33_" filterUnits="userSpaceOnUse" x="105.2" y="125" width="15" height="7.9">
						<feColorMatrix  type="matrix" values="1 0 0 0 0  0 1 0 0 0  0 0 1 0 0  0 0 0 1 0"/>
					</filter>
				</defs>
				<mask maskUnits="userSpaceOnUse" x="105.2" y="125" width="15" height="7.9" id="w6b6t9t12ap_1_">
					<g class="st81">
						<path id="_x39_3mvri62pao_1_" class="st1" d="M103.8,0.3C71.5,0.4,0.3,18.9,0.3,18.9l16.3,150l53.9,18.5l8.2-5.1
							c0,0,18.8-8.4,28-13.8c6.7-3.9,28.2-16.4,34.5-26.1c0.4-0.6,112.2-97.3-26.2-140.9c-2.6-0.8-6.3-1.2-10.7-1.2"/>
					</g>
				</mask>
				<path class="st82" d="M105.2,126.4c0,0-0.3,6.5,7,6.4c7.3-0.1,8-7.9,8-7.9"/>
			</g>
			<g>
				<defs>
					<filter id="Adobe_OpacityMaskFilter_34_" filterUnits="userSpaceOnUse" x="104.3" y="124" width="16.8" height="9.7">
						<feColorMatrix  type="matrix" values="1 0 0 0 0  0 1 0 0 0  0 0 1 0 0  0 0 0 1 0"/>
					</filter>
				</defs>
				<mask maskUnits="userSpaceOnUse" x="104.3" y="124" width="16.8" height="9.7" id="_x32_i6ocyo4kar_1_">
					<g class="st83">
						<path id="dh68l6b3haq_1_" class="st1" d="M103.8,0.3C71.5,0.4,0.3,18.9,0.3,18.9l16.3,150l53.9,18.5l8.2-5.1
							c0,0,18.8-8.4,28-13.8c6.7-3.9,28.2-16.4,34.5-26.1c0.4-0.6,112.2-97.3-26.2-140.9c-2.6-0.8-6.3-1.2-10.7-1.2"/>
					</g>
				</mask>
				<path class="st84" d="M112.1,133.7c-2.5,0-4.4-0.7-5.8-2.1c-2.1-2.1-2-5.1-2-5.2c0-0.5,0.5-0.9,1-0.9c0.5,0,0.9,0.4,0.9,1
					c0,0.1-0.1,2.3,1.5,3.9c1,1.1,2.6,1.6,4.6,1.6c6.4-0.1,7-6.7,7.1-7c0-0.5,0.5-0.9,1-0.8c0.5,0,0.9,0.5,0.8,1
					c-0.3,3-2.4,8.6-8.9,8.7H112.1"/>
			</g>
			<g>
				<defs>
					<filter id="Adobe_OpacityMaskFilter_35_" filterUnits="userSpaceOnUse" x="112.9" y="114.9" width="4.1" height="3.1">
						<feColorMatrix  type="matrix" values="1 0 0 0 0  0 1 0 0 0  0 0 1 0 0  0 0 0 1 0"/>
					</filter>
				</defs>
				<mask maskUnits="userSpaceOnUse" x="112.9" y="114.9" width="4.1" height="3.1" id="tjr7ljvmeat_1_">
					<g class="st85">
						<path id="mtce605svas_1_" class="st1" d="M103.8,0.3C71.5,0.4,0.3,18.9,0.3,18.9l16.3,150l53.9,18.5l8.2-5.1
							c0,0,18.8-8.4,28-13.8c6.7-3.9,28.2-16.4,34.5-26.1c0.4-0.6,112.2-97.3-26.2-140.9c-2.6-0.8-6.3-1.2-10.7-1.2"/>
					</g>
				</mask>
				<path class="st86" d="M117,116.5c0,0.9-0.9,1.5-2.1,1.5c-1.1,0-2-0.7-2-1.6c0-0.8,0.9-1.5,2.1-1.5
					C116.1,114.9,117,115.6,117,116.5"/>
			</g>
			<g>
				<defs>
					<filter id="Adobe_OpacityMaskFilter_36_" filterUnits="userSpaceOnUse" x="120.6" y="110" width="4.6" height="5">
						<feColorMatrix  type="matrix" values="1 0 0 0 0  0 1 0 0 0  0 0 1 0 0  0 0 0 1 0"/>
					</filter>
				</defs>
				<mask maskUnits="userSpaceOnUse" x="120.6" y="110" width="4.6" height="5" id="j4ij06arlav_1_">
					<g class="st87">
						<path id="ov9il0xqmau_1_" class="st1" d="M103.8,0.3C71.5,0.4,0.3,18.9,0.3,18.9l16.3,150l53.9,18.5l8.2-5.1
							c0,0,18.8-8.4,28-13.8c6.7-3.9,28.2-16.4,34.5-26.1c0.4-0.6,112.2-97.3-26.2-140.9c-2.6-0.8-6.3-1.2-10.7-1.2"/>
					</g>
				</mask>
				<path class="st88" d="M122.5,115c-1.2-0.2-2-1.4-1.8-2.7l0.1-0.3c0.2-1.3,1.4-2.1,2.6-1.9c1.2,0.2,2,1.4,1.8,2.7l-0.1,0.3
					C124.9,114.4,123.7,115.2,122.5,115"/>
			</g>
			<g>
				<defs>
					<filter id="Adobe_OpacityMaskFilter_37_" filterUnits="userSpaceOnUse" x="100.5" y="109.9" width="5.2" height="5.3">
						<feColorMatrix  type="matrix" values="1 0 0 0 0  0 1 0 0 0  0 0 1 0 0  0 0 0 1 0"/>
					</filter>
				</defs>
				<mask maskUnits="userSpaceOnUse" x="100.5" y="109.9" width="5.2" height="5.3" id="fj9owgahsax_1_">
					<g class="st89">
						<path id="w3eandkc7aw_1_" class="st1" d="M103.8,0.3C71.5,0.4,0.3,18.9,0.3,18.9l16.3,150l53.9,18.5l8.2-5.1
							c0,0,18.8-8.4,28-13.8c6.7-3.9,28.2-16.4,34.5-26.1c0.4-0.6,112.2-97.3-26.2-140.9c-2.6-0.8-6.3-1.2-10.7-1.2"/>
					</g>
				</mask>
				<path class="st90" d="M102.7,115.2c-1.4-0.2-2.4-1.5-2.2-2.8l0-0.3c0.2-1.4,1.5-2.3,2.9-2.1c1.4,0.2,2.4,1.5,2.2,2.8l0,0.3
					C105.5,114.5,104.2,115.4,102.7,115.2"/>
			</g>
			<g>
				<defs>
					<filter id="Adobe_OpacityMaskFilter_38_" filterUnits="userSpaceOnUse" x="99.7" y="120.2" width="16" height="6.4">
						<feColorMatrix  type="matrix" values="1 0 0 0 0  0 1 0 0 0  0 0 1 0 0  0 0 0 1 0"/>
					</filter>
				</defs>
				<mask maskUnits="userSpaceOnUse" x="99.7" y="120.2" width="16" height="6.4" id="_x35_485mvai1az_1_">
					<g class="st91">
						<path id="xvmmntepqay_1_" class="st1" d="M103.8,0.3C71.5,0.4,0.3,18.9,0.3,18.9l16.3,150l53.9,18.5l8.2-5.1
							c0,0,18.8-8.4,28-13.8c6.7-3.9,28.2-16.4,34.5-26.1c0.4-0.6,112.2-97.3-26.2-140.9c-2.6-0.8-6.3-1.2-10.7-1.2"/>
					</g>
				</mask>
				<path class="st92" d="M107.4,126.6c-2.6,0-4.9-0.9-6.4-2.4c-0.7-0.7-2.1-2.1-0.6-3.7c0.4-0.4,1.1-0.4,1.6,0
					c0.4,0.4,0.4,1.1,0,1.6c0.1,0.2,0.3,0.4,0.5,0.6c1.1,1.1,3.1,1.8,5.1,1.7c2.4-0.1,4.6-1.1,6.1-2.8c0.4-0.5,1.1-0.5,1.6-0.1
					c0.5,0.4,0.5,1.1,0.1,1.6c-1.9,2.2-4.7,3.5-7.7,3.6C107.6,126.6,107.5,126.6,107.4,126.6"/>
			</g>
			<g>
				<defs>
					<filter id="Adobe_OpacityMaskFilter_39_" filterUnits="userSpaceOnUse" x="113.4" y="120.5" width="11.7" height="5.6">
						<feColorMatrix  type="matrix" values="1 0 0 0 0  0 1 0 0 0  0 0 1 0 0  0 0 0 1 0"/>
					</filter>
				</defs>
				<mask maskUnits="userSpaceOnUse" x="113.4" y="120.5" width="11.7" height="5.6" id="ezzhfxg52aB_1_">
					<g class="st93">
						<path id="wq28njos7aA_1_" class="st1" d="M103.8,0.3C71.5,0.4,0.3,18.9,0.3,18.9l16.3,150l53.9,18.5l8.2-5.1
							c0,0,18.8-8.4,28-13.8c6.7-3.9,28.2-16.4,34.5-26.1c0.4-0.6,112.2-97.3-26.2-140.9c-2.6-0.8-6.3-1.2-10.7-1.2H103.8L103.8,0.3
							z"/>
					</g>
				</mask>
				<path class="st94" d="M119.7,126c-0.3,0-0.6,0-0.8,0c-2-0.2-3.9-1.3-5.2-2.9c-0.4-0.5-0.3-1.2,0.2-1.6c0.5-0.4,1.2-0.3,1.6,0.2
					c1.2,1.5,2.7,2,3.7,2.1c1.2,0.1,2.4-0.2,3.2-0.8c0.2-0.2,0.4-0.5,0.5-0.7c-0.3-0.4-0.4-1,0-1.4c0.4-0.5,1.1-0.6,1.6-0.2
					c0.5,0.4,0.7,0.9,0.7,1.5c0,1.1-0.9,2.2-1.4,2.5C122.7,125.6,121.2,126,119.7,126L119.7,126z"/>
			</g>
			<g>
				<defs>
					<filter id="Adobe_OpacityMaskFilter_40_" filterUnits="userSpaceOnUse" x="33.8" y="159.2" width="29.8" height="35.9">
						<feColorMatrix  type="matrix" values="1 0 0 0 0  0 1 0 0 0  0 0 1 0 0  0 0 0 1 0"/>
					</filter>
				</defs>
				<mask maskUnits="userSpaceOnUse" x="33.8" y="159.2" width="29.8" height="35.9" id="sz4ud3qo3aD_1_">
					<g class="st95">
						<path id="a9c4mmvnjaC_1_" class="st1" d="M103.8,0.3C71.5,0.4,0.3,18.9,0.3,18.9l16.3,150l53.9,18.5l8.2-5.1
							c0,0,18.8-8.4,28-13.8c6.7-3.9,28.2-16.4,34.5-26.1c0.4-0.6,112.2-97.3-26.2-140.9c-2.6-0.8-6.3-1.2-10.7-1.2"/>
					</g>
				</mask>
				<path class="st96" d="M49.9,188c-5,0.5-9.5-3.9-10.2-9.9c-0.7-6,2.8-11.3,7.8-11.9c5-0.5,9.5,3.9,10.2,9.9
					C58.3,182.1,54.8,187.5,49.9,188 M46.7,159.2c-8.1,0.9-13.9,9.6-12.8,19.5c1.1,9.9,8.5,17.2,16.7,16.3
					c8.1-0.9,13.9-9.6,12.8-19.5C62.4,165.6,54.9,158.3,46.7,159.2"/>
			</g>
			<g>
				<defs>
					<filter id="Adobe_OpacityMaskFilter_41_" filterUnits="userSpaceOnUse" x="32.9" y="158.2" width="31.6" height="37.8">
						<feColorMatrix  type="matrix" values="1 0 0 0 0  0 1 0 0 0  0 0 1 0 0  0 0 0 1 0"/>
					</filter>
				</defs>
				<mask maskUnits="userSpaceOnUse" x="32.9" y="158.2" width="31.6" height="37.8" id="vh0hfyes1aF_1_">
					<g class="st97">
						<path id="hka80tl58aE_1_" class="st1" d="M103.8,0.3C71.5,0.4,0.3,18.9,0.3,18.9l16.3,150l53.9,18.5l8.2-5.1
							c0,0,18.8-8.4,28-13.8c6.7-3.9,28.2-16.4,34.5-26.1c0.4-0.6,112.2-97.3-26.2-140.9c-2.6-0.8-6.3-1.2-10.7-1.2"/>
					</g>
				</mask>
				<path class="st98" d="M48.3,167.1c-0.2,0-0.5,0-0.7,0c-4.4,0.5-7.6,5.4-7,10.9c0.3,2.7,1.4,5.1,3.2,6.9c1.7,1.7,3.9,2.5,6,2.2
					c4.4-0.5,7.6-5.4,7-10.9C56.2,171,52.5,167.1,48.3,167.1 M49,189c-2.4,0-4.7-1-6.5-2.8c-2.1-2-3.4-4.9-3.7-8
					c-0.7-6.5,3.2-12.3,8.6-12.9c5.4-0.6,10.5,4.2,11.2,10.7c0.7,6.5-3.2,12.3-8.6,12.9C49.7,189,49.3,189,49,189 M46.8,160.2
					c-7.6,0.8-13,9.1-12,18.5c1,9.4,8.1,16.3,15.7,15.5c3.7-0.4,6.9-2.5,9.2-6c2.3-3.5,3.3-7.9,2.8-12.5
					C61.5,166.3,54.4,159.3,46.8,160.2 M49.3,196c-8.1,0-15.2-7.4-16.3-17.2c-1.1-10.4,5-19.6,13.6-20.5c8.6-0.9,16.6,6.7,17.7,17.1
					c0.5,5-0.6,9.9-3.1,13.7c-2.6,3.9-6.3,6.3-10.5,6.8C50.2,196,49.8,196,49.3,196"/>
			</g>
		</g>
		<g>
			<g>
				<path class="st1" d="M1448,720.4l62.3,21.4c0,0,21.5-28.8,4.8-33.4c-16.7-4.6-50.6-15.7-50.6-15.7s-3.4-1.5-7.3,4.4
					C1453.3,702.9,1448.9,711.3,1448,720.4"/>
				<path class="st24" d="M1449,719.7l61,20.9c2.2-3.1,12.9-18.8,10.1-27c-0.8-2.2-2.5-3.7-5.2-4.4c-16.5-4.5-50.3-15.6-50.6-15.7
					c-0.2-0.1-2.8-1-6.2,4.1C1452.9,705.3,1449.8,712.8,1449,719.7L1449,719.7z M1510.7,742.8L1447,721l0.1-0.7
					c0.7-7.4,3.9-15.4,9.4-23.7c4.3-6.5,8.3-4.9,8.4-4.8c0.3,0.1,34,11.2,50.5,15.7c3.3,0.9,5.5,2.8,6.5,5.6
					c3.4,10-10.2,28.5-10.8,29.2L1510.7,742.8z"/>
			</g>
			<path class="st99" d="M1450,719.1l59.6,20.4c4.1-5.8,11.9-18.9,9.6-25.6c-0.7-1.9-2.2-3.2-4.6-3.8c-16.6-4.5-50.3-15.6-50.7-15.8
				c-0.8-0.3-2.8,0.2-5.1,3.7C1453.9,705.5,1451,712.5,1450,719.1L1450,719.1z M1511,743.9l-65-22.3l0.1-1.5
				c0.7-7.6,4-15.7,9.6-24.2c4.7-7.1,9.4-5.2,9.6-5.1c0.2,0.1,33.9,11.1,50.3,15.6c3.6,1,6,3.1,7.1,6.2c3.5,10.3-9.4,28.1-10.9,30.1
				L1511,743.9L1511,743.9z"/>
			<path class="st100" d="M1445.7,722.4c0,0-0.7-4.8,2.7-5.2l64,21.5l0.4,3.5l-4.1,2.3C1508.8,744.4,1445.7,722.4,1445.7,722.4z"/>
			<path class="st24" d="M1446.6,721.7l62.1,21.7l3.2-1.8l-0.2-2.3l-63.2-21.2c-0.5,0.1-0.9,0.3-1.2,0.7
				C1446.6,719.6,1446.6,720.9,1446.6,721.7L1446.6,721.7z M1508.8,745.4l-64-22.4l-0.1-0.6c0-0.1-0.4-3,0.9-4.8
				c0.6-0.8,1.5-1.3,2.6-1.5l0.2,0l0.2,0.1l64.6,21.7l0.5,4.7L1508.8,745.4L1508.8,745.4z"/>
			<path class="st1" d="M1476.1,735.7c-0.6,0.2-27.5,15.6-32.1,56.1l5.7,2.3c10.2-39.8,32.8-55.8,32.9-55.9
				C1482.7,738.2,1476.1,735.7,1476.1,735.7z"/>
		</g>
	</g>
</g>
</svg>
