<svg xmlns="http://www.w3.org/2000/svg" xmlns:xlink="http://www.w3.org/1999/xlink" width="2048" height="666" viewBox="0 0 2048 666">
    <defs>
        <path id="6zk86v1gca" d="M0 0H2048V613H0z"/>
        <path id="me2jrzl85c" d="M0.362 0.194L18.421 0.194 18.421 8.914 0.362 8.914z"/>
        <path id="h7irvj56ne" d="M0.535 0.604L11.988 0.604 11.988 6.134 0.535 6.134z"/>
        <path id="ac9h0w6rsg" d="M0 0.479L15.421 0.479 15.421 7.927 0 7.927z"/>
        <path id="vctlwoshki" d="M0 0.367L62.209 0.367 62.209 26 0 26z"/>
        <path id="vvv4pktexk" d="M0 0.893L134.09 0.893 134.09 130.626 0 130.626z"/>
        <path id="ekekhgq6xm" d="M0 0.336L134.09 0.336 134.09 129.626 0 129.626z"/>
        <path id="of5atxzuzo" d="M0 183.107L134.09 183.107 134.09 1 0 1z"/>
        <path id="yn3gxxpmpq" d="M0 0.551L53.322 0.551 53.322 53.448 0 53.448z"/>
        <path id="1d56rzeyds" d="M0.297 0.533L16.448 0.533 16.448 52.748 0.297 52.748z"/>
        <path id="798mo99ilu" d="M0.083 0.473L16.207 0.473 16.207 14 0.083 14z"/>
        <path id="c4katnltvw" d="M0.594 0.551L163.31 0.551 163.31 67.525 0.594 67.525z"/>
        <path id="982bizbzcy" d="M0.325 0.063L148.802 0.063 148.802 148.229 0.325 148.229z"/>
        <path id="t4rum0w5oA" d="M0.522 0.26L151.472 0.26 151.472 149.66 0.522 149.66z"/>
        <path id="wriqjdowgC" d="M0.522 0.282L151.473 0.282 151.473 165.402 0.522 165.402z"/>
    </defs>
    <g fill="none" fill-rule="evenodd">
        <g transform="translate(0 42)">
            <mask id="7ceayphwyb" fill="#fff">
                <use xlink:href="#6zk86v1gca"/>
            </mask>
            <use fill="#333" xlink:href="#6zk86v1gca"/>
            <path fill="#5BD363" d="M-8 535H2048V613H-8z" mask="url(#7ceayphwyb)"/>
            <g fill="#008A4C" mask="url(#7ceayphwyb)">
                <g>
                    <path d="M988 9.053c-.091 0-.184-.013-.277-.039-.53-.153-.835-.705-.684-1.234.056-.196 1.407-4.78 5.015-4.78 1.954 0 3.209 1.322 3.957 2.566.783-1.243 2.075-2.566 4.023-2.566 1.575 0 2.966.915 3.957 2.559 1.038-1.644 2.453-2.559 4.023-2.559 3.624 0 4.842 4.481 4.893 4.671.14.534-.18 1.081-.714 1.221-.534.14-1.081-.179-1.221-.713-.008-.029-.876-3.179-2.958-3.179-1.603 0-2.566 1.925-2.906 2.753-.191.466-.637.765-1.138.765h-.016c-.508-.007-.953-.319-1.135-.794-.31-.82-1.203-2.724-2.785-2.724-1.65 0-2.613 2.005-2.951 2.867-.18.461-.652.749-1.11.749-.494-.005-.922-.311-1.091-.778-.307-.854-1.198-2.838-2.828-2.838-2.067 0-3.083 3.298-3.093 3.331-.127.437-.527.722-.961.722M891 42.053c-.091 0-.184-.013-.277-.039-.53-.153-.835-.705-.684-1.234.056-.196 1.407-4.78 5.015-4.78 1.954 0 3.209 1.322 3.957 2.566.783-1.243 2.075-2.566 4.023-2.566 1.575 0 2.966.915 3.957 2.559 1.038-1.644 2.453-2.559 4.023-2.559 3.624 0 4.842 4.481 4.893 4.671.14.534-.18 1.081-.714 1.221-.534.14-1.081-.179-1.221-.713-.008-.029-.876-3.179-2.958-3.179-1.603 0-2.566 1.925-2.906 2.753-.191.466-.637.765-1.138.765h-.016c-.508-.007-.953-.319-1.135-.794-.31-.82-1.203-2.724-2.785-2.724-1.65 0-2.613 2.005-2.951 2.867-.18.461-.652.749-1.11.749-.494-.005-.922-.311-1.091-.778-.307-.854-1.198-2.838-2.828-2.838-2.067 0-3.083 3.298-3.093 3.331-.127.437-.527.722-.961.722M754 51.053c-.091 0-.184-.013-.277-.039-.53-.153-.835-.705-.684-1.234.056-.196 1.407-4.78 5.015-4.78 1.954 0 3.209 1.322 3.957 2.566.783-1.243 2.075-2.566 4.023-2.566 1.575 0 2.966.915 3.957 2.559 1.038-1.644 2.453-2.559 4.023-2.559 3.624 0 4.842 4.481 4.893 4.671.14.534-.18 1.081-.714 1.221-.534.14-1.081-.179-1.221-.713-.008-.029-.876-3.179-2.958-3.179-1.603 0-2.566 1.925-2.906 2.753-.191.466-.637.765-1.138.765h-.016c-.508-.007-.953-.319-1.135-.794-.31-.82-1.203-2.724-2.785-2.724-1.65 0-2.613 2.005-2.951 2.867-.18.461-.652.749-1.11.749-.494-.005-.922-.311-1.091-.778-.307-.854-1.198-2.838-2.828-2.838-2.067 0-3.083 3.298-3.093 3.331-.127.437-.527.722-.961.722M646 7.053c-.091 0-.184-.013-.277-.039-.53-.153-.835-.705-.684-1.234.056-.196 1.407-4.78 5.015-4.78 1.954 0 3.209 1.322 3.957 2.566.783-1.243 2.075-2.566 4.023-2.566 1.575 0 2.966.915 3.957 2.559C663.029 1.915 664.444 1 666.014 1c3.624 0 4.842 4.481 4.893 4.671.14.534-.18 1.081-.714 1.221-.534.14-1.081-.179-1.221-.713-.008-.029-.876-3.179-2.958-3.179-1.603 0-2.566 1.925-2.906 2.753-.191.466-.637.765-1.138.765h-.016c-.508-.007-.953-.319-1.135-.794-.31-.82-1.203-2.724-2.785-2.724-1.65 0-2.613 2.005-2.951 2.867-.18.461-.652.749-1.11.749-.494-.005-.922-.311-1.091-.778-.307-.854-1.198-2.838-2.828-2.838-2.067 0-3.083 3.298-3.093 3.331-.127.437-.527.722-.961.722M565 50.053c-.091 0-.184-.013-.277-.039-.53-.153-.835-.705-.684-1.234.056-.196 1.407-4.78 5.015-4.78 1.954 0 3.209 1.322 3.957 2.566.783-1.243 2.075-2.566 4.023-2.566 1.575 0 2.966.915 3.957 2.559 1.038-1.644 2.453-2.559 4.023-2.559 3.624 0 4.842 4.481 4.893 4.671.14.534-.18 1.081-.714 1.221-.534.14-1.081-.179-1.221-.713-.008-.029-.876-3.179-2.958-3.179-1.603 0-2.566 1.925-2.906 2.753-.191.466-.637.765-1.138.765h-.016c-.508-.007-.953-.319-1.135-.794-.31-.82-1.203-2.724-2.785-2.724-1.65 0-2.613 2.005-2.951 2.867-.18.461-.652.749-1.11.749-.494-.005-.922-.311-1.091-.778-.307-.854-1.198-2.838-2.828-2.838-2.067 0-3.083 3.298-3.093 3.331-.127.437-.527.722-.961.722M525 19.053c-.091 0-.184-.013-.277-.039-.53-.153-.835-.705-.684-1.234.056-.196 1.407-4.78 5.015-4.78 1.954 0 3.209 1.322 3.957 2.566.783-1.243 2.075-2.566 4.023-2.566 1.575 0 2.966.915 3.957 2.559 1.038-1.644 2.453-2.559 4.023-2.559 3.624 0 4.842 4.481 4.893 4.671.14.534-.18 1.081-.714 1.221-.534.14-1.081-.179-1.221-.713-.008-.029-.876-3.179-2.958-3.179-1.603 0-2.566 1.925-2.906 2.753-.191.466-.637.765-1.138.765h-.016c-.508-.007-.953-.319-1.135-.794-.31-.82-1.203-2.724-2.785-2.724-1.65 0-2.613 2.005-2.951 2.867-.18.461-.652.749-1.11.749-.494-.005-.922-.311-1.091-.778-.307-.854-1.198-2.838-2.828-2.838-2.067 0-3.083 3.298-3.093 3.331-.127.437-.527.722-.961.722M425 9.053c-.091 0-.184-.013-.277-.039-.53-.153-.835-.705-.684-1.234.056-.196 1.407-4.78 5.015-4.78 1.954 0 3.209 1.322 3.957 2.566.783-1.243 2.075-2.566 4.023-2.566 1.575 0 2.966.915 3.957 2.559C442.029 3.915 443.444 3 445.014 3c3.624 0 4.842 4.481 4.893 4.671.14.534-.18 1.081-.714 1.221-.534.14-1.081-.179-1.221-.713-.008-.029-.876-3.179-2.958-3.179-1.603 0-2.566 1.925-2.906 2.753-.191.466-.637.765-1.138.765h-.016c-.508-.007-.953-.319-1.135-.794-.31-.82-1.203-2.724-2.785-2.724-1.65 0-2.613 2.005-2.951 2.867-.18.461-.652.749-1.11.749-.494-.005-.922-.311-1.091-.778-.307-.854-1.198-2.838-2.828-2.838-2.067 0-3.083 3.298-3.093 3.331-.127.437-.527.722-.961.722M329 43.053c-.091 0-.184-.013-.277-.039-.53-.153-.835-.705-.684-1.234.056-.196 1.407-4.78 5.015-4.78 1.954 0 3.209 1.322 3.957 2.566.783-1.243 2.075-2.566 4.023-2.566 1.575 0 2.966.915 3.957 2.559 1.038-1.644 2.453-2.559 4.023-2.559 3.624 0 4.842 4.481 4.893 4.671.14.534-.18 1.081-.714 1.221-.534.14-1.081-.179-1.221-.713-.008-.029-.876-3.179-2.958-3.179-1.603 0-2.566 1.925-2.906 2.753-.191.466-.637.765-1.138.765h-.016c-.508-.007-.953-.319-1.135-.794-.31-.82-1.203-2.724-2.785-2.724-1.65 0-2.613 2.005-2.951 2.867-.18.461-.652.749-1.11.749-.494-.005-.922-.311-1.091-.778-.307-.854-1.198-2.838-2.828-2.838-2.067 0-3.083 3.298-3.093 3.331-.127.437-.527.722-.961.722M190 52.053c-.091 0-.184-.013-.277-.039-.53-.153-.835-.705-.684-1.234.056-.196 1.407-4.78 5.015-4.78 1.954 0 3.209 1.322 3.957 2.566.783-1.243 2.075-2.566 4.023-2.566 1.575 0 2.966.915 3.957 2.559 1.038-1.644 2.453-2.559 4.023-2.559 3.624 0 4.842 4.481 4.893 4.671.14.534-.18 1.081-.714 1.221-.534.14-1.081-.179-1.221-.713-.008-.029-.876-3.179-2.958-3.179-1.603 0-2.566 1.925-2.906 2.753-.191.466-.637.765-1.138.765h-.016c-.508-.007-.953-.319-1.135-.794-.31-.82-1.203-2.724-2.785-2.724-1.65 0-2.613 2.005-2.951 2.867-.18.461-.652.749-1.11.749-.494-.005-.922-.311-1.091-.778-.307-.854-1.198-2.838-2.828-2.838-2.067 0-3.083 3.298-3.093 3.331-.127.437-.527.722-.961.722M84 7.053c-.091 0-.184-.013-.277-.039-.53-.153-.835-.705-.684-1.234.056-.196 1.407-4.78 5.015-4.78 1.954 0 3.209 1.322 3.957 2.566C92.794 2.323 94.086 1 96.034 1c1.575 0 2.966.915 3.957 2.559C101.029 1.915 102.444 1 104.014 1c3.624 0 4.842 4.481 4.893 4.671.14.534-.18 1.081-.714 1.221-.534.14-1.081-.179-1.221-.713-.008-.029-.876-3.179-2.958-3.179-1.603 0-2.566 1.925-2.906 2.753-.191.466-.637.765-1.138.765h-.016c-.508-.007-.953-.319-1.135-.794C98.509 4.904 97.616 3 96.034 3c-1.65 0-2.613 2.005-2.951 2.867-.18.461-.652.749-1.11.749-.494-.005-.922-.311-1.091-.778C90.575 4.984 89.684 3 88.054 3c-2.067 0-3.083 3.298-3.093 3.331-.127.437-.527.722-.961.722M1 50.053c-.091 0-.184-.013-.277-.039-.53-.153-.835-.705-.684-1.234C.095 48.584 1.446 44 5.054 44c1.954 0 3.209 1.322 3.957 2.566C9.794 45.323 11.086 44 13.034 44c1.575 0 2.966.915 3.957 2.559C18.029 44.915 19.444 44 21.014 44c3.624 0 4.842 4.481 4.893 4.671.14.534-.18 1.081-.714 1.221-.534.14-1.081-.179-1.221-.713-.008-.029-.876-3.179-2.958-3.179-1.603 0-2.566 1.925-2.906 2.753-.191.466-.637.765-1.138.765h-.016c-.508-.007-.953-.319-1.135-.794-.31-.82-1.203-2.724-2.785-2.724-1.65 0-2.613 2.005-2.951 2.867-.18.461-.652.749-1.11.749-.494-.005-.922-.311-1.091-.778C7.575 47.984 6.684 46 5.054 46c-2.067 0-3.083 3.298-3.093 3.331-.127.437-.527.722-.961.722M1090 19.053c-.091 0-.184-.013-.277-.039-.53-.153-.835-.705-.684-1.234.056-.196 1.407-4.78 5.015-4.78 1.954 0 3.209 1.322 3.957 2.566.783-1.243 2.075-2.566 4.023-2.566 1.575 0 2.966.915 3.957 2.559 1.038-1.644 2.453-2.559 4.023-2.559 3.624 0 4.842 4.481 4.893 4.671.14.534-.18 1.081-.714 1.221-.534.14-1.081-.179-1.221-.713-.008-.029-.876-3.179-2.958-3.179-1.603 0-2.566 1.925-2.906 2.753-.191.466-.637.765-1.138.765h-.016c-.508-.007-.953-.319-1.135-.794-.31-.82-1.203-2.724-2.785-2.724-1.65 0-2.613 2.005-2.951 2.867-.18.461-.652.749-1.11.749-.494-.005-.922-.311-1.091-.778-.307-.854-1.198-2.838-2.828-2.838-2.067 0-3.083 3.298-3.093 3.331-.127.437-.527.722-.961.722M1212 6.053c-.091 0-.184-.013-.277-.039-.53-.153-.835-.705-.684-1.234.056-.196 1.407-4.78 5.015-4.78 1.954 0 3.209 1.322 3.957 2.566.783-1.243 2.075-2.566 4.023-2.566 1.575 0 2.966.915 3.957 2.559C1229.029.915 1230.444 0 1232.014 0c3.624 0 4.842 4.481 4.893 4.671.14.534-.18 1.081-.714 1.221-.534.14-1.081-.179-1.221-.713-.008-.029-.876-3.179-2.958-3.179-1.603 0-2.566 1.925-2.906 2.753-.191.466-.637.765-1.138.765h-.016c-.508-.007-.953-.319-1.135-.794-.31-.82-1.203-2.724-2.785-2.724-1.65 0-2.613 2.005-2.951 2.867-.18.461-.652.749-1.11.749-.494-.005-.922-.311-1.091-.778-.307-.854-1.198-2.838-2.828-2.838-2.067 0-3.083 3.298-3.093 3.331-.127.437-.527.722-.961.722M1129 50.053c-.091 0-.184-.013-.277-.039-.53-.153-.835-.705-.684-1.234.056-.196 1.407-4.78 5.015-4.78 1.954 0 3.209 1.322 3.957 2.566.783-1.243 2.075-2.566 4.023-2.566 1.575 0 2.966.915 3.957 2.559 1.038-1.644 2.453-2.559 4.023-2.559 3.624 0 4.842 4.481 4.893 4.671.14.534-.18 1.081-.714 1.221-.534.14-1.081-.179-1.221-.713-.008-.029-.876-3.179-2.958-3.179-1.603 0-2.566 1.925-2.906 2.753-.191.466-.637.765-1.138.765h-.016c-.508-.007-.953-.319-1.135-.794-.31-.82-1.203-2.724-2.785-2.724-1.65 0-2.613 2.005-2.951 2.867-.18.461-.652.749-1.11.749-.494-.005-.922-.311-1.091-.778-.307-.854-1.198-2.838-2.828-2.838-2.067 0-3.083 3.298-3.093 3.331-.127.437-.527.722-.961.722M1318 52.053c-.091 0-.184-.013-.277-.039-.53-.153-.835-.705-.684-1.234.056-.196 1.407-4.78 5.015-4.78 1.954 0 3.209 1.322 3.957 2.566.783-1.243 2.075-2.566 4.023-2.566 1.575 0 2.966.915 3.957 2.559 1.038-1.644 2.453-2.559 4.023-2.559 3.624 0 4.842 4.481 4.893 4.671.14.534-.18 1.081-.714 1.221-.534.14-1.081-.179-1.221-.713-.008-.029-.876-3.179-2.958-3.179-1.603 0-2.566 1.925-2.906 2.753-.191.466-.637.765-1.138.765h-.016c-.508-.007-.953-.319-1.135-.794-.31-.82-1.203-2.724-2.785-2.724-1.65 0-2.613 2.005-2.951 2.867-.18.461-.652.749-1.11.749-.494-.005-.922-.311-1.091-.778-.307-.854-1.198-2.838-2.828-2.838-2.067 0-3.083 3.298-3.093 3.331-.127.437-.527.722-.961.722M1457 41.053c-.091 0-.184-.013-.277-.039-.53-.153-.835-.705-.684-1.234.056-.196 1.407-4.78 5.015-4.78 1.954 0 3.209 1.322 3.957 2.566.783-1.243 2.075-2.566 4.023-2.566 1.575 0 2.966.915 3.957 2.559 1.038-1.644 2.453-2.559 4.023-2.559 3.624 0 4.842 4.481 4.893 4.671.14.534-.18 1.081-.714 1.221-.534.14-1.081-.179-1.221-.713-.008-.029-.876-3.179-2.958-3.179-1.603 0-2.566 1.925-2.906 2.753-.191.466-.637.765-1.138.765h-.016c-.508-.007-.953-.319-1.135-.794-.31-.82-1.203-2.724-2.785-2.724-1.65 0-2.613 2.005-2.951 2.867-.18.461-.652.749-1.11.749-.494-.005-.922-.311-1.091-.778-.307-.854-1.198-2.838-2.828-2.838-2.067 0-3.083 3.298-3.093 3.331-.127.437-.527.722-.961.722M1552 8.053c-.091 0-.184-.013-.277-.039-.53-.153-.835-.705-.684-1.234.056-.196 1.407-4.78 5.015-4.78 1.954 0 3.209 1.322 3.957 2.566.783-1.243 2.075-2.566 4.023-2.566 1.575 0 2.966.915 3.957 2.559 1.038-1.644 2.453-2.559 4.023-2.559 3.624 0 4.842 4.481 4.893 4.671.14.534-.18 1.081-.714 1.221-.534.14-1.081-.179-1.221-.713-.008-.029-.876-3.179-2.958-3.179-1.603 0-2.566 1.925-2.906 2.753-.191.466-.637.765-1.138.765h-.016c-.508-.007-.953-.319-1.135-.794-.31-.82-1.203-2.724-2.785-2.724-1.65 0-2.613 2.005-2.951 2.867-.18.461-.652.749-1.11.749-.494-.005-.922-.311-1.091-.778-.307-.854-1.198-2.838-2.828-2.838-2.067 0-3.083 3.298-3.093 3.331-.127.437-.527.722-.961.722M1653 19.053c-.091 0-.184-.013-.277-.039-.53-.153-.835-.705-.684-1.234.056-.196 1.407-4.78 5.015-4.78 1.954 0 3.209 1.322 3.957 2.566.783-1.243 2.075-2.566 4.023-2.566 1.575 0 2.966.915 3.957 2.559 1.038-1.644 2.453-2.559 4.023-2.559 3.624 0 4.842 4.481 4.893 4.671.14.534-.18 1.081-.714 1.221-.534.14-1.081-.179-1.221-.713-.008-.029-.876-3.179-2.958-3.179-1.603 0-2.566 1.925-2.906 2.753-.191.466-.637.765-1.138.765h-.016c-.508-.007-.953-.319-1.135-.794-.31-.82-1.203-2.724-2.785-2.724-1.65 0-2.613 2.005-2.951 2.867-.18.461-.652.749-1.11.749-.494-.005-.922-.311-1.091-.778-.307-.854-1.198-2.838-2.828-2.838-2.067 0-3.083 3.298-3.093 3.331-.127.437-.527.722-.961.722M1693 50.053c-.091 0-.184-.013-.277-.039-.53-.153-.835-.705-.684-1.234.056-.196 1.407-4.78 5.015-4.78 1.954 0 3.209 1.322 3.957 2.566.783-1.243 2.075-2.566 4.023-2.566 1.575 0 2.966.915 3.957 2.559 1.038-1.644 2.453-2.559 4.023-2.559 3.624 0 4.842 4.481 4.893 4.671.14.534-.18 1.081-.714 1.221-.534.14-1.081-.179-1.221-.713-.008-.029-.876-3.179-2.958-3.179-1.603 0-2.566 1.925-2.906 2.753-.191.466-.637.765-1.138.765h-.016c-.508-.007-.953-.319-1.135-.794-.31-.82-1.203-2.724-2.785-2.724-1.65 0-2.613 2.005-2.951 2.867-.18.461-.652.749-1.11.749-.494-.005-.922-.311-1.091-.778-.307-.854-1.198-2.838-2.828-2.838-2.067 0-3.083 3.298-3.093 3.331-.127.437-.527.722-.961.722M1776 6.053c-.091 0-.184-.013-.277-.039-.53-.153-.835-.705-.684-1.234.056-.196 1.407-4.78 5.015-4.78 1.954 0 3.209 1.322 3.957 2.566.783-1.243 2.075-2.566 4.023-2.566 1.575 0 2.966.915 3.957 2.559C1793.029.915 1794.444 0 1796.014 0c3.624 0 4.842 4.481 4.893 4.671.14.534-.18 1.081-.714 1.221-.534.14-1.081-.179-1.221-.713-.008-.029-.876-3.179-2.958-3.179-1.603 0-2.566 1.925-2.906 2.753-.191.466-.637.765-1.138.765h-.016c-.508-.007-.953-.319-1.135-.794-.31-.82-1.203-2.724-2.785-2.724-1.65 0-2.613 2.005-2.951 2.867-.18.461-.652.749-1.11.749-.494-.005-.922-.311-1.091-.778-.307-.854-1.198-2.838-2.828-2.838-2.067 0-3.083 3.298-3.093 3.331-.127.437-.527.722-.961.722M1883 48.053c-.091 0-.184-.013-.277-.039-.53-.153-.835-.705-.684-1.234.056-.196 1.407-4.78 5.015-4.78 1.954 0 3.209 1.322 3.957 2.566.783-1.243 2.075-2.566 4.023-2.566 1.575 0 2.966.915 3.957 2.559 1.038-1.644 2.453-2.559 4.023-2.559 3.624 0 4.842 4.481 4.893 4.671.14.534-.18 1.081-.714 1.221-.534.14-1.081-.179-1.221-.713-.008-.029-.876-3.179-2.958-3.179-1.603 0-2.566 1.925-2.906 2.753-.191.466-.637.765-1.138.765h-.016c-.508-.007-.953-.319-1.135-.794-.31-.82-1.203-2.724-2.785-2.724-1.65 0-2.613 2.005-2.951 2.867-.18.461-.652.749-1.11.749-.494-.005-.922-.311-1.091-.778-.307-.854-1.198-2.838-2.828-2.838-2.067 0-3.083 3.298-3.093 3.331-.127.437-.527.722-.961.722M2019 28.053c-.091 0-.184-.013-.277-.039-.53-.153-.835-.705-.684-1.234.056-.196 1.407-4.78 5.015-4.78 1.954 0 3.209 1.322 3.957 2.566.783-1.243 2.075-2.566 4.023-2.566 1.575 0 2.966.915 3.957 2.559 1.038-1.644 2.453-2.559 4.023-2.559 3.624 0 4.842 4.481 4.893 4.671.14.534-.18 1.081-.714 1.221-.534.14-1.081-.179-1.221-.713-.008-.029-.876-3.179-2.958-3.179-1.603 0-2.566 1.925-2.906 2.753-.191.466-.637.765-1.138.765h-.016c-.508-.007-.953-.319-1.135-.794-.31-.82-1.203-2.724-2.785-2.724-1.65 0-2.613 2.005-2.951 2.867-.18.461-.652.749-1.11.749-.494-.005-.922-.311-1.091-.778-.307-.854-1.198-2.838-2.828-2.838-2.067 0-3.083 3.298-3.093 3.331-.127.437-.527.722-.961.722" transform="translate(7 555)"/>
                </g>
            </g>
            <g mask="url(#7ceayphwyb)">
                <g>
                    <path fill="#FFF" d="M48.282 6.26c0 2.408-4.043 4.36-9.03 4.36-4.987 0-9.03-1.952-9.03-4.36 0-2.408 4.043-4.36 9.03-4.36 4.987 0 9.03 1.952 9.03 4.36" transform="translate(346 564)"/>
                    <path fill="#FFDE00" d="M41.782 5.558c0 .715-1.133 1.294-2.53 1.294-1.398 0-2.53-.579-2.53-1.294 0-.714 1.132-1.293 2.53-1.293 1.397 0 2.53.579 2.53 1.293" transform="translate(346 564)"/>
                    <g transform="translate(346 564) translate(52.743 16.482)">
                        <mask id="drdlgs1tbd" fill="#fff">
                            <use xlink:href="#me2jrzl85c"/>
                        </mask>
                        <path fill="#FFF" d="M18.422 4.554c0 2.408-4.043 4.36-9.03 4.36-4.987 0-9.03-1.952-9.03-4.36 0-2.408 4.043-4.36 9.03-4.36 4.987 0 9.03 1.952 9.03 4.36" mask="url(#drdlgs1tbd)"/>
                    </g>
                    <path fill="#FFDE00" d="M64.664 20.334c0 .715-1.132 1.294-2.53 1.294-1.396 0-2.53-.58-2.53-1.294 0-.714 1.134-1.294 2.53-1.294 1.398 0 2.53.58 2.53 1.294" transform="translate(346 564)"/>
                    <g transform="translate(346 564) translate(16.343 .14)">
                        <mask id="be9vyv0rif" fill="#fff">
                            <use xlink:href="#h7irvj56ne"/>
                        </mask>
                        <path fill="#FFF" d="M11.988 3.37c0 1.526-2.564 2.764-5.727 2.764C3.1 6.134.535 4.896.535 3.369.535 1.842 3.1.603 6.261.603c3.163 0 5.727 1.239 5.727 2.766" mask="url(#be9vyv0rif)"/>
                    </g>
                    <path fill="#FFDE00" d="M24.208 3.063c0 .453-.718.82-1.604.82-.886 0-1.604-.367-1.604-.82 0-.453.718-.82 1.604-.82.886 0 1.604.367 1.604.82" transform="translate(346 564)"/>
                    <g transform="translate(346 564) translate(0 3.853)">
                        <mask id="yq72175ioh" fill="#fff">
                            <use xlink:href="#ac9h0w6rsg"/>
                        </mask>
                        <path fill="#FFF" d="M15.42 4.203c0 2.057-3.451 3.724-7.71 3.724C3.453 7.927 0 6.26 0 4.203 0 2.146 3.452.479 7.71.479c4.259 0 7.71 1.667 7.71 3.724" mask="url(#yq72175ioh)"/>
                    </g>
                    <path fill="#FFDE00" d="M9.87 7.457c0 .61-.967 1.105-2.16 1.105s-2.16-.495-2.16-1.105.967-1.105 2.16-1.105 2.16.495 2.16 1.105" transform="translate(346 564)"/>
                </g>
            </g>
        </g>
        <g>
            <path fill="#55E6BB" d="M93.412 78.081L20.814 156.16 241.336 156.16 191.608 93.524 141.251 53.867z" transform="translate(262 421)"/>
            <path fill="#96EACC" d="M272.892 0L230.717 32.543 136.85 156.16 566.971 156.16 479.299 73.676 434.951 46.1 386.495 92.2z" transform="translate(262 421)"/>
            <path fill="#FCFFD6" d="M272.699 0L230.717 32.543 265.679 37.278 342.453 90.146 301.843 40.973 376.595 84.321 325.853 29.539z" transform="translate(262 421)"/>
            <path fill="#55E6BB" d="M380.632 109.98L389.731 137.273 370.928 137.273 370.322 156.16 424.301 156.16 415.81 151.829 392.156 105.014 345.454 74.802z" transform="translate(262 421)"/>
            <path fill="#FCFFD6" d="M434.951 46.1L479.298 73.676 505.451 98.283 485.912 90.146 491.945 105.014 489.264 121.977 477.198 90.146 451.725 74.802 419.548 74.802 419.548 60.754z" transform="translate(262 421)"/>
            <path fill="#96EACC" d="M20.814 156.16L106.707 156.16 110.187 144.465 101.489 121.977 71.918 131.418 93.412 78.081z" transform="translate(262 421)"/>
            <path fill="#F5FFD6" d="M141.251 53.867L93.412 78.081 107.209 78.081 117.331 96.545 117.331 78.081 149.895 96.545 153.057 84.951 175.12 80.54z" transform="translate(262 421)"/>
            <g>
                <path fill="#005931" d="M496.599 51.88s-1.622-6.771 2.535-9.09c0 0-5.15-8.006 5.032-11.538 0 0-1.781-3.417.72-5.45 2.503-2.032 6.489-.078 7.272 1.329 0 0 .342-6.661 7.345-6.661 7.004 0 8.72 5.682 8.72 5.682s.398-4.228 2.38-4.228c1.982 0 4.889.396 6.079 4.228 0 0 4.096-4.756 8.456-1.454 4.36 3.304 2.247 5.815 2.247 5.815s5.02-6.607 13.345-3.04c8.325 3.568 6.533 10.043 6.24 12.818 0 0 4.965-.525 5.736 4 .77 4.528-3.082 5.298-3.082 5.298s2.215.199 2.215 2.41l-75.24-.118z" transform="translate(262 421) translate(0 104.28)"/>
                <path fill="#008A4C" d="M155.91 51.806s2.639-11.011-4.121-14.78c0 0 8.374-13.019-8.181-18.762 0 0 2.896-5.556-1.172-8.86-4.067-3.306-10.55-.127-11.822 2.16 0 0-.557-10.83-11.944-10.83s-14.18 9.239-14.18 9.239-.644-6.876-3.867-6.876-7.95.646-9.883 6.876c0 0-6.661-7.735-13.75-2.364-7.091 5.371-3.653 9.453-3.653 9.453s-8.164-10.742-21.7-4.942C38.1 17.922 41.015 28.45 41.492 32.962c0 0-8.074-.854-9.326 6.505-1.253 7.36 5.01 8.613 5.01 8.613s-3.601.324-3.601 3.92l122.336-.194z" transform="translate(262 421) translate(0 104.28)"/>
                <g transform="translate(262 421) translate(0 104.28) translate(0 26)">
                    <mask id="0klsr5cbtj" fill="#fff">
                        <use xlink:href="#vctlwoshki"/>
                    </mask>
                    <path fill="#005931" d="M61.955 25.903s1.32-5.506-2.06-7.39c0 0 4.186-6.509-4.09-9.38 0 0 1.447-2.779-.587-4.43-2.034-1.654-5.276-.065-5.91 1.08 0 0-.28-5.416-5.973-5.416-5.694 0-7.09 4.62-7.09 4.62s-.323-3.438-1.934-3.438c-1.61 0-3.975.322-4.94 3.437 0 0-3.332-3.867-6.877-1.182-3.545 2.686-1.826 4.727-1.826 4.727s-4.082-5.37-10.85-2.47-5.31 8.163-5.072 10.42c0 0-4.037-.428-4.664 3.253-.626 3.68 2.506 4.306 2.506 4.306s-1.8.162-1.8 1.96l61.167-.097z" mask="url(#0klsr5cbtj)"/>
                </g>
            </g>
        </g>
        <g transform="translate(370)">
            <g transform="translate(0 .107)">
                <mask id="7xhxp0lpil" fill="#fff">
                    <use xlink:href="#vvv4pktexk"/>
                </mask>
                <path fill="#FFF" d="M91.506 5.497c-2.922-1.146-5.945-2.091-9.05-2.821-2.517-.592-5.09-1.04-7.708-1.34-2.529-.29-5.097-.443-7.703-.443-2.605 0-5.174.154-7.702.443-2.806.32-5.559.815-8.248 1.472-3.256.794-6.418 1.826-9.468 3.076C17.204 15.899 0 37.908 0 65.938c0 28.382 42.546 64.22 42.546 64.22l47.773.468s43.771-35.842 43.771-64.688c0-28.396-17.654-50.667-42.584-60.441" mask="url(#7xhxp0lpil)"/>
            </g>
            <path fill="#BD93AD" d="M48.288 157.303c-.441 0-.826-.327-.887-.777l-2.267-16.788c-.066-.49.28-.942.77-1.01.493-.062.941.28 1.008.77l2.267 16.788c.064.49-.28.943-.77 1.009-.04.006-.08.008-.12.008M84.602 157.303c-.04 0-.082-.002-.121-.008-.49-.066-.835-.518-.77-1.01l2.267-16.787c.068-.49.513-.831 1.01-.77.49.068.835.52.769 1.01l-2.267 16.788c-.061.45-.447.777-.888.777"/>
            <g transform="translate(0 1.107)">
                <mask id="0hb4kna62n" fill="#fff">
                    <use xlink:href="#ekekhgq6xm"/>
                </mask>
                <path fill="#FFA36A" d="M91.506 4.497c8.141 6.595 30.846 24.785 30.285 55.174-.346 18.709-13.42 42.529-33.837 69.153l-.21.278h-7.942s-.064-.23.111-.353c3.603-2.54 24.412-34.21 25.134-69.813.388-19.174-9.982-38.78-22.59-57.26-2.519-.592-5.092-1.04-7.71-1.34 1.786 2.96 11.771 23.972 12.112 57.148.208 20.286-3.19 45.12-14.277 71.34-.044.104-4.428.278-4.428.278h-2.218s-4.384-.174-4.428-.278c-11.018-26.057-14.442-50.756-14.28-70.965.27-33.386 10.325-54.55 12.115-57.523-2.806.32-5.559.815-8.248 1.472C38.465 20.26 27.69 39.807 28.076 58.936c.722 35.604 21.531 67.273 25.134 69.813.175.123.111.353.111.353H45.38l-.21-.278C24.753 102.2 11.68 78.38 11.332 59.67c-.55-29.816 21.661-47.814 30.295-54.787C17.204 14.899 0 36.908 0 64.938c0 28.382 42.546 64.22 42.546 64.22l47.773.468s43.771-35.842 43.771-64.688c0-28.396-17.654-50.667-42.584-60.441" mask="url(#0hb4kna62n)"/>
            </g>
            <path fill="#BD93AD" d="M48.288 157.303c-.441 0-.826-.327-.887-.777l-2.267-16.788c-.066-.49.28-.942.77-1.01.493-.062.941.28 1.008.77l2.267 16.788c.064.49-.28.943-.77 1.009-.04.006-.08.008-.12.008M84.602 157.303c-.04 0-.082-.002-.121-.008-.49-.066-.835-.518-.77-1.01l2.267-16.787c.068-.49.513-.831 1.01-.77.49.068.835.52.769 1.01l-2.267 16.788c-.061.45-.447.777-.888.777"/>
            <mask id="h6ci0skomp" fill="#fff">
                <use xlink:href="#of5atxzuzo"/>
            </mask>
            <path fill="#FF8185" d="M42.546 139.618L90.384 139.618 90.384 130.21 42.546 130.21z" mask="url(#h6ci0skomp)"/>
            <path fill="#F5B368" d="M83.073 183.107L49.389 183.107 46.148 153.903 86.782 153.903z" mask="url(#h6ci0skomp)"/>
            <path fill="#D07F53" d="M85.734 160.418H47.223c-.276 0-.5-.224-.5-.5s.224-.5.5-.5h38.51c.277 0 .5.224.5.5s-.223.5-.5.5" mask="url(#h6ci0skomp)"/>
            <path fill="#D07F53" d="M82.088 169.657c-1.07 0-2.285-.463-3.271-1.25-1.083-.864-1.915-2.126-2.542-3.86-1.096-3.026-1.45-6.732-1.05-11.014.026-.275.27-.482.545-.452.275.026.477.27.45.545-.384 4.134-.05 7.694.995 10.58.563 1.556 1.29 2.674 2.225 3.42.824.657 1.862 1.044 2.715 1.03 1.33-.034 2.255-1.167 2.64-2.128.753-1.872.679-4.014.606-6.086-.024-.71-.05-1.414-.042-2.107.012-1.368-.03-2.808-.124-4.402-.017-.275.193-.512.469-.528.275-.02.512.192.529.469.097 1.616.138 3.079.126 4.47-.007.679.018 1.369.042 2.063.076 2.176.154 4.426-.677 6.494-.5 1.242-1.728 2.709-3.544 2.755h-.092M48.862 178.031L49.389 183.107 83.073 183.107 83.676 178.031z" mask="url(#h6ci0skomp)"/>
            <path fill="#FF3340" d="M42.546 139.618s.979 2.616 3.602 2.445c2.623-.17 2.623-1.871 2.623-1.871s.765 1.972 2.467 1.879c1.7-.093 2.095-1.88 2.095-1.88s.03 1.724 2.499 1.884c2.467.159 2.212-2.053 2.212-2.053s.34 1.91 2.892 2.06c2.552.152 2.637-2.06 2.637-2.06s-.085 1.925 2.042 2.068c2.127.144 2.977-1.325 2.977-1.898 0 0 .086 1.945 2.723 1.908 2.637-.037 2.212-2.078 2.212-2.078s.34 2.03 3.147 2.078c2.808.048 2.91-1.993 2.91-1.993s.803 2.028 2.945 1.994c2.142-.033 2.767-1.774 2.767-1.774s.892 1.853 2.944 1.774c2.053-.078 2.144-2.483 2.144-2.483H42.546z" mask="url(#h6ci0skomp)"/>
            <path fill="#FFA46E" d="M36.669 8.122c-1.06.36-.852 1.918.265 1.997 7.159.506 20.983 1.39 30.256 1.39 9.282 0 22.45-1.157 29.22-1.818 1.109-.108 1.279-1.648.222-2C91.015 5.818 83.878 1 67.19 1 50.255 1 42.653 6.093 36.669 8.122" mask="url(#h6ci0skomp)"/>
            <path fill="#D07F53" d="M54.438 164.128h-3.387c-.552 0-1-.448-1-1s.448-1 1-1h3.387c.552 0 1 .448 1 1s-.448 1-1 1M57.76 167.239h-3.386c-.552 0-1-.448-1-1s.448-1 1-1h3.387c.552 0 1 .448 1 1s-.448 1-1 1M61.95 164.128h-3.388c-.552 0-1-.448-1-1s.448-1 1-1h3.387c.552 0 1 .448 1 1s-.448 1-1 1M81.952 164.128h-3.388c-.552 0-1-.448-1-1s.448-1 1-1h3.388c.552 0 1 .448 1 1s-.448 1-1 1M67.15 173.065h-3.386c-.552 0-1-.448-1-1s.448-1 1-1h3.387c.552 0 1 .448 1 1s-.448 1-1 1M54.986 174.492h-3.388c-.552 0-1-.448-1-1s.448-1 1-1h3.388c.552 0 1 .448 1 1s-.448 1-1 1M60.69 170.157h-3.386c-.552 0-1-.448-1-1s.448-1 1-1h3.387c.552 0 1 .448 1 1s-.448 1-1 1" mask="url(#h6ci0skomp)"/>
            <path fill="#FF8185" d="M45.344 158.768s-10.611 8.904-3.938 12.473c6.672 3.569 6.053-6.267 6.053-6.267l-.623-8.855c-.022-.313-.284-.555-.597-.554l-2.202.012c-.337 0-.54.377-.354.659l1.66 2.532z" mask="url(#h6ci0skomp)"/>
            <path fill="#FFED85" d="M51.116 160.975s2.16-2.967 1.548-3.381c-.611-.414-5.818-.639-6.457-.287-.64.351 1.65 3.635 1.65 3.635s-6.42 8.031-3.291 12.1c3.129 4.069 9.529 2.082 10.298-.864.768-2.946-2.26-9.32-3.748-11.203" mask="url(#h6ci0skomp)"/>
            <path fill="#D07F53" d="M50.487 161.393h-1.733c-.277 0-.5-.224-.5-.5s.223-.5.5-.5h1.733c.276 0 .5.224.5.5s-.224.5-.5.5" mask="url(#h6ci0skomp)"/>
            <path fill="#FF8235" d="M48.978 176.06l-.031-.001c-1.229-.102-3.51-.655-4.975-3.23-2.286-4.018 3.343-11.78 3.584-12.109.121-.166.356-.204.524-.08.167.122.203.357.081.524-.057.077-5.584 7.697-3.537 11.294 1.23 2.161 3.063 2.744 4.384 2.852.207.017.36.198.343.405-.016.196-.18.345-.373.345" mask="url(#h6ci0skomp)"/>
        </g>
        <g>
            <g transform="translate(316 139) translate(0 .467)">
                <mask id="agfrlrx2vr" fill="#fff">
                    <use xlink:href="#yn3gxxpmpq"/>
                </mask>
                <path fill="#80E0B5" d="M34.478 1.69c3.433 2.367 13.06 9.683 13.768 21.758.436 7.434-4.022 17.286-11.308 28.476l-.075.118-3.152.243s-.032-.09.034-.144c1.352-1.118 8.639-14.322 7.835-28.472C41.146 16.05 36.37 7.794 30.8.847 29.783.69 28.749.59 27.7.551c.8 1.12 5.314 7.961 6.465 21.115.704 8.044.269 19.986-3.327 30.73-.014.042-1.748.245-1.748.245l-.25.02-.382.03-.25.02s-1.743.063-1.764.023c-5.17-10.002-7.44-21.68-7.993-29.705-.916-13.256 2.518-20.772 3.137-22.006-1.103.213-2.181.494-3.228.836-4.446 7.71-8.062 16.59-7.322 24.168 1.377 14.105 10.604 26.035 12.11 26.932.074.043.056.137.056.137l-3.152.243-.091-.104c-8.917-9.939-14.835-18.99-15.545-26.403-1.132-11.815 7.069-20.43 10.282-23.46C5.313 8.091-.778 18.145.08 29.268.95 40.53 18.93 53.45 18.93 53.45L37.9 52.17s16.27-15.563 15.388-27.008c-.87-11.268-8.618-20.358-18.81-23.473" mask="url(#agfrlrx2vr)"/>
            </g>
            <path fill="#FFF" d="M4.416 27.3c.71 7.412 6.628 16.463 15.545 26.402l.09.104 3.153-.243s.018-.093-.055-.137C21.642 52.53 12.415 40.6 11.038 26.494c-.74-7.578 2.876-16.458 7.322-24.167-1.267.415-2.49.921-3.662 1.511C11.485 6.87 3.284 15.485 4.416 27.3M41.58 24.137c.803 14.149-6.484 27.353-7.835 28.472-.066.054-.034.143-.034.143l3.152-.243.074-.117c7.286-11.19 11.745-21.042 11.31-28.476-.71-12.076-10.337-19.392-13.77-21.759-1.194-.366-2.422-.648-3.677-.843 5.57 6.947 10.346 15.202 10.78 22.823" transform="translate(316 139)"/>
            <g transform="translate(316 139) translate(18 .467)">
                <mask id="7j63gv6hmt" fill="#fff">
                    <use xlink:href="#1d56rzeyds"/>
                </mask>
                <path fill="#FFF" d="M8.444 52.735c.021.04 1.765-.025 1.765-.025l.25-.02.382-.03.25-.018s1.732-.203 1.747-.246c3.596-10.744 4.03-22.686 3.327-30.73C15.013 8.514 10.5 1.673 9.7.553 8.69.514 7.664.532 6.631.612c-1.034.08-2.049.22-3.043.412-.62 1.234-4.053 8.75-3.137 22.005.554 8.024 2.823 19.704 7.993 29.706" mask="url(#7j63gv6hmt)"/>
            </g>
            <path fill="#BD93AD" d="M22.036 64.468c-.175.014-.338-.104-.376-.281l-1.414-6.592c-.04-.193.082-.382.275-.424.194-.04.382.082.424.274l1.413 6.592c.041.193-.082.383-.274.424-.016.004-.032.006-.048.007M36.446 63.356h-.048c-.198-.011-.348-.18-.337-.376l.386-6.731c.011-.197.177-.346.377-.336.197.01.346.18.336.377l-.385 6.73c-.011.18-.154.322-.33.336" transform="translate(316 139)"/>
            <path fill="#A3E896" d="M38.199 56.161L19.216 57.626 18.927 53.893 37.91 52.428z" transform="translate(316 139)"/>
            <g transform="translate(316 139) translate(21 61.467)">
                <mask id="163pr61rdv" fill="#fff">
                    <use xlink:href="#798mo99ilu"/>
                </mask>
                <path fill="#F5B368" d="M15.691 12.968L2.325 14 0.083 1.718 16.207 0.473z" mask="url(#163pr61rdv)"/>
            </g>
        </g>
        <g>
            <path fill="#00AE13" d="M322.094 155c-.1 0-.2-.013-.301-.04-.58-.16-.917-.744-.75-1.304.056-.19 1.42-4.656 5.083-4.656 1.919 0 3.172 1.203 3.938 2.38.798-1.174 2.085-2.38 4-2.38 1.56 0 2.94.847 3.937 2.374 1.043-1.527 2.446-2.374 4.001-2.374 3.68 0 4.911 4.369 4.962 4.554.153.564-.196 1.14-.78 1.288-.585.146-1.18-.189-1.334-.752-.007-.027-.853-2.981-2.848-2.981-1.535 0-2.47 1.807-2.8 2.584-.206.483-.684.793-1.222.793h-.018c-.546-.007-1.024-.33-1.219-.824-.302-.769-1.167-2.553-2.68-2.553-1.58 0-2.515 1.883-2.843 2.692-.197.481-.667.792-1.2.78-.532-.008-.992-.327-1.174-.812-.299-.8-1.161-2.66-2.72-2.66-2 0-2.973 3.095-2.983 3.126-.136.463-.574.765-1.05.765" transform="translate(1263 485)"/>
            <g>
                <path fill="#51B300" d="M88.909 9.833c-5.584-.273-10.827 8.544-14.612 17.204-.23-3.585.606-7.563 1.314-12.17.958-6.242-3.047-16.726-12.76-11.771C55.67 6.76 58.524 26.469 60.5 36.495c-2.741-2.97-4.376-7.233-6.61-12.1-2.633-5.74-11.746-12.3-17.135-2.828-5.388 9.471 20.711 33.392 20.711 33.392 10.537 6.81 11.766 1.229 10.182-5.344.274.046.54.054.801.015 2.01 10.636 16.432-5.707 17.233-9.808.914-4.682 4.49-8.498 8.43-13.435 3.941-4.939 5.691-16.023-5.202-16.554" transform="translate(1263 485) translate(0 58)"/>
                <path fill="#03894C" d="M202.591.361s26.364-1.33 45.626 23.097c0 0 5.206-14.268 29.26-11.554 24.053 2.713 27.3 28.489 24.053 34.48 0 0 23.132-1.282 20.292 27.525H149.105s-13.024-31.485 15.438-39.665c0 0 11.87-31.96 38.048-33.883" transform="translate(1263 485) translate(0 58)"/>
                <g transform="translate(1263 485) translate(0 58) translate(204.047 44.342)">
                    <mask id="nafics1vnx" fill="#fff">
                        <use xlink:href="#c4katnltvw"/>
                    </mask>
                    <path fill="#03894C" d="M1.257 67.272s-3.45-14.385 5.39-19.31c0 0-10.952-17.006 10.7-24.51 0 0-3.787-7.258 1.532-11.576C24.2 7.558 32.678 11.71 34.34 14.7c0 0 .729-14.148 15.62-14.148 14.893 0 18.546 12.07 18.546 12.07s.843-8.984 5.058-8.984 10.396.843 12.925 8.983c0 0 8.71-10.105 17.983-3.087 9.272 7.016 4.777 12.35 4.777 12.35s10.677-14.035 28.38-6.456c17.702 7.578 13.89 21.332 13.267 27.226 0 0 10.559-1.115 12.197 8.5 1.639 9.614-6.553 11.252-6.553 11.252s4.71.422 4.71 5.12L1.257 67.272z" mask="url(#nafics1vnx)"/>
                </g>
                <path fill="#076B64" d="M50.75 52.482s31.998-10.93 41.262 21.342c0 0 25.536-.676 28.286 18.757 2.75 19.432-20.643 19.432-20.643 19.432H5.622s-11.118-9.85-2.084-24.89c9.032-15.038 25.245-7.403 25.245-7.403s5.949-22.085 21.966-27.238" transform="translate(1263 485) translate(0 58)"/>
                <path fill="#58D365" d="M107.51 62.313s6.94 10.33 18.316 3.395c0 0 1.46-12.284-13.63-13.427-15.09-1.143-4.687 10.032-4.687 10.032M100.737 36.585s7.56-9.89-2.675-18.417c0 0-12.114 2.572-8.341 17.21 3.772 14.641 11.016 1.207 11.016 1.207" transform="translate(1263 485) translate(0 58)"/>
                <path fill="#17A600" d="M80.387 56.797s-12.404-1.13-14.185 12.062c0 0 8.623 8.877 19.025-2.103s-4.84-9.959-4.84-9.959" transform="translate(1263 485) translate(0 58)"/>
                <path fill="#007641" d="M87.24 40.832s-16.103-9.251-26.991 2.49c0 0 7.022 14.255 24.854 10.646 17.832-3.61 2.137-13.136 2.137-13.136" transform="translate(1263 485) translate(0 58)"/>
                <path fill="#FFF" d="M108.383 42.51c-.247-.025-.284-.358-.053-.45 6.673-2.636 6.446-10.021-.538-13.902-6.467-3.596-10.64 3.57-11.565 5.376-.063.123-.245.113-.284-.018-1.043-3.46-9.576-7.751-12.904-.854-2.756 5.714 2.843 9.363 5.244 10.615.158.083.08.315-.098.295-6.698-.736-14.34 2.374-9.362 10.668 3.188 5.312 8.32 2.027 10.155.588.194-.153.467.033.394.27-.792 2.597-2.508 10.378 4.826 11.76 8.47 1.596 11.187-6.2 9.098-10.442-.073-.148.072-.305.217-.226 2.087 1.147 9.985 4.9 11.992-2.753 2.37-9.03-4.277-10.646-7.122-10.928" transform="translate(1263 485) translate(0 58)"/>
                <path fill="#FFB300" d="M95.803 54.267c-.033 0-.066-.002-.1-.007-.392-.054-.664-.415-.61-.806.016-.116.398-2.831.854-4.021.142-.37.556-.554.925-.412.37.14.554.554.412.923-.33.863-.67 2.968-.773 3.707-.05.357-.356.616-.708.616" transform="translate(1263 485) translate(0 58)"/>
                <path fill="#FB0" d="M104.014 49.009c-.123 0-.248-.032-.362-.099-2.382-1.397-4.557-1.683-4.578-1.686-.393-.05-.67-.407-.621-.799.049-.393.409-.669.8-.62.1.012 2.49.327 5.124 1.872.34.2.455.638.255.98-.133.225-.373.352-.618.352M99.446 43.244c-.055 0-.11-.006-.164-.018-.385-.09-.624-.475-.534-.86.033-.14.823-3.43 2.908-5.718.266-.292.719-.314 1.012-.047.292.265.313.718.047 1.01-1.837 2.016-2.566 5.05-2.573 5.082-.078.329-.371.551-.696.551" transform="translate(1263 485) translate(0 58)"/>
                <path fill="#FFB300" d="M87.478 49.584c-.313 0-.601-.206-.69-.522-.105-.382.118-.776.499-.881.628-.176 6.177-1.688 7.555-1.696.395.003.712.327.709.722-.005.395-.303.727-.723.708h-.011c-.904 0-4.857 1.006-7.146 1.643-.064.018-.129.026-.193.026" transform="translate(1263 485) translate(0 58)"/>
                <path fill="#FB0" d="M94.83 48.25c1.197 1.009 3.014.71 4.131-.356 1.31-1.251 1.723-3.584.552-5.065-1.591-2.008-4.696-.788-5.7 1.146-.622 1.195-.256 2.749.632 3.876.119.15.248.283.385.399" transform="translate(1263 485) translate(0 58)"/>
                <path fill="#FFB300" d="M94.338 42.93c-.126 0-.255-.034-.37-.105-1.58-.956-3.623-4.056-3.85-4.407-.216-.33-.122-.773.209-.989.333-.215.775-.121.99.21.57.876 2.292 3.296 3.394 3.965.338.204.446.644.24.983-.135.22-.37.343-.613.343" transform="translate(1263 485) translate(0 58)"/>
                <path fill="#58D365" d="M261.603 59.463s6.37 8.534 16.806 2.804c0 0 1.34-10.147-12.505-11.09-13.846-.945-4.301 8.286-4.301 8.286M255.39 38.21s6.935-8.17-2.456-15.213c0 0-11.113 2.123-7.652 14.217 3.46 12.094 10.107.996 10.107.996" transform="translate(1263 485) translate(0 58)"/>
                <path fill="#17A600" d="M236.718 54.907s-11.382-.935-13.016 9.964c0 0 7.913 7.334 17.456-1.738 9.545-9.07-4.44-8.226-4.44-8.226" transform="translate(1263 485) translate(0 58)"/>
                <path fill="#007641" d="M243.006 41.718s-14.776-7.642-24.765 2.058c0 0 6.443 11.775 22.804 8.794 16.36-2.981 1.96-10.852 1.96-10.852" transform="translate(1263 485) translate(0 58)"/>
                <path fill="#FFF" d="M262.405 43.104c-.227-.02-.261-.296-.05-.371 6.123-2.177 5.915-8.278-.492-11.484-5.934-2.97-9.765 2.949-10.613 4.441-.057.101-.224.094-.26-.015-.956-2.859-8.786-6.404-11.839-.705-2.529 4.72 2.608 7.734 4.812 8.769.145.067.072.26-.09.244-6.147-.609-13.158 1.96-8.59 8.812 2.924 4.387 7.632 1.675 9.317.484.178-.125.428.028.362.224-.727 2.145-2.302 8.573 4.427 9.714 7.772 1.32 10.266-5.12 8.348-8.625-.066-.122.067-.252.2-.186 1.914.948 9.16 4.046 11.003-2.274 2.175-7.461-3.925-8.795-6.535-9.028" transform="translate(1263 485) translate(0 58)"/>
                <path fill="#FFB300" d="M250.862 52.942c-.036 0-.074-.003-.11-.009-.39-.06-.659-.425-.599-.816.038-.24.376-2.377.796-3.362.155-.363.574-.534.94-.378.363.154.533.574.378.938-.297.697-.605 2.417-.698 3.021-.055.353-.36.606-.707.606M258.396 48.598c-.113 0-.227-.027-.334-.083-2.17-1.146-4.179-1.39-4.199-1.393-.391-.045-.674-.4-.628-.792.045-.391.403-.675.79-.628.093.01 2.287.27 4.706 1.548.35.185.483.617.298.967-.128.243-.376.38-.633.38M254.204 43.836c-.06 0-.121-.008-.182-.024-.382-.1-.61-.49-.511-.872.03-.116.767-2.874 2.703-4.789.282-.276.735-.276 1.013.006.278.28.276.733-.005 1.011-1.653 1.633-2.32 4.11-2.326 4.134-.084.32-.375.534-.692.534M243.224 49.073c-.32 0-.612-.217-.694-.541-.097-.383.137-.772.52-.868.575-.143 5.626-1.4 6.914-1.4h.016c.395.003.713.326.71.722-.004.392-.324.708-.716.708h-.017c-.83 0-4.458.831-6.559 1.358-.057.014-.116.021-.174.021" transform="translate(1263 485) translate(0 58)"/>
                <path fill="#FB0" d="M249.97 47.846c1.098.833 2.764.587 3.79-.295 1.202-1.032 1.58-2.96.505-4.183-1.459-1.658-4.308-.65-5.23.947-.57.986-.234 2.27.581 3.201.11.125.227.234.353.33" transform="translate(1263 485) translate(0 58)"/>
                <path fill="#FFB300" d="M249.518 43.576c-.116 0-.233-.028-.343-.087-1.462-.8-3.35-3.376-3.56-3.667-.232-.32-.16-.767.162-.999.322-.23.768-.158.999.162.52.718 2.087 2.702 3.086 3.248.347.19.475.624.285.97-.13.238-.375.373-.629.373" transform="translate(1263 485) translate(0 58)"/>
                <path fill="#00C275" d="M81.536 96.04s6.264 9.322 16.528 3.064c0 0 1.319-11.084-12.298-12.115-13.617-1.032-4.23 9.051-4.23 9.051M53.572 94.394s-16.674 1.712-18.447 16.044c0 0 12.667 6.738 23.818-5.3 11.15-12.037-5.37-10.744-5.37-10.744" transform="translate(1263 485) translate(0 58)"/>
                <path fill="#17A600" d="M64.17 81.53S53.239 64.448 36.756 70.337c0 0-.398 17.354 18.706 22.848 19.105 5.493 8.71-11.653 8.71-11.653" transform="translate(1263 485) translate(0 58)"/>
                <path fill="#17A600" d="M73.905 112.459c-.589 0-1.068-.474-1.074-1.063-.069-7.804-7.336-20.172-7.41-20.296-.301-.51-.133-1.168.378-1.47.512-.3 1.17-.132 1.471.377.312.527 7.634 12.988 7.709 21.37.006.592-.471 1.076-1.064 1.082h-.01z" transform="translate(1263 485) translate(0 58)"/>
                <path fill="#FFF" d="M77.216 89.092c-.178-.135-.047-.409.173-.369 6.371 1.155 9.719-4.613 6.218-10.91-3.243-5.834-9.858-2.327-11.429-1.382-.106.063-.24-.03-.209-.15.852-3.147-3.642-10.497-9.482-6.793-4.836 3.067-2.285 8.528-1.041 10.63.081.139-.09.278-.217.18-4.781-3.752-12.121-5.004-12.261 3.72-.09 5.589 5.409 5.512 7.502 5.282.222-.024.342.249.174.395-1.846 1.615-6.87 6.76-1.909 11.308 5.73 5.255 11.53.573 11.951-3.672.015-.148.202-.2.275-.07 1.052 1.872 5.316 8.505 10.503 3.596 6.122-5.793 1.798-10.195-.248-11.765" transform="translate(1263 485) translate(0 58)"/>
                <path fill="#FFB300" d="M60.858 94.737c-.162 0-.325-.054-.458-.165-.304-.253-.346-.705-.092-1.008.067-.08 1.66-1.987 2.584-2.686.315-.239.764-.177 1.003.137.239.315.177.763-.138 1.002-.659.5-1.92 1.947-2.349 2.463-.141.17-.345.257-.55.257M72.545 93.999c-.257 0-.506-.139-.634-.383-1.145-2.176-2.673-3.438-2.688-3.45-.305-.25-.352-.7-.103-1.006.25-.306.7-.352 1.006-.104.072.058 1.764 1.446 3.052 3.895.184.35.05.782-.3.966-.106.055-.22.082-.333.082M71.183 85.765c-.104 0-.21-.023-.31-.071-.356-.172-.506-.6-.334-.955.05-.104 1.253-2.568 2.985-3.658.335-.21.776-.11.987.223.211.334.11.776-.224.987-1.38.869-2.448 3.048-2.459 3.07-.123.255-.379.404-.645.404M61.565 85.807c-.132 0-.265-.036-.383-.112-.64-.405-2.69-.85-3.831-1.035-.39-.063-.656-.43-.593-.82.063-.391.431-.657.822-.592.332.054 3.277.547 4.37 1.24.333.212.432.654.22.987-.137.215-.368.332-.605.332M66.042 81.307c-.373 0-.687-.289-.713-.667l-.388-5.674c-.028-.394.27-.736.665-.763.4-.014.736.271.763.665l.389 5.675c.026.394-.272.735-.666.763l-.05.001" transform="translate(1263 485) translate(0 58)"/>
                <path fill="#FB0" d="M70.24 86.663c0 2.149-1.743 3.89-3.894 3.89s-3.895-1.741-3.895-3.89 1.744-3.528 3.895-3.528 3.894 1.38 3.894 3.528" transform="translate(1263 485) translate(0 58)"/>
                <path fill="#58D365" d="M289.564 105.28s10.763 3.05 14.524-8.301c0 0-6.141-9.265-17.145-1.292-11.003 7.972 2.621 9.592 2.621 9.592" transform="translate(1263 485) translate(0 58)"/>
                <path fill="#17A600" d="M279.847 100.973s-8.102-8.332-16.675-3.134c0 0 1.775 9.786 13.129 10.674 11.353.887 3.546-7.54 3.546-7.54" transform="translate(1263 485) translate(0 58)"/>
                <path fill="#17A600" d="M282.441 112.066c-.542 0-1.008-.409-1.067-.96-.816-7.664 4.175-30.866 4.388-31.85.125-.579.696-.949 1.276-.821.58.124.949.695.824 1.274-.052.238-5.132 23.847-4.351 31.17.062.59-.365 1.118-.955 1.18-.038.005-.077.007-.115.007" transform="translate(1263 485) translate(0 58)"/>
                <path fill="#FFF" d="M290.313 82.744c.041-.22.343-.226.406-.013 1.839 6.17 8.472 6.547 12.496.608 3.726-5.5-2.365-9.791-3.911-10.759-.105-.066-.083-.227.038-.252 3.182-.661 7.693-7.953 1.775-11.467-4.901-2.91-8.61 1.808-9.919 3.856-.086.135-.287.045-.257-.11 1.185-5.93-1.002-13.004-8.822-9.204-5.007 2.433-2.468 7.277-1.32 9.03.12.186-.067.416-.273.332-2.266-.912-9.1-3.054-10.913 3.392-2.093 7.447 4.677 10.486 8.64 8.95.14-.053.269.089.186.212-1.191 1.776-5.17 8.54 1.527 10.935 7.904 2.825 9.871-2.99 10.347-5.51" transform="translate(1263 485) translate(0 58)"/>
                <path fill="#FFB300" d="M281.972 72.195c-.106 0-.212-.023-.313-.073-.74-.36-2.593-.826-3.244-.976-.386-.089-.627-.472-.538-.857.089-.384.473-.625.858-.537.102.024 2.512.58 3.55 1.084.356.174.504.601.33.957-.123.254-.378.402-.643.402M284.485 81.2c-.143 0-.288-.043-.414-.134-.322-.228-.397-.675-.168-.996 1.43-2.009 1.853-3.915 1.858-3.933.083-.387.462-.635.85-.549.387.084.633.465.55.85-.02.09-.493 2.215-2.091 4.461-.14.196-.36.3-.585.3M295.544 79.292c-.126 0-.252-.033-.368-.101-1.603-.96-4.295-2.958-4.41-3.043-.316-.236-.382-.684-.146-1 .236-.317.684-.383 1.002-.147.027.02 2.747 2.04 4.29 2.962.339.203.45.643.247.982-.134.223-.372.347-.615.347M286.832 67.776c-.023 0-.047-.002-.07-.004-.393-.038-.682-.388-.643-.78.072-.748-.454-2.767-.803-3.864-.12-.376.089-.778.466-.898.374-.12.78.088.899.465.101.32.987 3.153.863 4.435-.036.369-.348.646-.712.646M292.846 69.724c-.244 0-.482-.124-.616-.349-.203-.34-.09-.779.249-.98l4.87-2.897c.34-.202.78-.09.982.248.202.34.09.78-.25.982l-4.87 2.895c-.115.07-.24.101-.365.101" transform="translate(1263 485) translate(0 58)"/>
                <path fill="#FB0" d="M291.121 70.912c.554 2.067-.672 4.19-2.74 4.744-2.068.553-4.195-.672-4.749-2.738-.554-2.066.766-3.84 2.834-4.395 2.068-.554 4.1.323 4.655 2.39" transform="translate(1263 485) translate(0 58)"/>
                <path fill="#17A600" d="M321.472 84.513s7.133-.96 6.435-8.62c0 0-6.002-3.89-10.445 3.633-4.443 7.524 4.01 4.987 4.01 4.987M335.92 93.296s3.908 6.036 10.549 2.142c0 0 .965-7.082-7.741-7.89-8.707-.81-2.808 5.748-2.808 5.748" transform="translate(1263 485) translate(0 58)"/>
            </g>
            <g transform="translate(1263 485) translate(97 5)">
                <path fill="#FFF" d="M44.713 3.105C52.349 4.484 55.759 9.3 59.015 16.023c1.787 3.693 5.191 12.51-.184 15.125-5.866 2.854-8.704-5.976-11.668-8.577-3.908-3.43-8.912 1.337-13.81 6.52-3.944 4.197-10.584 4.524-14.839.723-4.256-3.798-4.552-10.257-.65-14.474 7.54-8.146 16.12-14.17 26.849-12.235M107.666 3.298c-7.645 1.33-11.083 6.126-14.38 12.83-1.81 3.681-5.268 12.478.09 15.125 5.85 2.89 8.742-5.922 11.72-8.505 3.93-3.406 8.905 1.39 13.771 6.605 3.918 4.22 10.557 4.587 14.834.812 4.28-3.773 4.616-10.23.739-14.47-7.49-8.192-16.034-14.267-26.774-12.397"/>
                <path fill="#0497EB" d="M78.748 19.708L78.808 17.248 79.124 17.254 79.07 19.716z"/>
                <path fill="#00709C" d="M78.854 16.018l-.12 4.921.438.006.14-4.92-.458-.007zm-.056 2.46l.438.006-.438-.006z"/>
                <g transform="translate(1.434 17.172)">
                    <mask id="hfyu1brk3z" fill="#fff">
                        <use xlink:href="#982bizbzcy"/>
                    </mask>
                    <path fill="#00A2FC" d="M72.886 214.122l-.272-1.228-.005 1.231c-2.391-.007-4.799-.11-7.156-.31-24.532-2.074-41.238-12.029-48.317-28.79-6.571-15.555-5.023-32.185-2.938-44.936.424-2.59 1.141-5.293 1.903-8.155.823-3.095 1.673-6.289 2.138-9.382l-3.4-1.448-.126-.642c-.464-2.42-2.354-5.676-4.185-8.826-1.53-2.637-2.976-5.125-3.689-7.25-4.813-14.344-8.817-28.634-4.983-45.724 1.794-7.983 7.38-27.706 20.529-38.39C38.195 7.428 56.11.063 71.533.063l6.133.019c15.49.01 33.457 7.483 49.294 20.51 13.082 10.762 18.548 30.518 20.29 38.512 3.921 17.984-.16 31.854-5.903 48.12-.566 1.603-1.406 3.429-2.295 5.364-1.596 3.474-3.407 7.412-3.676 10.353l-.07.755-.528.207.007.028c.243 1.067.487 2.137.672 3.21.523 2.995 1.178 6.042 1.813 8.986 1.303 6.06 2.652 12.325 2.964 18.664.586 11.813-2.33 28.218-10.158 38.239-9.155 11.716-25.611 19.312-45.149 20.843-2.239.177-4.584.266-6.968.266l-5.073-.017z" mask="url(#hfyu1brk3z)"/>
                </g>
                <g transform="translate(0 15.741)">
                    <mask id="ufgvk7w2lB" fill="#fff">
                        <use xlink:href="#t4rum0w5oA"/>
                    </mask>
                    <path fill="#000" d="M73.54.26h-.017l-.326.005-.235-.001C57.264.264 39.068 7.73 23.04 20.75 9.59 31.674 3.907 51.715 2.088 59.823c-3.904 17.398.145 31.869 5.017 46.387.752 2.24 2.227 4.782 3.79 7.473 1.694 2.919 3.616 6.227 4.042 8.441l.248 1.285 1.205.514 1.91.814c-.475 2.736-1.226 5.56-1.957 8.308-.769 2.894-1.495 5.627-1.929 8.277-2.11 12.913-3.674 29.767 3.02 45.612 7.268 17.21 24.333 27.424 49.347 29.538 2.388.201 4.83.307 7.259.315l.204-.003 4.86.018h.28c2.412 0 4.792-.09 7.074-.27 19.884-1.558 36.658-9.327 46.023-21.314 8.024-10.272 11.015-27.017 10.419-39.057-.318-6.44-1.677-12.755-2.991-18.863-.631-2.933-1.284-5.966-1.801-8.935-.134-.769-.294-1.528-.46-2.272l.249-.097.139-1.51c.25-2.732 2.015-6.57 3.572-9.955.901-1.959 1.752-3.81 2.337-5.466 5.806-16.453 9.932-30.493 5.945-48.79-1.77-8.12-7.33-28.193-20.713-39.2C113.123 7.87 94.869.292 79.095.283L73.558.26h-.017zm.008 2.46l5.546.023c17.27.01 34.993 9.109 48.515 20.228 10.523 8.656 16.973 24.528 19.872 37.826 3.766 17.282.016 30.795-5.862 47.448-1.593 4.515-5.597 11.215-6.039 16.015l-.803.316c.31 1.4.656 2.799.901 4.209 1.594 9.144 4.3 18.186 4.76 27.497.59 11.933-2.454 27.89-9.902 37.423-10.294 13.177-28.141 19.11-44.27 20.374-2.259.177-4.61.262-6.881.262h-.271l-4.79-.018c-.09 0-.178.004-.268.004h-.008c-2.356-.008-4.712-.109-7.06-.307-19.556-1.653-39.15-8.786-47.283-28.042-5.967-14.127-5.277-29.452-2.858-44.26.925-5.651 3.39-12.24 4.173-18.495l-3.661-1.563c-.902-4.681-6.387-11.672-7.916-16.232C4.273 90.02.89 76.417 4.493 60.362c2.98-13.28 9.527-29.113 20.104-37.704C38.114 11.678 55.779 2.724 72.962 2.724l.272.001.314-.004z" mask="url(#ufgvk7w2lB)"/>
                </g>
                <mask id="i36jzlss8D" fill="#fff">
                    <use xlink:href="#wriqjdowgC"/>
                </mask>
                <path fill="#000" d="M40.717.282c-5.443 0-10.656 1.806-15.908 5.52l-.034-.003-.711.511c-4.13 2.963-6.604 5.77-7.66 6.967-.142.161-.254.288-.336.376-1.767 1.908-2.895 4.237-3.273 6.751-.635 4.195.889 8.4 4.076 11.243 2.243 2.005 5.122 3.156 8.155 3.269-.668.517-1.33 1.042-1.985 1.575C9.59 47.416 3.907 67.456 2.087 75.565c-3.903 17.396.146 31.868 5.018 46.386.751 2.241 2.228 4.783 3.79 7.472 1.695 2.92 3.616 6.228 4.042 8.443l.248 1.284 1.205.515 1.91.813c-.475 2.737-1.226 5.561-1.957 8.309-.77 2.894-1.495 5.627-1.93 8.275-2.109 12.914-3.673 29.769 3.02 45.613 7.27 17.21 24.334 27.424 49.348 29.539 2.388.201 4.83.307 7.258.315l.205-.003 4.86.017h.282c2.41 0 4.79-.09 7.072-.27 19.884-1.557 36.657-9.327 46.023-21.314 8.025-10.271 11.015-27.017 10.42-39.057-.319-6.44-1.678-12.755-2.992-18.863-.631-2.933-1.284-5.966-1.802-8.935-.134-.768-.294-1.527-.46-2.271l.25-.098.139-1.51c.25-2.731 2.015-6.57 3.572-9.954.901-1.96 1.752-3.81 2.336-5.467 5.808-16.453 9.933-30.492 5.946-48.789-1.77-8.12-7.33-28.194-20.713-39.2-.654-.538-1.313-1.068-1.978-1.59 3.017-.103 5.891-1.236 8.135-3.217 3.204-2.823 4.753-7.02 4.144-11.22-.364-2.514-1.476-4.85-3.218-6.754-.095-.103-.205-.231-.346-.391-1.049-1.205-3.505-4.026-7.618-7.016l-.72-.523-.033.002C122.27 2.333 117.025.497 111.533.497c-1.412 0-2.856.128-4.29.377-9.287 1.617-13.08 7.887-16.17 14.17-.264.536-.6 1.257-.954 2.108-3.777-.747-7.476-1.126-11.024-1.128l-5.537-.021-.361.004-.23-.002c-3.475 0-7.095.36-10.79 1.07-.348-.858-.681-1.582-.941-2.122C58.183 8.65 54.428 2.358 45.152.684 43.67.417 42.178.282 40.717.282m0 2.46c1.298 0 2.63.118 3.996.363C52.35 4.483 55.76 9.3 59.015 16.023c.482.998 1.08 2.373 1.593 3.894 4.106-.93 8.245-1.45 12.358-1.45h.268l.315-.005 5.544.022c4.189.003 8.403.55 12.578 1.52.522-1.515 1.128-2.884 1.615-3.876 3.297-6.705 6.735-11.5 14.38-12.83 1.322-.23 2.61-.34 3.868-.34 5.654 0 10.679 2.218 15.268 5.657h.003l.03.001h.01c4.512 3.28 6.907 6.338 7.594 7.077 1.454 1.59 2.316 3.491 2.599 5.447.472 3.26-.662 6.666-3.337 9.025-1.981 1.748-4.468 2.608-6.958 2.608-2.886 0-5.772-1.155-7.876-3.42l-.037-.04c-1.15-1.227-2.7-2.603-4.388-3.884.035-.122.104-.23.15-.35-2.29-2.037-4.527-3.473-6.59-3.473-1.016 0-1.989.347-2.905 1.141-.397.345-.793.804-1.195 1.328 8.596 3.692 16.715 8.888 23.707 14.638 10.523 8.656 16.973 24.528 19.872 37.825 3.766 17.283.016 30.795-5.863 47.449-1.592 4.513-5.596 11.214-6.037 16.015l-.805.315c.311 1.4.657 2.8.902 4.21 1.594 9.144 4.3 18.185 4.76 27.496.59 11.934-2.454 27.89-9.902 37.423-10.294 13.177-28.141 19.11-44.27 20.375-2.26.176-4.609.261-6.88.261h-.273l-4.789-.017-.267.002h-.01c-2.355-.006-4.71-.107-7.058-.305-19.557-1.653-39.15-8.787-47.284-28.043-5.967-14.126-5.278-29.452-2.858-44.26.924-5.651 3.39-12.24 4.173-18.496l-3.662-1.562c-.9-4.68-6.386-11.672-7.915-16.231-5.17-15.408-8.552-29.012-4.95-45.067C7.474 62.823 14.02 46.99 24.598 38.4c7.017-5.7 15.157-10.84 23.762-14.48-.4-.53-.797-.998-1.196-1.348-.92-.807-1.899-1.16-2.924-1.16-2.056 0-4.293 1.419-6.584 3.434.044.12.112.228.147.351-1.697 1.272-3.256 2.64-4.415 3.86l-.034.036c-2.102 2.235-4.967 3.373-7.83 3.373-2.512 0-5.02-.876-7.008-2.652-2.66-2.374-3.774-5.787-3.282-9.043.295-1.955 1.168-3.852 2.632-5.432.692-.735 3.105-3.777 7.638-7.03H25.545c4.576-3.387 9.57-5.566 15.172-5.566" mask="url(#i36jzlss8D)"/>
                <path fill="#FFF" d="M76.518 134.52c-6.713-.022-12.004-.039-21.974-1.014-15.069-1.478-34.229-9.494-42.815-27.57-6.295-13.255-4.64-35.999 6.172-44.08 1.074-3.527 2.024-6.238 3.067-8.744C29.793 31.915 54.69 22.426 75.45 22.426l.75.005c19.7.214 36.289 7.028 47.974 19.709 3.75 4.07 6.588 9.287 8.934 16.42.382 1.155.758 2.37 1.136 3.652 12.34 9.254 12.704 30.01 5.897 44.116-6.957 14.418-22.928 24.624-42.726 27.3-6.123.83-12.485.897-17.968.897l-2.93-.005z"/>
                <path fill="#000" d="M75.453 21.196c-29.38 0-49.106 15.792-55.623 31.443-1.016 2.442-1.95 5.083-2.994 8.48-5.155 4.036-8.583 11.282-9.688 20.536-1.047 8.76.25 18.035 3.466 24.809C19.42 125 39.018 133.219 54.422 134.729c10.035.983 15.35 1 22.08 1.02l3.02.006c5.894 0 12.161-.11 18.058-.907 20.21-2.732 36.536-13.194 43.674-27.986 3.482-7.217 5.096-16.007 4.427-24.118-.765-9.267-4.344-16.598-10.37-21.266-.342-1.152-.684-2.251-1.03-3.303-1.512-4.595-4.11-11.343-9.2-16.866C113.164 28.37 96.265 21.418 76.214 21.2l-.76-.004zm0 2.46c.244 0 .49.001.733.004 17.968.196 34.891 6.082 47.081 19.314 4.225 4.587 6.762 10.166 8.671 15.97.417 1.263.827 2.599 1.24 4.012 12.724 9.156 12.112 29.87 5.855 42.838-7.694 15.945-25.01 24.349-41.784 26.616-5.8.784-11.92.885-17.728.885-1.014 0-2.02-.004-3.013-.007-6.67-.02-11.927-.036-21.845-1.008-16.851-1.652-34.225-10.88-41.82-26.87-6.178-13.006-4.519-35.297 6.116-42.802.922-3.047 1.922-6.079 3.149-9.025 8.315-19.972 32.127-29.927 53.345-29.927z"/>
                <path fill="#FDB4AF" d="M54.242 80.929c-.625 10.785-9.029 14.33-19.05 13.7-10.022-.63-18.072-5.31-17.254-15.98.731-9.534 10.232-16.577 20.254-15.947 10.022.63 16.628 8.683 16.05 18.227M97.823 81.061c.558 10.79 8.94 14.385 18.966 13.817 10.026-.568 18.103-5.2 17.35-15.875-.672-9.538-10.13-16.638-20.155-16.07-10.025.569-16.681 8.581-16.161 18.128"/>
                <path fill="#000" d="M78.984 66.397c-.004 1.274-1.324 2.299-2.97 2.293-1.647-.005-2.969-1.037-2.965-2.31.004-1.264 1.332-2.299 2.979-2.294 1.647.005 2.96 1.048 2.956 2.311M90.394 62.115l.001-.501c.006-1.976 1.702-3.574 3.787-3.568 2.085.007 3.773 1.615 3.767 3.59l-.002.502c-.006 1.977-1.651 3.43-3.83 3.423-2.178-.006-3.73-1.47-3.723-3.446M55.329 62.115l.001-.501c.007-1.976 1.701-3.574 3.787-3.568 2.086.007 3.773 1.615 3.767 3.59l-.001.502c-.007 1.977-1.652 3.43-3.83 3.423-2.18-.006-3.73-1.47-3.724-3.446M63.51 82.21c-3.015 0-6.323-1.211-6.713-3.122-.168-.827.186-1.961 1.74-2.435.786-.237 1.607.205 1.848.983.106.347.077.702-.056 1.01.884.375 2.37.74 3.961.572 6.482-.68 8.084-2.346 9.781-4.107.275-.286.55-.57.836-.843.585-.568 1.522-.55 2.09.038.568.586.552 1.52-.038 2.086-.259.25-.507.507-.754.764-1.898 1.97-4.048 4.205-11.606 4.998-.355.039-.718.055-1.089.055"/>
                <path fill="#000" d="M88.353 82.21c-.371 0-.735-.017-1.089-.056-7.556-.793-9.706-3.025-11.603-4.996-.249-.26-.497-.516-.754-.766-.59-.565-.607-1.5-.039-2.086.566-.588 1.503-.606 2.09-.038.29.276.562.557.836.843 1.697 1.761 3.3 3.427 9.778 4.107 1.62.175 3.13-.212 4.007-.59-.128-.302-.156-.642-.055-.974.238-.779 1.028-1.238 1.8-1 1.556.473 1.91 1.607 1.742 2.434-.388 1.91-3.699 3.121-6.713 3.121"/>
                <path fill="#673101" d="M34.783 22.283c-.822-.196-1.634-.056-2.384.206.908-.556 1.61-1.436 1.88-2.536.553-2.217-.841-4.416-3.087-4.943-1.049-.237-2.087-.031-2.973.443.776-.562 1.395-1.347 1.635-2.32.553-2.217-1.475-4.286-3.734-4.802-.203-.054-.405-.011-.616-.023-4.534 3.253-6.947 6.295-7.639 7.03-3.903 4.214-3.606 10.677.655 14.475 4.249 3.798 10.888 3.47 14.833-.723 1.162-1.228 2.736-2.61 4.448-3.894-.388-1.397-1.474-2.57-3.018-2.913M117.48 22.535c.822-.191 1.633-.046 2.382.221-.905-.563-1.602-1.446-1.865-2.548-.54-2.22.869-4.411 3.117-4.924 1.05-.23 2.087-.019 2.97.461-.771-.566-1.386-1.355-1.62-2.33-.54-2.22 1.501-4.277 3.764-4.78.203-.052.405-.008.616-.018 4.513 3.28 6.908 6.336 7.595 7.075 3.877 4.238 3.542 10.7-.743 14.472-4.272 3.772-10.91 3.404-14.829-.814-1.154-1.235-2.72-2.627-4.425-3.92.397-1.395 1.49-2.562 3.037-2.895"/>
            </g>
            <g>
                <path fill="#FFF" d="M19.79 126.238c-2.64.512-5.378 1.777-7.315 3.448-11.391 9.83-11.299 39.044-9.928 41.416 5.406-5.187 13.385-2.908 22.18-3.956-.92-1.269-1.604-2.813-1.956-4.75-.696-3.829.22-7.586 1.427-11.29.934-2.872 1.355-5.62 1.841-8.588.744-4.53 2.326-17.941-6.25-16.28" transform="translate(1263 485) translate(97)"/>
                <path fill="#00709C" d="M20.025 127.447c-2.478.478-4.996 1.665-6.742 3.17-9.728 8.394-10.692 31.666-9.974 38.285 3.852-2.622 8.593-2.635 13.576-2.65 1.882-.005 3.815-.01 5.784-.15-.513-1.054-.88-2.21-1.114-3.488-.756-4.156.259-8.172 1.469-11.888.85-2.609 1.267-5.166 1.709-7.871l.089-.536c1.137-6.941.643-12.222-1.32-14.122-.828-.795-1.956-1.053-3.477-.75zM2.265 173.08l-.787-1.362c-1.815-3.143-1.663-32.734 10.19-42.962 2.056-1.773 5.005-3.166 7.885-3.726 2.328-.447 4.234.019 5.666 1.4 3.534 3.42 2.794 11.673 2.037 16.288l-.087.531c-.458 2.802-.889 5.45-1.798 8.237-1.108 3.41-2.046 7.068-1.385 10.69.3 1.658.87 3.048 1.742 4.249l1.23 1.694-2.083.247c-2.78.332-5.426.339-7.983.347-5.421.016-10.104.028-13.489 3.276l-1.137 1.091z" transform="translate(1263 485) translate(97)"/>
                <path fill="#0183C6" d="M11.71 138.933c-1.786-1.953-1.687-1.519-3.173-3.607-4.085-5.739-4.942-13.938-1.285-20.035.762-1.27 1.642-2.426 2.55-3.369 6.485-6.734 13.402-4.735 20.818-.113 3.459 2.156 6.709 4.74 9.34 7.825 4.469 5.24 8.481 12.142 7.293 18.826-1.444 8.117-14.917 42.876-33.608 40.51-6.01-.929-9.037-3.538-10.555-6.301-2.83-5.15 1.896-14.268 5.444-21.261 1.915-3.775 2.89-5.39 3.643-8.761.28-1.246.6-2.678-.466-3.714" transform="translate(1263 485) translate(97)"/>
                <path fill="#000" d="M12.599 138.079c1.528 1.513 1.08 3.512.783 4.839-.687 3.077-1.574 4.805-3.04 7.664l-.898 1.763c-3.266 6.432-7.738 15.243-5.272 19.733 1.668 3.035 4.917 4.943 9.66 5.675 17.929 2.28 30.92-32.274 32.206-39.507 1.164-6.554-3.173-13.305-7.017-17.815-2.338-2.741-5.385-5.29-9.056-7.58-8.592-5.353-14.17-5.377-19.273-.077-.855.886-1.677 1.977-2.378 3.15-3.254 5.418-2.748 13.104 1.231 18.69.897 1.264 1.147 1.512 1.693 2.051.32.318.722.716 1.361 1.414m2.887 42.238c-.66 0-1.322-.044-1.998-.127-5.572-.861-9.424-3.191-11.48-6.93-3.09-5.627 1.524-14.72 5.233-22.027l.903-1.771c1.425-2.777 2.209-4.305 2.828-7.08.282-1.252.412-2.047-.123-2.569l-.05-.052c-.613-.668-.996-1.048-1.3-1.348-.639-.635-.99-1-1.97-2.377-4.526-6.355-5.075-15.146-1.334-21.376.795-1.329 1.735-2.569 2.719-3.59 7.597-7.892 15.94-4.306 22.36-.305 3.886 2.422 7.125 5.137 9.627 8.071 4.187 4.913 8.899 12.342 7.566 19.838-1.362 7.665-14.113 41.643-32.98 41.643" transform="translate(1263 485) translate(97)"/>
                <path fill="#FFF" d="M130.783 126.238c2.64.512 5.377 1.777 7.314 3.448 11.392 9.83 11.3 39.044 9.928 41.416-5.406-5.187-13.384-2.908-22.18-3.956.921-1.269 1.604-2.813 1.956-4.75.697-3.829-.22-7.586-1.426-11.29-.934-2.872-1.355-5.62-1.842-8.588-.743-4.53-2.326-17.941 6.25-16.28" transform="translate(1263 485) translate(97)"/>
                <path fill="#00709C" d="M127.901 166.103c1.972.139 3.903.144 5.787.149 4.985.015 9.729.026 13.58 2.655.716-6.58-.241-29.889-9.978-38.291-1.746-1.504-4.264-2.688-6.742-3.169-1.504-.3-2.649-.049-3.478.752-1.965 1.903-2.458 7.182-1.319 14.12l.09.536c.44 2.705.858 5.262 1.709 7.87 1.21 3.72 2.224 7.732 1.465 11.892-.234 1.278-.6 2.43-1.114 3.486zm20.406 6.977l-1.137-1.09c-3.387-3.248-8.068-3.26-13.489-3.278-2.56-.007-5.203-.014-7.983-.346l-2.082-.248 1.23-1.693c.87-1.199 1.438-2.588 1.74-4.248.662-3.623-.276-7.28-1.384-10.692-.908-2.787-1.34-5.434-1.798-8.236l-.087-.531c-.76-4.613-1.502-12.861 2.034-16.285 1.43-1.382 3.333-1.85 5.67-1.403 2.88.56 5.827 1.953 7.884 3.726 11.854 10.229 12.005 39.819 10.19 42.962l-.788 1.362z" transform="translate(1263 485) translate(97)"/>
                <path fill="#0183C6" d="M138.862 138.933c1.787-1.953 1.687-1.519 3.174-3.607 4.084-5.739 4.942-13.938 1.284-20.035-.762-1.27-1.643-2.426-2.55-3.369-6.485-6.734-13.401-4.735-20.817-.113-3.46 2.156-6.71 4.74-9.34 7.825-4.47 5.24-8.482 12.142-7.293 18.826 1.442 8.117 14.917 42.876 33.607 40.51 6.01-.929 9.037-3.538 10.555-6.301 2.83-5.15-1.896-14.268-5.444-21.261-1.914-3.775-2.89-5.39-3.643-8.761-.279-1.246-.599-2.678.467-3.714" transform="translate(1263 485) translate(97)"/>
                <path fill="#000" d="M131.594 108.82c-3.116 0-6.674 1.342-10.989 4.03-3.668 2.29-6.715 4.84-9.053 7.58-3.845 4.509-8.183 11.26-7.019 17.817 1.288 7.232 14.34 41.801 32.239 39.502 4.711-.728 7.961-2.636 9.628-5.67 2.466-4.491-2.005-13.302-5.27-19.734l-.9-1.763c-1.465-2.859-2.352-4.587-3.04-7.667-.296-1.324-.744-3.323.782-4.836.638-.697 1.041-1.094 1.359-1.41.547-.541.798-.789 1.697-2.055 3.977-5.586 4.483-13.27 1.234-18.69-.704-1.173-1.528-2.263-2.381-3.153-2.541-2.635-5.197-3.952-8.287-3.952m3.522 71.493c-18.895 0-31.65-33.973-33.012-41.638-1.333-7.499 3.38-14.925 7.569-19.838 2.5-2.932 5.738-5.647 9.624-8.07 6.423-4.003 14.77-7.581 22.362.302.984 1.023 1.924 2.264 2.722 3.592 3.735 6.232 3.186 15.021-1.338 21.376-.983 1.382-1.316 1.728-1.972 2.379-.303.3-.687.677-1.299 1.345l-.048.05c-.535.522-.405 1.32-.123 2.569.62 2.778 1.403 4.306 2.828 7.083l.903 1.77c3.71 7.307 8.323 16.401 5.233 22.028-2.056 3.74-5.908 6.07-11.449 6.925-.672.084-1.343.127-2 .127M18.98 108.817c-3.091 0-5.747 1.319-8.287 3.957-.856.887-1.678 1.977-2.38 3.15-3.196 5.324-2.79 12.685 1.006 18.315l.428.637-.382.665c-6.629 11.451-6.781 31.833-5.761 34.899.166.725.34 1.22.568 1.639 1.668 3.034 4.918 4.942 9.661 5.674 17.928 2.28 30.92-32.274 32.204-39.506 1.164-6.554-3.172-13.306-7.016-17.816-2.338-2.742-5.385-5.29-9.055-7.58h-.003c-4.312-2.689-7.868-4.034-10.984-4.034m-3.492 71.5c-.661 0-1.324-.043-1.998-.127-5.573-.86-9.425-3.19-11.48-6.93-.345-.63-.601-1.338-.782-2.171-1.07-3.2-1.097-23.768 5.628-36.117-3.929-6.319-4.216-14.387-.66-20.312.795-1.328 1.735-2.569 2.718-3.59 7.598-7.892 15.94-4.305 22.361-.305h-.003c3.889 2.422 7.128 5.137 9.63 8.071 4.187 4.913 8.898 12.342 7.566 19.838-1.362 7.665-14.112 41.638-32.98 41.643" transform="translate(1263 485) translate(97)"/>
                <path fill="#000" d="M131.594 108.82c-3.116 0-6.674 1.342-10.989 4.03-3.668 2.29-6.715 4.84-9.053 7.58-3.845 4.509-8.183 11.26-7.019 17.817 1.288 7.232 14.34 41.801 32.239 39.502 4.711-.728 7.961-2.636 9.628-5.67.23-.421.406-.914.53-1.508 1.06-3.192.91-23.572-5.722-35.03l-.383-.665.43-.637c3.796-5.63 4.2-12.991 1.007-18.315-.704-1.173-1.526-2.263-2.381-3.153-2.541-2.635-5.197-3.952-8.287-3.952m3.522 71.493c-18.895.002-31.65-33.973-33.012-41.638-1.333-7.499 3.38-14.925 7.569-19.838 2.5-2.932 5.738-5.647 9.624-8.07 6.423-4.003 14.77-7.581 22.362.302.984 1.023 1.924 2.264 2.722 3.592 3.553 5.924 3.266 13.993-.663 20.312 6.73 12.357 6.699 32.926 5.592 36.244-.142.699-.398 1.41-.745 2.044-2.056 3.74-5.908 6.07-11.449 6.925-.672.084-1.343.127-2 .127" transform="translate(1263 485) translate(97)"/>
                <path fill="#58D365" d="M64.273 30.229S52.93 36.836 46.51 28.398c0 0 4.622-10.603 13.234-10.534 8.612.069 16 4.36 11.926 7.508-4.073 3.147-7.397 4.857-7.397 4.857" transform="translate(1263 485) translate(97)"/>
                <path fill="#000" d="M47.774 28.254c5.847 6.816 15.853 1.11 15.956 1.05.016-.01.033-.02.05-.028.032-.017 3.293-1.71 7.23-4.752.91-.702.745-1.19.683-1.373-.584-1.724-5.415-4.161-11.957-4.214h-.075c-6.66 0-10.814 7.207-11.887 9.317m7.475 5.483c-3.304 0-6.858-1.09-9.597-4.69-.236-.308-.285-.72-.13-1.076.2-.458 4.98-11.18 14.137-11.18h.094c6.78.055 12.92 2.546 13.98 5.673.268.792.442 2.331-1.403 3.756-3.99 3.084-7.239 4.794-7.544 4.953-.407.228-4.703 2.564-9.537 2.564" transform="translate(1263 485) translate(97)"/>
                <path fill="#007641" d="M91.014 30.57c5.337 1.356 10.64 7.139 17.84-.647 0 0-3.584-10.996-12.163-11.75-8.578-.752-18.195 6.628-14.442 10.15 3.753 3.52 3.428.89 8.765 2.247" transform="translate(1263 485) translate(97)"/>
                <path fill="#000" d="M87.928 29.426c.822 0 1.864.095 3.263.45 1.318.335 2.634.928 3.907 1.502 4.073 1.832 7.924 3.565 12.932-1.626-.73-1.92-4.293-10.242-11.402-10.865-4.379-.38-12.287 2.171-14.23 6.489-.447.995-.335 1.79.343 2.425 1.986 1.864 2.566 1.81 3.842 1.699.38-.035.818-.074 1.345-.074m13.353 5.207c-2.438 0-4.675-1.007-6.773-1.952-1.274-.573-2.476-1.115-3.671-1.419-2.06-.522-3.205-.42-4.127-.337-1.642.146-2.606.12-4.953-2.08-1.13-1.062-1.367-2.501-.668-4.054 1.74-3.873 8.96-7.918 15.665-7.33 8.95.785 12.63 11.773 12.783 12.241.08.245.02.515-.155.705-2.949 3.19-5.628 4.226-8.1 4.226" transform="translate(1263 485) translate(97)"/>
                <path fill="#FFF" d="M70.053 37.052c-1.515 0-3.206-.26-5.026-.774-2.863-.808-4.618-2.207-5.215-4.158-.67-2.188.327-4.533 1.403-6.246-.223.014-.45.02-.678.02-2.73 0-6.34-.979-8.284-3.724-.93-1.313-1.798-3.55-.656-6.756 1.177-3.304 4.027-5.05 8.242-5.05 1.548 0 3.072.237 4.329.517-.71-1.305-1.22-2.915-.799-4.517.455-1.725 1.87-3.054 4.208-3.951 1.92-.736 3.688-1.11 5.254-1.11 2.415 0 4.387.89 5.702 2.573 1.176 1.503 1.763 3.574 1.708 5.838 1.74-1.522 4.196-2.979 7.224-2.979 1.428 0 2.868.336 4.279.997 4.072 1.91 4.32 4.772 4.106 6.308-.355 2.543-2.367 4.883-4.499 6.071 1.96 1.232 4.397 3.248 4.937 5.881.364 1.776-.178 3.522-1.61 5.19-2.448 2.851-5.778 4.487-9.134 4.487-3.042 0-5.59-1.326-7.126-3.628-1.032 2.243-3.328 5.011-8.365 5.011z" transform="translate(1263 485) translate(97)"/>
                <path fill="#000" d="M72.83.23c-1.698 0-3.596.398-5.64 1.181-2.679 1.028-4.315 2.603-4.862 4.68-.308 1.17-.21 2.323.095 3.385-.825-.114-1.7-.187-2.584-.187-4.645 0-7.932 2.047-9.257 5.766-1.296 3.639-.285 6.214.792 7.734 1.917 2.707 5.227 3.883 8.036 4.128-.775 1.676-1.21 3.611-.628 5.516.71 2.322 2.713 3.964 5.952 4.877 1.914.541 3.704.815 5.32.815 3.727 0 6.728-1.515 8.54-4.188 1.751 1.781 4.198 2.804 6.95 2.804 3.671 0 7.298-1.772 9.953-4.862 2.065-2.407 2.143-4.646 1.845-6.101-.49-2.396-2.296-4.302-4.088-5.656 1.823-1.438 3.333-3.573 3.662-5.935.205-1.472.158-5.143-4.714-7.426-1.555-.73-3.149-1.099-4.737-1.099-2.468 0-4.579.863-6.275 1.978-.25-1.687-.86-3.213-1.807-4.424C78.318 1.854 76.317.23 72.831.23v2.146V.23h-.001zm0 2.146c5.625 0 7.133 5.337 5.964 9.956-.025.1.074.171.174.171.052 0 .105-.019.141-.064 1.246-1.538 4.26-4.63 8.356-4.63 1.188 0 2.468.26 3.82.895 7.266 3.405 1.728 10.47-2.178 11.11-.149.024-.176.18-.048.244 1.899.938 9.377 5.096 4.801 10.425-2.37 2.76-5.476 4.112-8.317 4.112-3.08 0-5.848-1.59-7.022-4.702-.04-.1-.146-.15-.252-.15-.111 0-.22.054-.247.163-.474 1.983-2.155 6.073-7.969 6.073-1.344 0-2.91-.22-4.733-.734-8.221-2.32-3.337-8.874-1.874-10.595.086-.101-.016-.217-.154-.216-.023 0-.048.004-.073.012-.82.25-1.736.374-2.683.374-4.673 0-10.062-3.047-7.924-9.047 1.213-3.405 4.258-4.337 7.227-4.337 2.478 0 4.903.648 6.169 1.05.035.011.072.017.106.017.205 0 .356-.185.228-.338-1.407-1.7-4.526-6.393 1.622-8.75 1.881-.722 3.496-1.04 4.867-1.039z" transform="translate(1263 485) translate(97)"/>
                <path fill="#000" d="M67.783 20.065c-.129 0-.26-.023-.387-.073-.905-.346-3.177-.799-3.976-.943-.585-.105-.973-.665-.867-1.247.106-.584.667-.97 1.251-.864.315.056 3.109.57 4.366 1.053.555.212.831.834.617 1.386-.164.427-.572.688-1.004.688M70.869 28.79c-.256 0-.514-.09-.72-.275-.442-.396-.478-1.075-.08-1.516 1.663-1.842 2.18-3.615 2.186-3.632.156-.572.748-.909 1.321-.752.574.156.912.746.755 1.318-.024.091-.634 2.254-2.661 4.502-.213.235-.506.355-.801.355M84.444 26.942c-.155 0-.312-.033-.46-.104-1.976-.932-5.286-2.872-5.426-2.953-.513-.302-.684-.96-.381-1.47.3-.511.96-.681 1.473-.38.034.019 3.368 1.973 5.255 2.864.538.253.767.893.513 1.429-.184.387-.571.614-.974.614M73.75 15.783c-.044 0-.089-.002-.133-.007-.59-.073-1.01-.608-.937-1.197.063-.513-.442-2.219-.953-3.49-.22-.549.046-1.173.598-1.394.551-.224 1.178.046 1.4.595.297.737 1.253 3.242 1.092 4.551-.067.543-.531.942-1.067.942M81.132 17.671c-.404 0-.792-.227-.975-.616-.253-.536-.023-1.175.515-1.428l5.979-2.806c.537-.252 1.179-.023 1.432.513.254.537.023 1.176-.515 1.429l-5.978 2.806c-.148.07-.305.102-.458.102" transform="translate(1263 485) translate(97)"/>
                <path fill="#FB0" d="M79.014 18.442c.681 2.001-.825 4.06-3.364 4.596-2.54.537-5.149-.65-5.83-2.652-.68-2.002.941-3.722 3.48-4.259 2.538-.536 5.034.314 5.714 2.315" transform="translate(1263 485) translate(97)"/>
                <path fill="#000" d="M74.8 17.04c-.408 0-.837.044-1.277.137-1.205.255-2.167.831-2.572 1.54-.237.414-.273.847-.111 1.324.502 1.476 2.602 2.369 4.587 1.947 1.085-.229 1.958-.8 2.395-1.566.209-.365.407-.944.173-1.635-.373-1.095-1.632-1.747-3.195-1.747m-.411 7.204c-2.557 0-4.863-1.382-5.587-3.514-.361-1.06-.265-2.124.277-3.076.715-1.251 2.172-2.19 3.997-2.577 3.203-.677 6.132.593 6.958 3.02.384 1.129.262 2.33-.34 3.387-.742 1.298-2.134 2.248-3.82 2.605-.498.104-.996.155-1.485.155" transform="translate(1263 485) translate(97)"/>
            </g>
        </g>
    </g>
</svg>
