<?xml version="1.0" encoding="utf-8"?>
<!-- Generator: Adobe Illustrator 25.0.0, SVG Export Plug-In . SVG Version: 6.00 Build 0)  -->
<svg version="1.1" id="Layer_1" xmlns="http://www.w3.org/2000/svg" xmlns:xlink="http://www.w3.org/1999/xlink" x="0px" y="0px"
	 viewBox="0 0 32 32" style="enable-background:new 0 0 32 32;" xml:space="preserve">
<style type="text/css">
	.st0{fill:#444;}
</style>
<circle cx="15.9" cy="15.9" r="15.9" fill="#FFFFFF"/>
<path class="st0" d="M16.5,0h-1C6.9,0,0,6.9,0,15.5v1C0,25.1,6.9,32,15.5,32h1C25.1,32,32,25.1,32,16.5v-1C32,6.9,25.1,0,16.5,0z
	 M10,8c0-0.6,0.4-1,1-1h10c0.6,0,1,0.4,1,1v4H10V8z M21,24c0,0.6-0.4,1-1,1h-8c-0.6,0-1-0.4-1-1v-6c0-0.6,0.4-1,1-1h8
	c0.6,0,1,0.4,1,1V24z M25,19c0,0.6-0.4,1-1,1h-2v-2c0-1.1-0.9-2-2-2h-8c-1.1,0-2,0.9-2,2v2H8c-0.6,0-1-0.4-1-1v-4c0-1.1,0.9-2,2-2
	h14c1.1,0,2,0.9,2,2V19z"/>
</svg>
