<?xml version="1.0" encoding="utf-8"?>
<!-- Generator: Adobe Illustrator 25.0.0, SVG Export Plug-In . SVG Version: 6.00 Build 0)  -->
<svg version="1.1" id="Layer_1" xmlns="http://www.w3.org/2000/svg" xmlns:xlink="http://www.w3.org/1999/xlink" x="0px" y="0px"
	 viewBox="0 0 32 32" style="enable-background:new 0 0 32 32;" xml:space="preserve">
<style type="text/css">
	.st0{fill:#555;}
	.st1{fill-rule:evenodd;clip-rule:evenodd;fill:#EEE;}
</style>
<path class="st0" d="M15.5,0h1C25.1,0,32,6.9,32,15.5v1C32,25.1,25.1,32,16.5,32h-1C6.9,32,0,25.1,0,16.5v-1C0,6.9,6.9,0,15.5,0z"/>
<path class="st1" d="M16.5,9c0-0.4,0.5-0.7,0.9-0.4l7,7c0.2,0.2,0.2,0.5,0,0.7l-7,6c-0.3,0.3-0.8,0-0.8-0.4v-3.5
	c-2.9-0.7-5.6,0.5-8.1,3.9c-0.3,0.4-1,0.1-0.9-0.4c0.9-5.1,3.6-8.7,9-9.3V9z"/>
</svg>
