<svg 
  xmlns="http://www.w3.org/2000/svg" 
  xmlns:xlink="http://www.w3.org/1999/xlink"
  width="48" 
  height="48" 
  viewBox="0 0 48 48">

  <defs>
    <path id="a" d="M0 0h48v48H0z"/>
  </defs>

  <!-- (1) 배경을 다크 테마(#1E1E1E)로 -->
  <g fill="none" fill-rule="evenodd">
    <mask id="b" fill="#fff">
      <use xlink:href="#a"/>
    </mask>
    <use fill="#1E1E1E" xlink:href="#a" fill-rule="nonzero"/>

    <!-- (2) 원본과 동일한 좌표를 유지, 중복된 circle은 제거하고 “마지막 색”을 더 어둡게 매핑 -->
    <g mask="url(#b)" fill-rule="nonzero">

      <!-- ***** 메인 격자 부분 ***** -->
      <g transform="translate(-1 7)">
        <!-- 행 1: (y=1) x=1,9,17,25,33,41 
             원본에서 주로 #ECF8FF → 더 어둡게(#444444) -->
        <circle cx="1"  cy="1" r="1" fill="#444444"/>
        <circle cx="9"  cy="1" r="1" fill="#444444"/>
        <circle cx="17" cy="1" r="1" fill="#444444"/>
        <circle cx="25" cy="1" r="1" fill="#444444"/>
        <circle cx="33" cy="1" r="1" fill="#444444"/>
        <circle cx="41" cy="1" r="1" fill="#444444"/>

        <!-- 행 2: (y=9) x=1,9,17,25,33,41 
             원본에서 마지막에 #D6E9F4였던 좌표 → #222222
             마지막에 #ECF8FF이었던 좌표 → #444444
             마지막에 #D8D8D8이었던 좌표 → #333333 
             (실제 원본 우선순위 따져가며 매핑) 
             예: 아래는 예시 로직으로 작성 -->
        <circle cx="1"  cy="9" r="1" fill="#222222"/>   <!-- #D6E9F4 → #222222 -->
        <circle cx="9"  cy="9" r="1" fill="#444444"/>   <!-- #ECF8FF → #444444 -->
        <circle cx="17" cy="9" r="1" fill="#222222"/>   <!-- #D6E9F4 → #222222 -->
        <circle cx="25" cy="9" r="1" fill="#444444"/>   <!-- #ECF8FF → #444444 -->
        <circle cx="33" cy="9" r="1" fill="#222222"/>   <!-- #D6E9F4 → #222222 -->
        <circle cx="41" cy="9" r="1" fill="#444444"/>   <!-- #ECF8FF → #444444 -->

        <!-- 행 3: (y=17) 전부 #ECF8FF → #444444 -->
        <circle cx="1"  cy="17" r="1" fill="#444444"/>
        <circle cx="9"  cy="17" r="1" fill="#444444"/>
        <circle cx="17" cy="17" r="1" fill="#444444"/>
        <circle cx="25" cy="17" r="1" fill="#444444"/>
        <circle cx="33" cy="17" r="1" fill="#444444"/>
        <circle cx="41" cy="17" r="1" fill="#444444"/>

        <!-- 행 4: (y=25) 일부 #D6E9F4 → #222222 / 일부 #ECF8FF → #444444 / 일부 #D8D8D8 → #333333
             예시는 #D6E9F4 자리에 #222222, #ECF8FF 자리에 #444444, #D8D8D8 자리에 #333333 -->
        <circle cx="1"  cy="25" r="1" fill="#222222"/>
        <circle cx="9"  cy="25" r="1" fill="#444444"/>
        <circle cx="17" cy="25" r="1" fill="#222222"/>
        <circle cx="25" cy="25" r="1" fill="#444444"/>
        <circle cx="33" cy="25" r="1" fill="#222222"/>
        <circle cx="41" cy="25" r="1" fill="#444444"/>

        <!-- 행 5: (y=33) 전부 #ECF8FF → #444444 -->
        <circle cx="1"  cy="33" r="1" fill="#444444"/>
        <circle cx="9"  cy="33" r="1" fill="#444444"/>
        <circle cx="17" cy="33" r="1" fill="#444444"/>
        <circle cx="25" cy="33" r="1" fill="#444444"/>
        <circle cx="33" cy="33" r="1" fill="#444444"/>
        <circle cx="41" cy="33" r="1" fill="#444444"/>

        <!-- 행 6: (y=41) 원본 마지막에 #D6E9F4 → #222222 -->
        <circle cx="1"  cy="41" r="1" fill="#222222"/>
      </g>

      <!-- ***** 오른쪽/아래쪽 테두리 부분 ***** -->
      <!-- 아래도 원본 코드의 “마지막으로 선언된 fill”을 기준으로 중복 정리 & 매핑해주면 됨.
           예시는 몇 가지만 작성 -->
      <circle cx="48" cy="16" r="1" fill="#333333"/>  <!-- #D8D8D8 → #333333, 예시 -->
      <circle cx="48" cy="24" r="1" fill="#444444"/>  <!-- #ECF8FF → #444444 -->
      <circle cx="48" cy="32" r="1" fill="#222222"/>  <!-- #D6E9F4 → #222222 -->
      <circle cx="48" cy="40" r="1" fill="#444444"/>  <!-- #ECF8FF → #444444 -->
      <circle cx="48" cy="48" r="1" fill="#333333"/>  <!-- #D8D8D8 → #333333 -->

      <circle cx="40" cy="48" r="1" fill="#444444"/>
      <circle cx="32" cy="48" r="1" fill="#222222"/>
      <circle cx="24" cy="48" r="1" fill="#444444"/>
      <circle cx="16" cy="48" r="1" fill="#333333"/>
      <circle cx="8"  cy="48" r="1" fill="#444444"/>
    </g>
  </g>
</svg>
