<svg xmlns="http://www.w3.org/2000/svg" width="20" height="20" viewBox="0 0 20 20">
    <g fill="none" fill-rule="evenodd">
        <g fill="#7255ee">
            <path d="M10 0c5.523 0 10 4.477 10 10s-4.477 10-10 10S0 15.523 0 10 4.477 0 10 0zm0 1c-4.97 0-9 4.03-9 9s4.03 9 9 9 9-4.03 9-9-4.03-9-9-9z"/>
            <path stroke="#7255ee" d="M6.235 6.235c-.111.11-.18.263-.18.432 0 .168.069.321.18.432.11.11.263.179.432.179.168 0 .321-.069.432-.18.11-.11.179-.263.179-.431 0-.17-.069-.322-.18-.432-.11-.111-.263-.18-.863 0zm6.888 0c-.11.11-.179.263-.179.432 0 .168.069.321.18.432.11.11.263.179.432.179.168 0 .321-.069.432-.18.11-.11.179-.263.179-.431 0-.17-.069-.322-.18-.432-.11-.111-.263-.18-.864 0z"/>
            <path d="M10 16c-2.934 0-5.376-2.106-5.897-4.889h1.021C5.629 13.339 7.621 15 10 15c2.38 0 4.37-1.662 4.876-3.888h1.021C15.377 13.893 12.934 16 10 16z"/>
        </g>
    </g>
</svg>
