<svg xmlns="http://www.w3.org/2000/svg" width="14" height="14" viewBox="0 0 14 14">
    <path fill="#DDD" fill-rule="evenodd" d="M6.028 0h1.944l.61 2.197c.24.08.472.176.695.288l1.985-1.122 1.375 1.375-1.122 1.985c.112.223.209.455.288.694l2.197.61V7.973l-2.197.61c-.08.24-.176.472-.288.695l1.122 1.985-1.375 1.375-1.985-1.122c-.223.112-.455.209-.694.288L7.973 14H6.027l-.61-2.197c-.24-.08-.472-.176-.695-.288l-1.985 1.122-1.375-1.375 1.122-1.985c-.112-.223-.209-.455-.288-.694L0 7.973V6.027l2.197-.61c.08-.24.176-.472.288-.695L1.363 2.738l1.375-1.375 1.985 1.122c.223-.112.455-.209.694-.288L6.027 0zm3.305 7C9.333 5.711 8.29 4.667 7 4.667 5.711 4.667 4.667 5.71 4.667 7 4.667 8.289 5.71 9.333 7 9.333 8.289 9.333 9.333 8.29 9.333 7z"/>
</svg>
