<svg xmlns="http://www.w3.org/2000/svg" width="16" height="16" viewBox="0 0 16 16">
    <path fill="#7255ee" fill-rule="evenodd" d="M10.036 10.036c1.952-1.953 1.952-5.119 0-7.072-1.953-1.952-5.119-1.952-7.072 0-1.952 1.953-1.952 5.119 0 7.072 1.953 1.952 5.119 1.952 7.072 0zm1.06-8.132c2.362 2.362 2.526 6.09.493 8.641l4.195 4.195c.288.288.288.756 0 1.044-.288.288-.756.288-1.044 0l-4.195-4.195c-2.552 2.033-6.28 1.87-8.641-.493-2.539-2.538-2.539-6.654 0-9.192 2.538-2.539 6.654-2.539 9.192 0z"/>
</svg>
