<svg xmlns="http://www.w3.org/2000/svg" width="17" height="20" viewBox="0 0 17 20">
    <path fill="#FFFFFF" fill-rule="evenodd" d="M8.5 0c.854 0 1.545.692 1.545 1.545v.134C14.003 2.406 17 5.872 17 10.039v6.884h-5.41c0 1.7-1.383 3.077-3.09 3.077-1.621 0-2.964-1.247-3.086-2.906l-.006-.171H0v-6.885c0-4.166 2.998-7.632 6.954-8.36v-.133C6.955.692 7.647 0 8.5 0zm1.545 16.923h-3.09l.004.115c.059.796.726 1.424 1.541 1.424.854 0 1.545-.69 1.545-1.539zM8.5 3.077c-3.676 0-6.67 2.916-6.796 6.561l-.004.239v5.508h13.6V9.877c0-3.756-3.044-6.8-6.8-6.8z"/>
</svg>
